<svg xmlns="http://www.w3.org/2000/svg" width="24" height="24" viewBox="0 0 24 24" fill="none"><g stroke="currentColor" stroke-width="1.7" stroke-linecap="round" stroke-linejoin="round"><path d="M12 2.5c1.2 1.7 2.6 2.6 3.6 4.2 0.6 1 0.9 2.1 0.9 3.3 0 4-3.2 6.7-7 6.7-3.6 0-6.5-2.6-6.5-6.3 0-2.6 1.6-4.7 3.8-6.3-0.1 1.8 1.1 3.2 2.7 4.2 0.1-2.2 1.2-3.8 2.5-5.8z"/><path d="M12 9.2c-1.5 1.1-2.6 2.4-2.6 4.1 0 2.1 1.8 3.7 4 3.7 2.2 0 3.9-1.5 3.9-3.6 0-1.1-0.5-2.1-1.3-3"/><circle cx="18.5" cy="5.5" r="1.3"/></g></svg>