<?xml version="1.0" encoding="UTF-8"?>
<!DOCTYPE svg PUBLIC "-//W3C//DTD SVG 1.1//EN" "http://www.w3.org/Graphics/SVG/1.1/DTD/svg11.dtd">
<svg xmlns="http://www.w3.org/2000/svg" version="1.1" width="512px" height="512px" style="shape-rendering:geometricPrecision; text-rendering:geometricPrecision; image-rendering:optimizeQuality; fill-rule:evenodd; clip-rule:evenodd" xmlns:xlink="http://www.w3.org/1999/xlink">
<g><path style="opacity:0.968" fill="#020201" d="M 241.5,-0.5 C 250.833,-0.5 260.167,-0.5 269.5,-0.5C 283.009,1.84071 295.675,6.67405 307.5,14C 311.448,17.1563 312.448,20.9896 310.5,25.5C 307.754,28.3054 304.421,29.1387 300.5,28C 293.048,23.2386 285.048,19.7386 276.5,17.5C 241.762,9.69045 213.262,19.6904 191,47.5C 170.495,79.1098 170.495,110.776 191,142.5C 199.084,150.58 206.418,159.247 213,168.5C 216.958,175.887 219.792,183.554 221.5,191.5C 230.318,192.493 239.318,192.827 248.5,192.5C 248.831,171.66 248.497,150.993 247.5,130.5C 242.267,122.384 236.767,114.384 231,106.5C 227.705,97.2424 230.872,93.4091 240.5,95C 243.21,97.6278 245.544,100.461 247.5,103.5C 249.925,107.352 252.591,111.019 255.5,114.5C 260.278,107.881 265.278,101.381 270.5,95C 278.775,92.9429 282.275,96.1095 281,104.5C 274.919,113.066 269.086,121.733 263.5,130.5C 262.503,150.993 262.169,171.66 262.5,192.5C 271.682,192.827 280.682,192.493 289.5,191.5C 291.369,182.734 294.535,174.401 299,166.5C 307.71,156.792 316.043,146.792 324,136.5C 339.923,107.086 339.257,78.0856 322,49.5C 320.861,45.5789 321.695,42.2456 324.5,39.5C 329.01,37.5518 332.844,38.5518 336,42.5C 357.406,79.9938 356.072,116.66 332,152.5C 325.667,159.5 319.333,166.5 313,173.5C 309.95,178.932 307.45,184.598 305.5,190.5C 323.298,191.697 333.298,201.03 335.5,218.5C 333.152,236.526 322.819,245.526 304.5,245.5C 305.681,274.128 292.681,292.628 265.5,301C 238.332,304.473 219.499,293.639 209,268.5C 207.121,260.949 206.287,253.282 206.5,245.5C 183.19,244.548 173.357,232.548 177,209.5C 182.381,197.213 191.881,191.047 205.5,191C 203.731,185.699 201.564,180.532 199,175.5C 192.706,167.538 186.04,159.871 179,152.5C 152.378,112.116 153.378,72.4489 182,33.5C 197.955,15.2754 217.788,3.94211 241.5,-0.5 Z"/></g>
<g><path style="opacity:1" fill="#f7cf70" d="M 276.5,17.5 C 261.593,31.9741 252.426,49.6408 249,70.5C 247.835,81.4698 247.335,92.4698 247.5,103.5C 245.544,100.461 243.21,97.6278 240.5,95C 230.872,93.4091 227.705,97.2424 231,106.5C 236.767,114.384 242.267,122.384 247.5,130.5C 247.5,150.833 247.5,171.167 247.5,191.5C 238.833,191.5 230.167,191.5 221.5,191.5C 219.792,183.554 216.958,175.887 213,168.5C 206.418,159.247 199.084,150.58 191,142.5C 170.495,110.776 170.495,79.1098 191,47.5C 213.262,19.6904 241.762,9.69045 276.5,17.5 Z"/></g>
<g><path style="opacity:0.999" fill="#fae19f" d="M 276.5,17.5 C 285.048,19.7386 293.048,23.2386 300.5,28C 304.421,29.1387 307.754,28.3054 310.5,25.5C 315.5,29.8333 320.167,34.5 324.5,39.5C 321.695,42.2456 320.861,45.5789 322,49.5C 339.257,78.0856 339.923,107.086 324,136.5C 316.043,146.792 307.71,156.792 299,166.5C 294.535,174.401 291.369,182.734 289.5,191.5C 280.833,191.5 272.167,191.5 263.5,191.5C 263.5,171.167 263.5,150.833 263.5,130.5C 269.086,121.733 274.919,113.066 281,104.5C 282.275,96.1095 278.775,92.9429 270.5,95C 265.278,101.381 260.278,107.881 255.5,114.5C 252.591,111.019 249.925,107.352 247.5,103.5C 247.335,92.4698 247.835,81.4698 249,70.5C 252.426,49.6408 261.593,31.9741 276.5,17.5 Z"/></g>
<g><path style="opacity:0.955" fill="#010100" d="M 94.5,118.5 C 102.43,117.77 108.93,120.436 114,126.5C 117.5,133.5 121,140.5 124.5,147.5C 133.476,149.33 142.476,151.164 151.5,153C 161.833,159.83 164.667,168.996 160,180.5C 153.82,187.345 147.654,194.178 141.5,201C 142.994,208.466 144.328,215.966 145.5,223.5C 142.969,238.556 134.302,244.722 119.5,242C 112.426,238.38 105.259,234.88 98,231.5C 90.741,234.88 83.5744,238.38 76.5,242C 61.5064,244.485 52.8398,238.318 50.5,223.5C 51.7874,215.451 52.9541,207.451 54,199.5C 48.3333,193.833 42.6667,188.167 37,182.5C 31.0735,171.509 32.9068,162.009 42.5,154C 52.0786,151.511 61.7453,149.345 71.5,147.5C 75,140.5 78.5,133.5 82,126.5C 85.3779,122.406 89.5446,119.739 94.5,118.5 Z"/></g>
<g><path style="opacity:0.955" fill="#010100" d="M 409.5,118.5 C 417.43,117.77 423.93,120.436 429,126.5C 432.5,133.5 436,140.5 439.5,147.5C 449.291,149.16 458.958,151.326 468.5,154C 478.093,162.009 479.927,171.509 474,182.5C 467.788,188.376 461.955,194.543 456.5,201C 458.21,208.429 459.544,215.929 460.5,223.5C 458.16,238.318 449.494,244.485 434.5,242C 427.426,238.38 420.259,234.88 413,231.5C 406.614,234.276 400.448,237.443 394.5,241C 378.428,245.959 368.761,240.126 365.5,223.5C 367.004,215.484 368.171,207.484 369,199.5C 361.927,193.098 355.594,186.098 350,178.5C 346.691,167.558 349.858,159.058 359.5,153C 368.548,151.304 377.548,149.47 386.5,147.5C 390,140.5 393.5,133.5 397,126.5C 400.378,122.406 404.545,119.739 409.5,118.5 Z"/></g>
<g><path style="opacity:1" fill="#846f3c" d="M 247.5,130.5 C 248.497,150.993 248.831,171.66 248.5,192.5C 239.318,192.827 230.318,192.493 221.5,191.5C 230.167,191.5 238.833,191.5 247.5,191.5C 247.5,171.167 247.5,150.833 247.5,130.5 Z"/></g>
<g><path style="opacity:1" fill="#867955" d="M 263.5,130.5 C 263.5,150.833 263.5,171.167 263.5,191.5C 272.167,191.5 280.833,191.5 289.5,191.5C 280.682,192.493 271.682,192.827 262.5,192.5C 262.169,171.66 262.503,150.993 263.5,130.5 Z"/></g>
<g><path style="opacity:1" fill="#f4cd6f" d="M 103.5,141.5 C 98.4437,146.587 94.6104,152.587 92,159.5C 86.6837,178.463 87.517,197.13 94.5,215.5C 87.0359,219.066 79.7026,222.899 72.5,227C 67.9262,227.76 65.9262,225.76 66.5,221C 68.0568,211.837 69.2235,202.67 70,193.5C 62.3792,186.554 55.5459,179.054 49.5,171C 49.4393,169.289 50.1059,167.956 51.5,167C 61.1989,165.33 70.8656,163.663 80.5,162C 85.4946,153.036 90.4946,144.036 95.5,135C 100.484,134.034 103.151,136.201 103.5,141.5 Z"/></g>
<g><path style="opacity:1" fill="#f4cd6f" d="M 418.5,140.5 C 405.763,156.983 400.93,175.649 404,196.5C 405.368,202.975 407.202,209.308 409.5,215.5C 402.059,219.103 394.726,222.936 387.5,227C 383.173,227.843 381.173,226.01 381.5,221.5C 383.22,212.193 384.386,202.86 385,193.5C 378.387,186.887 371.721,180.221 365,173.5C 364.104,170.975 364.604,168.808 366.5,167C 376.203,165.329 385.87,163.663 395.5,162C 401.007,153.322 406.007,144.322 410.5,135C 415.173,133.832 417.84,135.665 418.5,140.5 Z"/></g>
<g><path style="opacity:1" fill="#f9e19e" d="M 103.5,141.5 C 107.095,148.517 111.095,155.35 115.5,162C 124.714,164.153 134.047,165.82 143.5,167C 146.306,168.305 147.14,170.472 146,173.5C 139.279,180.221 132.613,186.887 126,193.5C 126.614,202.86 127.78,212.193 129.5,221.5C 129.827,226.01 127.827,227.843 123.5,227C 115.991,222.745 108.324,218.745 100.5,215C 98.4024,214.322 96.4024,214.489 94.5,215.5C 87.517,197.13 86.6837,178.463 92,159.5C 94.6104,152.587 98.4437,146.587 103.5,141.5 Z"/></g>
<g><path style="opacity:1" fill="#f9e19e" d="M 418.5,140.5 C 421.824,147.976 425.824,155.143 430.5,162C 439.726,164.094 449.06,165.76 458.5,167C 461.306,168.305 462.14,170.472 461,173.5C 454.333,180.167 447.667,186.833 441,193.5C 441.776,202.666 442.942,211.833 444.5,221C 445.074,225.76 443.074,227.76 438.5,227C 430.991,222.745 423.324,218.745 415.5,215C 413.402,214.322 411.402,214.489 409.5,215.5C 407.202,209.308 405.368,202.975 404,196.5C 400.93,175.649 405.763,156.983 418.5,140.5 Z"/></g>
<g><path style="opacity:1" fill="#6a7c8d" d="M 241.5,207.5 C 237.625,214.79 237.625,222.123 241.5,229.5C 227.163,229.667 212.829,229.5 198.5,229C 191.586,225.23 189.753,219.73 193,212.5C 194.543,210.622 196.376,209.122 198.5,208C 212.829,207.5 227.163,207.333 241.5,207.5 Z"/></g>
<g><path style="opacity:1" fill="#76889a" d="M 241.5,207.5 C 265.169,207.333 288.836,207.5 312.5,208C 319.414,211.77 321.247,217.27 318,224.5C 316.457,226.378 314.624,227.878 312.5,229C 288.836,229.5 265.169,229.667 241.5,229.5C 237.625,222.123 237.625,214.79 241.5,207.5 Z"/></g>
<g><path style="opacity:1" fill="#59d0f7" d="M 288.5,245.5 C 275.167,245.5 261.833,245.5 248.5,245.5C 247.501,257.529 250.335,268.529 257,278.5C 259.106,281.118 261.606,283.118 264.5,284.5C 243.665,289.153 229.831,281.153 223,260.5C 222.501,255.177 222.334,249.844 222.5,244.5C 244.673,244.169 266.673,244.503 288.5,245.5 Z"/></g>
<g><path style="opacity:1" fill="#82dcfd" d="M 288.5,245.5 C 290.368,259.403 286.035,270.903 275.5,280C 272.274,282.575 268.607,284.075 264.5,284.5C 261.606,283.118 259.106,281.118 257,278.5C 250.335,268.529 247.501,257.529 248.5,245.5C 261.833,245.5 275.167,245.5 288.5,245.5 Z"/></g>
<g><path style="opacity:0.967" fill="#000000" d="M 404.5,511.5 C 305.167,511.5 205.833,511.5 106.5,511.5C 85.0705,505.902 71.9038,492.235 67,470.5C 66.3333,446.5 66.3333,422.5 67,398.5C 68.2725,395.778 70.4392,394.444 73.5,394.5C 76.617,394.642 79.117,395.976 81,398.5C 81.3333,421.5 81.6667,444.5 82,467.5C 85.3977,482.564 94.5643,492.064 109.5,496C 154.832,496.5 200.165,496.667 245.5,496.5C 297.501,496.667 349.501,496.5 401.5,496C 417.461,491.879 426.461,481.712 428.5,465.5C 429.499,424.337 429.832,383.003 429.5,341.5C 313.332,341.167 197.332,341.5 81.5,342.5C 81.6665,351.839 81.4998,361.173 81,370.5C 79.117,373.024 76.617,374.358 73.5,374.5C 70.4392,374.556 68.2725,373.222 67,370.5C 66.6667,359.167 66.3333,347.833 66,336.5C 55.5882,316.009 44.9216,295.676 34,275.5C 33.051,266.783 36.8844,263.283 45.5,265C 57.3892,284.606 68.3892,304.773 78.5,325.5C 196.5,326.833 314.5,326.833 432.5,325.5C 442.611,304.773 453.611,284.606 465.5,265C 474.116,263.283 477.949,266.783 477,275.5C 466.078,295.676 455.412,316.009 445,336.5C 444.667,381.167 444.333,425.833 444,470.5C 439.096,492.235 425.93,505.902 404.5,511.5 Z"/></g>
<g><path style="opacity:0.999" fill="#fa5b6d" d="M 81.5,342.5 C 133.167,342.5 184.833,342.5 236.5,342.5C 232.069,350.704 228.735,359.371 226.5,368.5C 221.777,367.553 217.944,368.886 215,372.5C 214.333,402.833 214.333,433.167 215,463.5C 215.792,465.644 217.292,466.977 219.5,467.5C 223.565,468.193 227.732,468.86 232,469.5C 235.459,479.084 239.959,488.084 245.5,496.5C 200.165,496.667 154.832,496.5 109.5,496C 94.5643,492.064 85.3977,482.564 82,467.5C 81.6667,444.5 81.3333,421.5 81,398.5C 79.117,395.976 76.617,394.642 73.5,394.5C 73.5,387.833 73.5,381.167 73.5,374.5C 76.617,374.358 79.117,373.024 81,370.5C 81.4998,361.173 81.6665,351.839 81.5,342.5 Z"/></g>
<g><path style="opacity:1" fill="#fd6d7f" d="M 236.5,342.5 C 300.5,342.5 364.5,342.5 428.5,342.5C 428.5,383.5 428.5,424.5 428.5,465.5C 426.461,481.712 417.461,491.879 401.5,496C 349.501,496.5 297.501,496.667 245.5,496.5C 239.959,488.084 235.459,479.084 232,469.5C 227.732,468.86 223.565,468.193 219.5,467.5C 233.171,467.667 246.837,467.5 260.5,467C 264.701,463.975 265.535,460.141 263,455.5C 261.581,454.54 260.081,453.707 258.5,453C 248.839,452.5 239.172,452.334 229.5,452.5C 229.5,443.5 229.5,434.5 229.5,425.5C 238.839,425.666 248.173,425.5 257.5,425C 261.212,422.487 262.378,418.987 261,414.5C 259.786,412.951 258.286,411.785 256.5,411C 247.506,410.5 238.506,410.334 229.5,410.5C 229.5,401.5 229.5,392.5 229.5,383.5C 239.506,383.666 249.506,383.5 259.5,383C 263.861,380.774 265.361,377.274 264,372.5C 262.786,370.951 261.286,369.785 259.5,369C 248.505,368.5 237.505,368.333 226.5,368.5C 228.735,359.371 232.069,350.704 236.5,342.5 Z"/></g>
<g><path style="opacity:1" fill="#97404b" d="M 81.5,342.5 C 197.332,341.5 313.332,341.167 429.5,341.5C 429.832,383.003 429.499,424.337 428.5,465.5C 428.5,424.5 428.5,383.5 428.5,342.5C 364.5,342.5 300.5,342.5 236.5,342.5C 184.833,342.5 133.167,342.5 81.5,342.5 Z"/></g>
<g><path style="opacity:1" fill="#030101" d="M 140.5,401.5 C 140.217,400.711 139.717,400.044 139,399.5C 138.5,420.497 138.333,441.497 138.5,462.5C 137.488,465.853 135.154,467.52 131.5,467.5C 128.426,467.55 126.259,466.217 125,463.5C 124.333,432.833 124.333,402.167 125,371.5C 129.958,367.285 134.625,367.619 139,372.5C 153.667,393.833 168.333,415.167 183,436.5C 183.333,414.833 183.667,393.167 184,371.5C 189.41,365.91 194.077,366.577 198,373.5C 198.667,402.833 198.667,432.167 198,461.5C 195.459,466.069 191.625,467.569 186.5,466C 185.584,465.626 184.75,465.126 184,464.5C 169.49,443.471 154.99,422.471 140.5,401.5 Z"/></g>
<g><path style="opacity:1" fill="#060203" d="M 226.5,368.5 C 237.505,368.333 248.505,368.5 259.5,369C 261.286,369.785 262.786,370.951 264,372.5C 265.361,377.274 263.861,380.774 259.5,383C 249.506,383.5 239.506,383.666 229.5,383.5C 229.5,392.5 229.5,401.5 229.5,410.5C 238.506,410.334 247.506,410.5 256.5,411C 258.286,411.785 259.786,412.951 261,414.5C 262.378,418.987 261.212,422.487 257.5,425C 248.173,425.5 238.839,425.666 229.5,425.5C 229.5,434.5 229.5,443.5 229.5,452.5C 239.172,452.334 248.839,452.5 258.5,453C 260.081,453.707 261.581,454.54 263,455.5C 265.535,460.141 264.701,463.975 260.5,467C 246.837,467.5 233.171,467.667 219.5,467.5C 217.292,466.977 215.792,465.644 215,463.5C 214.333,433.167 214.333,402.833 215,372.5C 217.944,368.886 221.777,367.553 226.5,368.5 Z"/></g>
<g><path style="opacity:1" fill="#050202" d="M 284.5,370.5 C 288.888,369.943 292.055,371.61 294,375.5C 298.466,396.167 302.8,416.833 307,437.5C 312,421.167 317,404.833 322,388.5C 323.491,382.852 325.658,377.519 328.5,372.5C 332.853,369.602 336.686,370.268 340,374.5C 346.671,395.844 353.337,417.178 360,438.5C 363.999,417.837 367.999,397.171 372,376.5C 375.846,369.534 380.513,368.867 386,374.5C 386.667,377.167 386.667,379.833 386,382.5C 380.409,409.786 375.076,437.12 370,464.5C 367.081,470.025 362.581,471.858 356.5,470C 355.333,468.833 354.167,467.667 353,466.5C 346.718,445.655 340.051,424.988 333,404.5C 326.531,425.572 319.865,446.572 313,467.5C 308,471.5 303,471.5 298,467.5C 291.711,437.722 285.544,407.889 279.5,378C 279.625,376.373 280.125,374.873 281,373.5C 282.518,372.837 283.685,371.837 284.5,370.5 Z"/></g>
<g><path style="opacity:1" fill="#6e2830" d="M 140.5,401.5 C 139.833,421.833 139.167,442.167 138.5,462.5C 138.333,441.497 138.5,420.497 139,399.5C 139.717,400.044 140.217,400.711 140.5,401.5 Z"/></g>
</svg>
