<?xml version="1.0" encoding="UTF-8"?>
<!DOCTYPE svg PUBLIC "-//W3C//DTD SVG 1.1//EN" "http://www.w3.org/Graphics/SVG/1.1/DTD/svg11.dtd">
<svg xmlns="http://www.w3.org/2000/svg" version="1.1" width="512px" height="512px" style="shape-rendering:geometricPrecision; text-rendering:geometricPrecision; image-rendering:optimizeQuality; fill-rule:evenodd; clip-rule:evenodd" xmlns:xlink="http://www.w3.org/1999/xlink">
<g><path style="opacity:0.92" fill="#000000" d="M 251.5,-0.5 C 254.167,-0.5 256.833,-0.5 259.5,-0.5C 260.458,0.961599 261.624,2.29493 263,3.5C 263.667,15.5 263.667,27.5 263,39.5C 260.565,44.2238 256.731,45.7238 251.5,44C 250.333,42.8333 249.167,41.6667 248,40.5C 247.333,28.1667 247.333,15.8333 248,3.5C 249.032,1.97331 250.199,0.639972 251.5,-0.5 Z"/></g>
<g><path style="opacity:0.91" fill="#000000" d="M 158.5,17.5 C 164.91,17.7369 168.744,21.0703 170,27.5C 178,46.8333 186,66.1667 194,85.5C 195.836,93.6544 192.669,97.4877 184.5,97C 182.061,96.2261 180.227,94.7261 179,92.5C 170.529,71.4192 161.862,50.4192 153,29.5C 151.393,23.7212 153.227,19.7212 158.5,17.5 Z"/></g>
<g><path style="opacity:0.912" fill="#000000" d="M 348.5,17.5 C 356.662,17.4983 359.828,21.4983 358,29.5C 349.138,50.4192 340.471,71.4192 332,92.5C 326.908,99.1314 321.908,99.1314 317,92.5C 316.333,90.1667 316.333,87.8333 317,85.5C 326.167,63.8333 335.333,42.1667 344.5,20.5C 345.901,19.4793 347.235,18.4793 348.5,17.5 Z"/></g>
<g><path style="opacity:0.959" fill="#020101" d="M 307.5,387.5 C 305.032,385.359 303.366,382.692 302.5,379.5C 304.843,373.484 307.177,367.484 309.5,361.5C 311.04,358.057 313.707,356.057 317.5,355.5C 341.757,358.807 366.09,360.974 390.5,362C 407.315,357.683 416.315,346.85 417.5,329.5C 417.245,323.814 415.745,318.481 413,313.5C 400,295.833 387,278.167 374,260.5C 372,257.167 372,253.833 374,250.5C 387.72,232.447 401.053,214.113 414,195.5C 420.532,178.766 416.699,164.933 402.5,154C 394.129,148.996 385.129,147.33 375.5,149C 355.193,151.581 334.859,153.581 314.5,155C 312.598,153.27 310.931,151.437 309.5,149.5C 301.569,129.633 293.069,109.966 284,90.5C 271.953,74.3961 256.786,70.5628 238.5,79C 234,82.1667 230.167,86 227,90.5C 224.333,96.5 221.667,102.5 219,108.5C 216.016,111.1 212.516,112.1 208.5,111.5C 206.327,109.508 204.994,107.008 204.5,104C 216.688,63.7387 242.355,51.072 281.5,66C 288.042,70.8748 293.542,76.7082 298,83.5C 306.167,101.833 314.333,120.167 322.5,138.5C 323.333,138.833 324.167,139.167 325,139.5C 348.06,136.048 371.227,134.215 394.5,134C 424.021,143.552 436.188,163.718 431,194.5C 430,197.167 429,199.833 428,202.5C 415.694,220.305 403.194,237.972 390.5,255.5C 400.086,269.92 410.253,283.92 421,297.5C 434.309,315.418 435.975,334.418 426,354.5C 413.377,373.055 395.877,380.555 373.5,377C 357.322,375.239 341.155,373.406 325,371.5C 324.167,371.833 323.333,372.167 322.5,372.5C 320.279,377.11 317.946,381.61 315.5,386C 312.986,387.252 310.32,387.752 307.5,387.5 Z"/></g>
<g><path style="opacity:0.907" fill="#000000" d="M 77.5,71.5 C 79.9267,71.523 82.26,72.023 84.5,73C 96,84.5 107.5,96 119,107.5C 121.833,118 118,121.833 107.5,119C 96,107.5 84.5,96 73,84.5C 70.5522,78.7403 72.0522,74.407 77.5,71.5 Z"/></g>
<g><path style="opacity:0.907" fill="#000000" d="M 429.5,71.5 C 437.867,72.2371 440.701,76.5705 438,84.5C 426.5,96 415,107.5 403.5,119C 393,121.833 389.167,118 392,107.5C 404.116,94.8794 416.616,82.8794 429.5,71.5 Z"/></g>
<g><path style="opacity:1" fill="#fecd70" d="M 309.5,149.5 C 270.401,157.758 243.235,180.424 228,217.5C 213.469,264.88 224.302,305.38 260.5,339C 274.805,350.818 291.139,358.318 309.5,361.5C 307.177,367.484 304.843,373.484 302.5,379.5C 303.366,382.692 305.032,385.359 307.5,387.5C 305.835,391.495 304.168,395.495 302.5,399.5C 298.484,398.9 294.984,399.9 292,402.5C 289.333,408.5 286.667,414.5 284,420.5C 270.685,438.061 254.518,441.228 235.5,430C 232.296,427.131 229.463,423.965 227,420.5C 218.392,401.617 210.058,382.617 202,363.5C 200.939,360.438 199.106,357.938 196.5,356C 175.776,357.116 155.109,359.116 134.5,362C 110.313,364.073 96.6461,353.073 93.5,329C 93.5031,324.99 94.3364,321.156 96,317.5C 108.931,297.971 122.598,278.971 137,260.5C 139,257.167 139,253.833 137,250.5C 123.28,232.447 109.947,214.113 97,195.5C 90.7007,180.391 93.534,167.225 105.5,156C 114.024,149.163 123.691,146.83 134.5,149C 155.109,151.884 175.776,153.884 196.5,155C 201.667,147.833 205.667,140 208.5,131.5C 207.634,128.308 205.968,125.641 203.5,123.5C 205.556,119.667 207.222,115.667 208.5,111.5C 212.516,112.1 216.016,111.1 219,108.5C 221.667,102.5 224.333,96.5 227,90.5C 230.167,86 234,82.1667 238.5,79C 256.786,70.5628 271.953,74.3961 284,90.5C 293.069,109.966 301.569,129.633 309.5,149.5 Z"/></g>
<g><path style="opacity:0.959" fill="#020100" d="M 203.5,123.5 C 205.968,125.641 207.634,128.308 208.5,131.5C 205.667,140 201.667,147.833 196.5,155C 175.776,153.884 155.109,151.884 134.5,149C 123.691,146.83 114.024,149.163 105.5,156C 93.534,167.225 90.7007,180.391 97,195.5C 109.947,214.113 123.28,232.447 137,250.5C 139,253.833 139,257.167 137,260.5C 122.598,278.971 108.931,297.971 96,317.5C 94.3364,321.156 93.5031,324.99 93.5,329C 96.6461,353.073 110.313,364.073 134.5,362C 155.109,359.116 175.776,357.116 196.5,356C 199.106,357.938 200.939,360.438 202,363.5C 210.058,382.617 218.392,401.617 227,420.5C 229.463,423.965 232.296,427.131 235.5,430C 254.518,441.228 270.685,438.061 284,420.5C 286.667,414.5 289.333,408.5 292,402.5C 294.984,399.9 298.484,398.9 302.5,399.5C 304.673,401.492 306.006,403.992 306.5,407C 294.274,447.281 268.607,459.947 229.5,445C 222.958,440.125 217.458,434.292 213,427.5C 204.93,409.125 196.764,390.792 188.5,372.5C 187.667,372.167 186.833,371.833 186,371.5C 166.55,373.995 147.05,375.995 127.5,377.5C 97.3265,375.66 80.9932,359.66 78.5,329.5C 78.4453,322.94 79.612,316.607 82,310.5C 94.3409,291.817 107.174,273.484 120.5,255.5C 110.914,241.08 100.747,227.08 90,213.5C 76.6913,195.582 75.0246,176.582 85,156.5C 97.6235,137.945 115.123,130.445 137.5,134C 154.543,136.172 171.543,137.672 188.5,138.5C 190.721,133.89 193.054,129.39 195.5,125C 198.014,123.748 200.68,123.248 203.5,123.5 Z"/></g>
<g><path style="opacity:1" fill="#fbe29f" d="M 309.5,361.5 C 291.139,358.318 274.805,350.818 260.5,339C 224.302,305.38 213.469,264.88 228,217.5C 243.235,180.424 270.401,157.758 309.5,149.5C 310.931,151.437 312.598,153.27 314.5,155C 334.859,153.581 355.193,151.581 375.5,149C 385.129,147.33 394.129,148.996 402.5,154C 416.699,164.933 420.532,178.766 414,195.5C 401.053,214.113 387.72,232.447 374,250.5C 372,253.833 372,257.167 374,260.5C 387,278.167 400,295.833 413,313.5C 415.745,318.481 417.245,323.814 417.5,329.5C 416.315,346.85 407.315,357.683 390.5,362C 366.09,360.974 341.757,358.807 317.5,355.5C 313.707,356.057 311.04,358.057 309.5,361.5 Z"/></g>
<g><path style="opacity:0.903" fill="#000000" d="M 22.5,152.5 C 24.8568,152.337 27.1902,152.503 29.5,153C 40.5817,157.472 51.5817,162.138 62.5,167C 67.2277,176.132 64.561,180.799 54.5,181C 43.0509,176.442 31.7175,171.609 20.5,166.5C 16.3544,161.096 17.0211,156.429 22.5,152.5 Z"/></g>
<g><path style="opacity:0.903" fill="#000000" d="M 481.5,152.5 C 492.598,152.186 495.598,156.853 490.5,166.5C 479.282,171.609 467.949,176.442 456.5,181C 446.439,180.799 443.772,176.132 448.5,167C 459.643,162.24 470.643,157.407 481.5,152.5 Z"/></g>
<g><path style="opacity:1" fill="#070503" d="M 183.5,257.5 C 178.1,261.967 173.433,261.3 169.5,255.5C 169.084,249.048 169.584,242.715 171,236.5C 173.841,234.496 177.007,233.996 180.5,235C 182,235.833 183.167,237 184,238.5C 184.751,244.884 184.584,251.217 183.5,257.5 Z"/></g>
<g><path style="opacity:1" fill="#090705" d="M 341.5,255.5 C 337.567,261.3 332.9,261.967 327.5,257.5C 326.416,251.217 326.249,244.884 327,238.5C 331.717,231.848 336.383,231.848 341,238.5C 341.499,244.157 341.666,249.824 341.5,255.5 Z"/></g>
<g><path style="opacity:1" fill="#040303" d="M 249.5,238.5 C 270.412,238.246 280.246,248.58 279,269.5C 272.773,288.198 260.606,293.698 242.5,286C 231.068,276.041 228.568,264.208 235,250.5C 238.541,244.78 243.374,240.78 249.5,238.5 Z"/></g>
<g><path style="opacity:0.931" fill="#000000" d="M -0.5,259.5 C -0.5,256.833 -0.5,254.167 -0.5,251.5C 0.639972,250.199 1.97331,249.032 3.5,248C 34.5,247.333 65.5,247.333 96.5,248C 101.224,250.435 102.724,254.269 101,259.5C 99.786,261.049 98.286,262.215 96.5,263C 65.8333,263.667 35.1667,263.667 4.5,263C 2.67694,262.003 1.01027,260.836 -0.5,259.5 Z"/></g>
<g><path style="opacity:0.931" fill="#000000" d="M 511.5,251.5 C 511.5,254.167 511.5,256.833 511.5,259.5C 509.99,260.836 508.323,262.003 506.5,263C 475.833,263.667 445.167,263.667 414.5,263C 409.52,260.149 408.187,255.982 410.5,250.5C 411.5,249.667 412.5,248.833 413.5,248C 444.833,247.333 476.167,247.333 507.5,248C 508.705,249.376 510.038,250.542 511.5,251.5 Z"/></g>
<g><path style="opacity:1" fill="#4a5395" d="M 252.5,253.5 C 261.723,253.574 265.556,258.241 264,267.5C 262.118,274.011 257.951,276.178 251.5,274C 244.525,266.721 244.859,259.888 252.5,253.5 Z"/></g>
<g><path style="opacity:1" fill="#fe8e9d" d="M 169.5,255.5 C 173.433,261.3 178.1,261.967 183.5,257.5C 202.16,264.8 206.66,277.134 197,294.5C 182.862,305.977 167.695,307.477 151.5,299C 135.32,282.784 137.32,269.117 157.5,258C 161.313,256.228 165.313,255.395 169.5,255.5 Z"/></g>
<g><path style="opacity:1" fill="#fe8e9d" d="M 341.5,255.5 C 357.292,256.306 366.959,264.306 370.5,279.5C 368.121,293.047 360.121,301.213 346.5,304C 335.376,306.351 325.376,304.018 316.5,297C 305.052,283.931 306.052,271.931 319.5,261C 322.071,259.546 324.738,258.38 327.5,257.5C 332.9,261.967 337.567,261.3 341.5,255.5 Z"/></g>
<g><path style="opacity:0.903" fill="#000000" d="M 54.5,329.5 C 64.5355,330.19 67.2022,335.023 62.5,344C 51.5817,348.862 40.5817,353.528 29.5,358C 22.7179,359.782 18.7179,357.282 17.5,350.5C 17.9702,348.226 18.9702,346.226 20.5,344.5C 31.9232,339.45 43.2566,334.45 54.5,329.5 Z"/></g>
<g><path style="opacity:0.904" fill="#000000" d="M 452.5,329.5 C 465.567,333.363 478.234,338.363 490.5,344.5C 494.738,349.718 494.071,354.218 488.5,358C 486.167,358.667 483.833,358.667 481.5,358C 470.418,353.528 459.418,348.862 448.5,344C 444.806,337.512 446.14,332.678 452.5,329.5 Z"/></g>
<g><path style="opacity:0.907" fill="#000000" d="M 109.5,390.5 C 119.033,390.241 122.199,394.574 119,403.5C 107.5,415 96,426.5 84.5,438C 74.3333,440.5 70.5,436.667 73,426.5C 85.0617,414.271 97.2284,402.271 109.5,390.5 Z"/></g>
<g><path style="opacity:0.907" fill="#000000" d="M 395.5,390.5 C 398.32,390.248 400.986,390.748 403.5,392C 415,403.5 426.5,415 438,426.5C 440.5,436.667 436.667,440.5 426.5,438C 415,426.5 403.5,415 392,403.5C 389.348,398.039 390.514,393.706 395.5,390.5 Z"/></g>
<g><path style="opacity:0.912" fill="#000000" d="M 184.5,413.5 C 192.662,413.498 195.828,417.498 194,425.5C 184.833,447.167 175.667,468.833 166.5,490.5C 161.282,494.738 156.782,494.071 153,488.5C 152.333,486.167 152.333,483.833 153,481.5C 161.862,460.581 170.529,439.581 179,418.5C 180.406,416.256 182.239,414.59 184.5,413.5 Z"/></g>
<g><path style="opacity:0.912" fill="#000000" d="M 322.5,413.5 C 326.585,413.459 329.752,415.125 332,418.5C 340.471,439.581 349.138,460.581 358,481.5C 359.869,489.623 356.702,493.456 348.5,493C 346.998,492.417 345.665,491.584 344.5,490.5C 335.333,468.833 326.167,447.167 317,425.5C 315.393,419.721 317.227,415.721 322.5,413.5 Z"/></g>
<g><path style="opacity:0.92" fill="#000000" d="M 259.5,511.5 C 256.833,511.5 254.167,511.5 251.5,511.5C 250.542,510.038 249.376,508.705 248,507.5C 247.333,495.167 247.333,482.833 248,470.5C 252.954,465.176 257.954,465.176 263,470.5C 263.667,482.5 263.667,494.5 263,506.5C 262.003,508.323 260.836,509.99 259.5,511.5 Z"/></g>
</svg>
