<?xml version="1.0" encoding="UTF-8"?>
<!DOCTYPE svg PUBLIC "-//W3C//DTD SVG 1.1//EN" "http://www.w3.org/Graphics/SVG/1.1/DTD/svg11.dtd">
<svg xmlns="http://www.w3.org/2000/svg" version="1.1" width="512px" height="512px" style="shape-rendering:geometricPrecision; text-rendering:geometricPrecision; image-rendering:optimizeQuality; fill-rule:evenodd; clip-rule:evenodd" xmlns:xlink="http://www.w3.org/1999/xlink">
<g><path style="opacity:0.996" fill="#696eaf" d="M 232.5,-0.5 C 247.833,-0.5 263.167,-0.5 278.5,-0.5C 299.401,1.61411 319.735,6.28077 339.5,13.5C 330.288,54.3773 304.955,78.044 263.5,84.5C 258.167,84.5 252.833,84.5 247.5,84.5C 206.058,78.0573 180.724,54.3906 171.5,13.5C 191.263,6.28112 211.597,1.61446 232.5,-0.5 Z"/></g>
<g><path style="opacity:0.999" fill="#ebeafc" d="M 171.5,13.5 C 180.724,54.3906 206.058,78.0573 247.5,84.5C 247.5,107.833 247.5,131.167 247.5,154.5C 241.657,156.755 235.99,159.588 230.5,163C 211.011,177.578 191.344,191.911 171.5,206C 168.601,208.729 165.934,211.562 163.5,214.5C 142.833,203.833 122.167,193.167 101.5,182.5C 112.107,153.528 109.107,126.195 92.5,100.5C 95.5719,91.6895 99.7386,83.3562 105,75.5C 116.646,57.8466 129.813,41.3466 144.5,26C 143.906,25.5357 143.239,25.369 142.5,25.5C 151.617,20.3449 161.284,16.3449 171.5,13.5 Z"/></g>
<g><path style="opacity:0.998" fill="#ebeafc" d="M 339.5,13.5 C 378.705,26.7313 412.371,48.3979 440.5,78.5C 405.778,105.708 395.445,140.375 409.5,182.5C 388.807,193.18 368.14,203.846 347.5,214.5C 345.066,211.562 342.399,208.729 339.5,206C 319.833,191.667 300.167,177.333 280.5,163C 275.01,159.588 269.343,156.755 263.5,154.5C 263.5,131.167 263.5,107.833 263.5,84.5C 304.955,78.044 330.288,54.3773 339.5,13.5 Z"/></g>
<g><path style="opacity:1" fill="#d1d1fc" d="M 142.5,25.5 C 143.239,25.369 143.906,25.5357 144.5,26C 129.813,41.3466 116.646,57.8466 105,75.5C 99.7386,83.3562 95.5719,91.6895 92.5,100.5C 92.1667,100.5 91.8333,100.5 91.5,100.5C 85.8979,91.8964 78.8979,84.5631 70.5,78.5C 91.1208,56.2082 115.121,38.5416 142.5,25.5 Z"/></g>
<g><path style="opacity:1" fill="#4c5696" d="M 70.5,78.5 C 78.8979,84.5631 85.8979,91.8964 91.5,100.5C 71.3077,139.603 60.9744,181.27 60.5,225.5C 60.5,225.833 60.5,226.167 60.5,226.5C 41.1417,234.59 21.1417,236.59 0.5,232.5C 5.56061,172.568 28.8939,121.235 70.5,78.5 Z"/></g>
<g><path style="opacity:0.996" fill="#696eaf" d="M 440.5,78.5 C 481.881,120.947 505.214,171.947 510.5,231.5C 471.122,240.132 439.788,228.132 416.5,195.5C 414.405,190.973 412.072,186.639 409.5,182.5C 395.445,140.375 405.778,105.708 440.5,78.5 Z"/></g>
<g><path style="opacity:1" fill="#7fe0fc" d="M 247.5,84.5 C 252.833,84.5 258.167,84.5 263.5,84.5C 263.5,107.833 263.5,131.167 263.5,154.5C 258.167,154.5 252.833,154.5 247.5,154.5C 247.5,131.167 247.5,107.833 247.5,84.5 Z"/></g>
<g><path style="opacity:1" fill="#696eaf" d="M 91.5,100.5 C 91.8333,100.5 92.1667,100.5 92.5,100.5C 109.107,126.195 112.107,153.528 101.5,182.5C 98.8486,187.131 96.1819,191.798 93.5,196.5C 85.2955,209.373 74.2955,219.039 60.5,225.5C 60.9744,181.27 71.3077,139.603 91.5,100.5 Z"/></g>
<g><path style="opacity:1" fill="#696eaf" d="M 247.5,154.5 C 252.833,154.5 258.167,154.5 263.5,154.5C 269.343,156.755 275.01,159.588 280.5,163C 300.167,177.333 319.833,191.667 339.5,206C 342.399,208.729 345.066,211.562 347.5,214.5C 350.334,219.168 352.334,224.168 353.5,229.5C 353.666,235.176 353.499,240.843 353,246.5C 344.06,273.153 335.227,299.82 326.5,326.5C 323.542,331.126 319.876,335.126 315.5,338.5C 310.277,341.776 304.61,343.943 298.5,345C 268.833,345.667 239.167,345.667 209.5,345C 204.687,343.093 200.02,340.926 195.5,338.5C 191.124,335.126 187.458,331.126 184.5,326.5C 175.773,299.82 166.94,273.153 158,246.5C 157.501,240.843 157.334,235.176 157.5,229.5C 158.666,224.168 160.666,219.168 163.5,214.5C 165.934,211.562 168.601,208.729 171.5,206C 191.344,191.911 211.011,177.578 230.5,163C 235.99,159.588 241.657,156.755 247.5,154.5 Z"/></g>
<g><path style="opacity:1" fill="#7edffc" d="M 101.5,182.5 C 122.167,193.167 142.833,203.833 163.5,214.5C 160.666,219.168 158.666,224.168 157.5,229.5C 136.411,217.956 115.078,206.956 93.5,196.5C 96.1819,191.798 98.8486,187.131 101.5,182.5 Z"/></g>
<g><path style="opacity:1" fill="#7edffc" d="M 409.5,182.5 C 412.072,186.639 414.405,190.973 416.5,195.5C 395.694,207.072 374.694,218.405 353.5,229.5C 352.334,224.168 350.334,219.168 347.5,214.5C 368.14,203.846 388.807,193.18 409.5,182.5 Z"/></g>
<g><path style="opacity:1" fill="#ebeafc" d="M 93.5,196.5 C 115.078,206.956 136.411,217.956 157.5,229.5C 157.334,235.176 157.501,240.843 158,246.5C 166.94,273.153 175.773,299.82 184.5,326.5C 168.167,343.167 151.833,359.833 135.5,376.5C 121.846,366.277 106.513,359.944 89.5,357.5C 89.1667,357.5 88.8333,357.5 88.5,357.5C 69.4068,315.949 60.0735,272.282 60.5,226.5C 60.5,226.167 60.5,225.833 60.5,225.5C 74.2955,219.039 85.2955,209.373 93.5,196.5 Z"/></g>
<g><path style="opacity:0.998" fill="#ebeafc" d="M 416.5,195.5 C 439.788,228.132 471.122,240.132 510.5,231.5C 510.5,232.167 510.833,232.5 511.5,232.5C 511.5,247.833 511.5,263.167 511.5,278.5C 508.035,312.358 498.368,344.358 482.5,374.5C 457.647,357.068 430.647,352.901 401.5,362C 392.198,365.826 383.532,370.66 375.5,376.5C 359.167,359.833 342.833,343.167 326.5,326.5C 335.227,299.82 344.06,273.153 353,246.5C 353.499,240.843 353.666,235.176 353.5,229.5C 374.694,218.405 395.694,207.072 416.5,195.5 Z"/></g>
<g><path style="opacity:1" fill="#d1d1fc" d="M 60.5,226.5 C 60.0735,272.282 69.4068,315.949 88.5,357.5C 66.2991,355.457 46.2991,361.123 28.5,374.5C 12.6319,344.358 2.96526,312.358 -0.5,278.5C -0.5,263.167 -0.5,247.833 -0.5,232.5C -0.166667,232.5 0.166667,232.5 0.5,232.5C 21.1417,236.59 41.1417,234.59 60.5,226.5 Z"/></g>
<g><path style="opacity:1" fill="#303647" d="M 196.5,237.5 C 200.909,236.618 204.409,237.952 207,241.5C 207.667,247.167 207.667,252.833 207,258.5C 202.333,265.167 197.667,265.167 193,258.5C 192.333,252.833 192.333,247.167 193,241.5C 193.69,239.65 194.856,238.316 196.5,237.5 Z"/></g>
<g><path style="opacity:1" fill="#303647" d="M 307.5,237.5 C 311.954,236.617 315.454,237.95 318,241.5C 318.667,247.167 318.667,252.833 318,258.5C 313.333,265.167 308.667,265.167 304,258.5C 303.333,252.833 303.333,247.167 304,241.5C 305.376,240.295 306.542,238.962 307.5,237.5 Z"/></g>
<g><path style="opacity:1" fill="#313747" d="M 237.5,247.5 C 242.084,246.793 245.75,248.293 248.5,252C 253.167,255.333 257.833,255.333 262.5,252C 267.181,246.26 272.014,246.093 277,251.5C 278.068,259.128 274.901,264.294 267.5,267C 255.147,272.007 244.313,269.84 235,260.5C 232.458,255.438 233.292,251.105 237.5,247.5 Z"/></g>
<g><path style="opacity:1" fill="#7fdffc" d="M 184.5,326.5 C 187.458,331.126 191.124,335.126 195.5,338.5C 178.833,354.5 162.5,370.833 146.5,387.5C 142.5,384.167 138.833,380.5 135.5,376.5C 151.833,359.833 168.167,343.167 184.5,326.5 Z"/></g>
<g><path style="opacity:1" fill="#7edffc" d="M 326.5,326.5 C 342.833,343.167 359.167,359.833 375.5,376.5C 372.167,380.5 368.5,384.167 364.5,387.5C 348.5,370.833 332.167,354.5 315.5,338.5C 319.876,335.126 323.542,331.126 326.5,326.5 Z"/></g>
<g><path style="opacity:0.999" fill="#ebeafc" d="M 195.5,338.5 C 200.02,340.926 204.687,343.093 209.5,345C 239.167,345.667 268.833,345.667 298.5,345C 304.61,343.943 310.277,341.776 315.5,338.5C 332.167,354.5 348.5,370.833 364.5,387.5C 343.109,416.321 339.609,447.321 354,480.5C 355.859,483.564 357.692,486.564 359.5,489.5C 348.092,495.252 336.092,499.752 323.5,503C 308.524,506.715 293.524,509.548 278.5,511.5C 274.833,511.5 271.167,511.5 267.5,511.5C 230.512,499.174 196.845,480.841 166.5,456.5C 165.571,455.311 165.238,453.978 165.5,452.5C 167.597,428.285 161.264,406.619 146.5,387.5C 162.5,370.833 178.833,354.5 195.5,338.5 Z"/></g>
<g><path style="opacity:1" fill="#4c5696" d="M 88.5,357.5 C 88.8333,357.5 89.1667,357.5 89.5,357.5C 107.3,395.313 132.3,427.646 164.5,454.5C 163.106,467.359 158.773,479.025 151.5,489.5C 97.304,465.305 56.304,426.971 28.5,374.5C 46.2991,361.123 66.2991,355.457 88.5,357.5 Z"/></g>
<g><path style="opacity:0.996" fill="#696eaf" d="M 482.5,374.5 C 454.696,426.971 413.696,465.305 359.5,489.5C 357.692,486.564 355.859,483.564 354,480.5C 339.609,447.321 343.109,416.321 364.5,387.5C 368.5,384.167 372.167,380.5 375.5,376.5C 383.532,370.66 392.198,365.826 401.5,362C 430.647,352.901 457.647,357.068 482.5,374.5 Z"/></g>
<g><path style="opacity:1" fill="#696eaf" d="M 89.5,357.5 C 106.513,359.944 121.846,366.277 135.5,376.5C 138.833,380.5 142.5,384.167 146.5,387.5C 161.264,406.619 167.597,428.285 165.5,452.5C 164.662,452.842 164.328,453.508 164.5,454.5C 132.3,427.646 107.3,395.313 89.5,357.5 Z"/></g>
<g><path style="opacity:1" fill="#d1d1fc" d="M 165.5,452.5 C 165.238,453.978 165.571,455.311 166.5,456.5C 196.845,480.841 230.512,499.174 267.5,511.5C 255.833,511.5 244.167,511.5 232.5,511.5C 209.681,509.048 187.347,503.881 165.5,496C 160.604,494.101 155.937,491.935 151.5,489.5C 158.773,479.025 163.106,467.359 164.5,454.5C 164.328,453.508 164.662,452.842 165.5,452.5 Z"/></g>
</svg>
