<?xml version="1.0" encoding="UTF-8"?>
<!DOCTYPE svg PUBLIC "-//W3C//DTD SVG 1.1//EN" "http://www.w3.org/Graphics/SVG/1.1/DTD/svg11.dtd">
<svg xmlns="http://www.w3.org/2000/svg" version="1.1" width="512px" height="512px" style="shape-rendering:geometricPrecision; text-rendering:geometricPrecision; image-rendering:optimizeQuality; fill-rule:evenodd; clip-rule:evenodd" xmlns:xlink="http://www.w3.org/1999/xlink">
<g><path style="opacity:0.969" fill="#010100" d="M 83.5,43.5 C 83.4559,47.0897 81.7892,49.5897 78.5,51C 64.5,51.3333 50.5,51.6667 36.5,52C 35.2986,52.9025 34.4652,54.0692 34,55.5C 33.3333,61.1667 33.3333,66.8333 34,72.5C 34.4652,73.9308 35.2986,75.0975 36.5,76C 92.1667,76.6667 147.833,76.6667 203.5,76C 204.667,75.5 205.5,74.6667 206,73.5C 206.795,66.7823 206.628,60.1157 205.5,53.5C 204.975,52.8076 204.308,52.3076 203.5,52C 169.833,51.6667 136.167,51.3333 102.5,51C 99.6764,49.1642 98.0097,46.6642 97.5,43.5C 97.7796,40.7133 99.113,38.5466 101.5,37C 137.167,36.3333 172.833,36.3333 208.5,37C 219.442,42.5457 224.109,51.5457 222.5,64C 224.057,75.7139 219.89,84.5472 210,90.5C 209.5,123.165 209.333,155.832 209.5,188.5C 253.167,188.5 296.833,188.5 340.5,188.5C 340.374,184.077 339.707,179.744 338.5,175.5C 315.289,174.824 294.956,166.99 277.5,152C 272.667,147.167 267.833,142.333 263,137.5C 253.231,121.223 254.731,106.056 267.5,92C 280.695,82.8443 294.362,82.1776 308.5,90C 313.467,93.966 318.134,98.2993 322.5,103C 325.167,104.333 327.833,105.667 330.5,107C 356.793,108.288 383.126,108.955 409.5,109C 430.38,116.925 437.88,131.758 432,153.5C 428.007,163.493 420.84,169.993 410.5,173C 405.5,173.833 400.5,174.667 395.5,175.5C 400.49,201.772 405.157,228.106 409.5,254.5C 456.286,260.121 488.453,284.788 506,328.5C 508.18,335.887 510.013,343.22 511.5,350.5C 511.5,360.5 511.5,370.5 511.5,380.5C 508.675,398.46 502.008,414.96 491.5,430C 488.421,432.534 485.088,433.034 481.5,431.5C 478.78,428.322 477.946,424.655 479,420.5C 503.551,380.876 502.218,342.21 475,304.5C 458.525,285.2 437.692,273.867 412.5,270.5C 413.783,280.196 415.283,289.863 417,299.5C 448.567,309.41 465.734,330.91 468.5,364C 467.762,389.148 457.095,408.815 436.5,423C 405.211,438.973 376.711,435.14 351,411.5C 331.169,386.784 328.169,360.118 342,331.5C 347.246,322.918 353.913,315.585 362,309.5C 361.168,299.834 360.001,290.167 358.5,280.5C 353.642,281.596 349.309,283.762 345.5,287C 308.675,316.151 297.175,353.318 311,398.5C 324.813,432.326 349.646,452.826 385.5,460C 414.112,463.432 439.778,456.432 462.5,439C 466.103,438.157 469.436,438.657 472.5,440.5C 474.743,446.07 473.409,450.57 468.5,454C 428.305,481.28 386.638,483.613 343.5,461C 300.921,432.302 283.755,392.469 292,341.5C 300.997,305.843 321.831,279.677 354.5,263C 352.904,256.925 351.904,250.758 351.5,244.5C 339.167,244.5 326.833,244.5 314.5,244.5C 296.636,289.584 278.47,334.584 260,379.5C 252.022,390.567 241.189,395.234 227.5,393.5C 219.855,422.65 203.188,445.15 177.5,461C 131.146,485.035 87.4795,481.035 46.5,449C 10.4924,413.463 0.65902,371.629 17,323.5C 39.4022,276.324 76.9022,252.99 129.5,253.5C 130.5,250.833 131.5,248.167 132.5,245.5C 95.5045,244.667 58.5045,244.167 21.5,244C 10.4999,241.493 3.16655,234.993 -0.5,224.5C -0.5,219.167 -0.5,213.833 -0.5,208.5C 5.23573,194.283 15.9024,187.617 31.5,188.5C 31.6666,155.832 31.5,123.165 31,90.5C 20.4273,84.6418 16.2606,75.6418 18.5,63.5C 16.4957,51.0034 21.1624,42.17 32.5,37C 48.5,36.3333 64.5,36.3333 80.5,37C 82.9193,38.5088 83.9193,40.6755 83.5,43.5 Z M 192.5,244.5 C 213.169,244.333 233.836,244.5 254.5,245C 243.871,270.428 233.371,295.928 223,321.5C 213.718,301.715 200.218,285.381 182.5,272.5C 185.645,263.062 188.978,253.729 192.5,244.5 Z M 107.5,315.5 C 102.975,329.909 98.1412,344.243 93,358.5C 90.3516,376.719 97.8516,388.219 115.5,393C 131.5,393.333 147.5,393.667 163.5,394C 144.481,417.92 121.148,423.254 93.5,410C 68.3586,391.563 62.1919,368.063 75,339.5C 82.4058,326.727 93.2391,318.727 107.5,315.5 Z M 420.5,318.5 C 420.56,317.957 420.893,317.624 421.5,317.5C 447.908,331.656 457.408,353.323 450,382.5C 436.337,411.747 413.837,422.247 382.5,414C 353.017,399.198 343.184,376.031 353,344.5C 355.834,338.001 359.834,332.335 365,327.5C 368.093,341.39 370.76,355.39 373,369.5C 377.362,386.186 388.195,394.019 405.5,393C 423.464,387.922 430.964,376.089 428,357.5C 425.793,344.306 423.293,331.306 420.5,318.5 Z M 160.5,334.5 C 164.31,335.754 164.31,336.754 160.5,337.5C 160.5,336.5 160.5,335.5 160.5,334.5 Z"/></g>
<g><path style="opacity:0.998" fill="#fc737e" d="M 83.5,43.5 C 88.1667,43.5 92.8333,43.5 97.5,43.5C 98.0097,46.6642 99.6764,49.1642 102.5,51C 136.167,51.3333 169.833,51.6667 203.5,52C 204.308,52.3076 204.975,52.8076 205.5,53.5C 206.628,60.1157 206.795,66.7823 206,73.5C 205.5,74.6667 204.667,75.5 203.5,76C 147.833,76.6667 92.1667,76.6667 36.5,76C 35.2986,75.0975 34.4652,73.9308 34,72.5C 33.3333,66.8333 33.3333,61.1667 34,55.5C 34.4652,54.0692 35.2986,52.9025 36.5,52C 50.5,51.6667 64.5,51.3333 78.5,51C 81.7892,49.5897 83.4559,47.0897 83.5,43.5 Z"/></g>
<g><path style="opacity:1" fill="#fdcb2e" d="M 193.5,114.5 C 144.5,114.5 95.5,114.5 46.5,114.5C 46.5,106.833 46.5,99.1667 46.5,91.5C 95.5,91.5 144.5,91.5 193.5,91.5C 193.5,99.1667 193.5,106.833 193.5,114.5 Z"/></g>
<g><path style="opacity:1" fill="#56555a" d="M 285.5,99.5 C 290.548,99.127 295.215,100.294 299.5,103C 304.023,106.767 308.357,110.767 312.5,115C 317.275,118.721 322.609,121.388 328.5,123C 354.167,123.333 379.833,123.667 405.5,124C 416.044,127.918 420.21,135.418 418,146.5C 416.066,152.767 411.9,156.601 405.5,158C 378.167,158.667 350.833,158.667 323.5,158C 302.328,152.825 285.495,141.325 273,123.5C 270.391,114.42 272.891,107.253 280.5,102C 282.315,101.243 283.981,100.41 285.5,99.5 Z"/></g>
<g><path style="opacity:1" fill="#fada5e" d="M 46.5,114.5 C 95.5,114.5 144.5,114.5 193.5,114.5C 193.5,139.5 193.5,164.5 193.5,189.5C 144.5,189.5 95.5,189.5 46.5,189.5C 46.5,164.5 46.5,139.5 46.5,114.5 Z"/></g>
<g><path style="opacity:1" fill="#080702" d="M 69.5,121.5 C 74.2797,120.641 77.7797,122.308 80,126.5C 80.6667,130.833 80.6667,135.167 80,139.5C 77.9276,144.143 74.4276,145.643 69.5,144C 67.6667,143.5 66.5,142.333 66,140.5C 65.3333,135.5 65.3333,130.5 66,125.5C 67.3756,124.295 68.5423,122.962 69.5,121.5 Z"/></g>
<g><path style="opacity:1" fill="#080702" d="M 164.5,121.5 C 169.152,120.984 172.652,122.651 175,126.5C 175.667,130.833 175.667,135.167 175,139.5C 172.928,144.143 169.428,145.643 164.5,144C 162.667,143.5 161.5,142.333 161,140.5C 160.333,135.5 160.333,130.5 161,125.5C 162.376,124.295 163.542,122.962 164.5,121.5 Z"/></g>
<g><path style="opacity:1" fill="#050401" d="M 105.5,129.5 C 109.961,129.151 113.628,130.651 116.5,134C 118.833,134.667 121.167,134.667 123.5,134C 125.5,132.667 127.5,131.333 129.5,130C 136.667,129.167 139.833,132.333 139,139.5C 130.347,150.114 119.847,152.28 107.5,146C 100.397,141.127 99.73,135.627 105.5,129.5 Z"/></g>
<g><path style="opacity:1" fill="#ec6062" d="M 383.5,194.5 C 382.596,193.791 382.263,192.791 382.5,191.5C 374.167,191.5 365.833,191.5 357.5,191.5C 356.315,185.538 355.315,179.538 354.5,173.5C 363.167,173.5 371.833,173.5 380.5,173.5C 381.034,180.574 382.034,187.574 383.5,194.5 Z"/></g>
<g><path style="opacity:1" fill="#f8727c" d="M 357.5,191.5 C 365.833,191.5 374.167,191.5 382.5,191.5C 382.263,192.791 382.596,193.791 383.5,194.5C 394.314,252.384 404.147,310.384 413,368.5C 409.757,376.538 403.923,379.371 395.5,377C 391.835,375.332 389.668,372.499 389,368.5C 380.942,323.086 372.609,277.752 364,232.5C 363.167,231.667 362.333,230.833 361.5,230C 342.833,229.333 324.167,229.333 305.5,230C 304.667,230.833 303.833,231.667 303,232.5C 284.333,278.5 265.667,324.5 247,370.5C 245.878,372.624 244.378,374.457 242.5,376C 200.226,377.65 157.893,377.983 115.5,377C 109.371,373.577 106.871,368.41 108,361.5C 125.667,311.167 143.333,260.833 161,210.5C 163.264,207.567 166.098,205.4 169.5,204C 231.167,203.667 292.833,203.333 354.5,203C 355.333,202.167 356.167,201.333 357,200.5C 357.498,197.518 357.665,194.518 357.5,191.5 Z M 192.5,244.5 C 188.978,253.729 185.645,263.062 182.5,272.5C 200.218,285.381 213.718,301.715 223,321.5C 233.371,295.928 243.871,270.428 254.5,245C 233.836,244.5 213.169,244.333 192.5,244.5 Z M 160.5,334.5 C 160.5,335.5 160.5,336.5 160.5,337.5C 164.31,336.754 164.31,335.754 160.5,334.5 Z"/></g>
<g><path style="opacity:1" fill="#535257" d="M 24.5,203.5 C 65.5054,203.167 106.505,203.5 147.5,204.5C 144.397,212.645 141.397,220.812 138.5,229C 119.5,229.167 100.5,229.333 81.5,229.5C 61.4378,229.649 41.4378,229.149 21.5,228C 13.8285,222.303 12.6619,215.47 18,207.5C 20.0948,205.875 22.2615,204.542 24.5,203.5 Z"/></g>
<g><path style="opacity:0.978" fill="#010001" d="M 182.5,229.5 C 211.502,229.333 240.502,229.5 269.5,230C 273.124,232.161 274.291,235.328 273,239.5C 258.667,274.833 244.333,310.167 230,345.5C 229.117,348.102 227.617,350.269 225.5,352C 198.833,352.667 172.167,352.667 145.5,352C 143.667,351.5 142.5,350.333 142,348.5C 141.333,345.833 141.333,343.167 142,340.5C 154.197,306.242 166.197,271.909 178,237.5C 178.854,234.408 180.354,231.741 182.5,229.5 Z M 192.5,244.5 C 188.978,253.729 185.645,263.062 182.5,272.5C 200.218,285.381 213.718,301.715 223,321.5C 233.371,295.928 243.871,270.428 254.5,245C 233.836,244.5 213.169,244.333 192.5,244.5 Z M 160.5,334.5 C 160.5,335.5 160.5,336.5 160.5,337.5C 164.31,336.754 164.31,335.754 160.5,334.5 Z"/></g>
<g><path style="opacity:1" fill="#56555a" d="M 108.5,269.5 C 113.875,269.172 119.208,269.505 124.5,270.5C 121.167,279.5 117.833,288.5 114.5,297.5C 84.8857,301.947 65.0523,318.28 55,346.5C 48.1557,376.97 56.989,401.803 81.5,421C 101.648,433.621 122.981,435.954 145.5,428C 162.242,421.425 174.242,409.925 181.5,393.5C 191.478,392.501 201.478,392.168 211.5,392.5C 202.947,420.559 185.28,440.726 158.5,453C 116.774,468.923 80.2744,461.09 49,429.5C 24.6825,399.884 18.6825,366.884 31,330.5C 46.1508,296.508 71.9841,276.175 108.5,269.5 Z"/></g>
<g><path style="opacity:1" fill="#56555a" d="M 481.5,431.5 C 478.167,434.167 475.167,437.167 472.5,440.5C 469.436,438.657 466.103,438.157 462.5,439C 439.778,456.432 414.112,463.432 385.5,460C 349.646,452.826 324.813,432.326 311,398.5C 297.175,353.318 308.675,316.151 345.5,287C 349.309,283.762 353.642,281.596 358.5,280.5C 360.001,290.167 361.168,299.834 362,309.5C 353.913,315.585 347.246,322.918 342,331.5C 328.169,360.118 331.169,386.784 351,411.5C 376.711,435.14 405.211,438.973 436.5,423C 457.095,408.815 467.762,389.148 468.5,364C 465.734,330.91 448.567,309.41 417,299.5C 415.283,289.863 413.783,280.196 412.5,270.5C 437.692,273.867 458.525,285.2 475,304.5C 502.218,342.21 503.551,380.876 479,420.5C 477.946,424.655 478.78,428.322 481.5,431.5 Z M 420.5,318.5 C 423.293,331.306 425.793,344.306 428,357.5C 430.964,376.089 423.464,387.922 405.5,393C 388.195,394.019 377.362,386.186 373,369.5C 370.76,355.39 368.093,341.39 365,327.5C 359.834,332.335 355.834,338.001 353,344.5C 343.184,376.031 353.017,399.198 382.5,414C 413.837,422.247 436.337,411.747 450,382.5C 457.408,353.323 447.908,331.656 421.5,317.5C 420.893,317.624 420.56,317.957 420.5,318.5 Z"/></g>
<g><path style="opacity:1" fill="#555459" d="M 176.5,288.5 C 193.948,300.628 205.615,316.962 211.5,337.5C 201.478,337.832 191.478,337.499 181.5,336.5C 177.891,328.949 173.057,322.282 167,316.5C 169.642,307.074 172.809,297.741 176.5,288.5 Z"/></g>
</svg>
