<?xml version="1.0" encoding="UTF-8"?>
<!DOCTYPE svg PUBLIC "-//W3C//DTD SVG 1.1//EN" "http://www.w3.org/Graphics/SVG/1.1/DTD/svg11.dtd">
<svg xmlns="http://www.w3.org/2000/svg" version="1.1" width="512px" height="512px" style="shape-rendering:geometricPrecision; text-rendering:geometricPrecision; image-rendering:optimizeQuality; fill-rule:evenodd; clip-rule:evenodd" xmlns:xlink="http://www.w3.org/1999/xlink">
<g><path style="opacity:0.984" fill="#010101" d="M 153.5,-0.5 C 236.167,-0.5 318.833,-0.5 401.5,-0.5C 432.159,6.99484 450.326,26.3282 456,57.5C 456.667,71.1667 456.667,84.8333 456,98.5C 454.67,102.007 452.17,103.673 448.5,103.5C 445.012,102.857 442.512,100.857 441,97.5C 440.667,83.1667 440.333,68.8333 440,54.5C 433.632,31.7985 418.798,18.6319 395.5,15C 348.501,14.5 301.501,14.3333 254.5,14.5C 228.5,14.5 202.5,14.5 176.5,14.5C 176.667,78.5009 176.5,142.501 176,206.5C 175.344,208.986 173.844,210.653 171.5,211.5C 166.819,212.544 163.652,210.877 162,206.5C 161.5,142.501 161.333,78.5009 161.5,14.5C 114.591,20.8757 84.7582,46.8757 72,92.5C 71.0881,96.7946 70.4215,101.128 70,105.5C 69.3333,183.833 69.3333,262.167 70,340.5C 91.0049,306.41 121.505,287.743 161.5,284.5C 161.333,266.83 161.5,249.164 162,231.5C 163.894,228.156 166.727,226.822 170.5,227.5C 172.716,228.203 174.549,229.536 176,231.5C 176.5,248.83 176.667,266.163 176.5,283.5C 209.167,283.5 241.833,283.5 274.5,283.5C 324.501,283.333 374.501,283.5 424.5,284C 429.935,285.306 434.935,287.473 439.5,290.5C 439.56,291.043 439.893,291.376 440.5,291.5C 441.5,235.504 441.833,179.504 441.5,123.5C 442.859,120.326 445.193,118.326 448.5,117.5C 451.792,118.057 454.292,119.724 456,122.5C 456.984,192.536 456.65,262.536 455,332.5C 450.833,346 442,354.833 428.5,359C 410.658,357.842 396.491,364.342 386,378.5C 376.977,397.052 380.144,413.218 395.5,427C 399.221,429.527 403.221,431.527 407.5,433C 420.231,432.939 431.898,436.272 442.5,443C 458.442,459.126 460.609,476.96 449,496.5C 442.955,503.922 435.455,508.922 426.5,511.5C 335.5,511.5 244.5,511.5 153.5,511.5C 96.6033,499.767 63.77,465.1 55,407.5C 54.3333,306.167 54.3333,204.833 55,103.5C 60.7445,57.8126 84.5778,25.6459 126.5,7C 135.413,3.69181 144.413,1.19181 153.5,-0.5 Z"/></g>
<g><path style="opacity:1" fill="#e85b70" d="M 254.5,14.5 C 239.422,51.2935 231.755,89.6268 231.5,129.5C 223.777,134.939 220.444,142.272 221.5,151.5C 209.142,151.758 200.309,157.424 195,168.5C 193.044,184.548 199.877,194.715 215.5,199C 222.55,199.76 229.55,199.593 236.5,198.5C 244.533,228.9 257.2,257.233 274.5,283.5C 241.833,283.5 209.167,283.5 176.5,283.5C 176.667,266.163 176.5,248.83 176,231.5C 174.549,229.536 172.716,228.203 170.5,227.5C 168.64,222.807 167.974,217.807 168.5,212.5C 169.791,212.737 170.791,212.404 171.5,211.5C 173.844,210.653 175.344,208.986 176,206.5C 176.5,142.501 176.667,78.5009 176.5,14.5C 202.5,14.5 228.5,14.5 254.5,14.5 Z"/></g>
<g><path style="opacity:1" fill="#fe8c9c" d="M 254.5,14.5 C 301.501,14.3333 348.501,14.5 395.5,15C 418.798,18.6319 433.632,31.7985 440,54.5C 440.333,68.8333 440.667,83.1667 441,97.5C 442.512,100.857 445.012,102.857 448.5,103.5C 448.5,108.167 448.5,112.833 448.5,117.5C 445.193,118.326 442.859,120.326 441.5,123.5C 440.833,179.167 440.167,234.833 439.5,290.5C 434.935,287.473 429.935,285.306 424.5,284C 374.501,283.5 324.501,283.333 274.5,283.5C 257.2,257.233 244.533,228.9 236.5,198.5C 252.015,193.136 257.849,182.47 254,166.5C 249.574,158.903 243.074,154.236 234.5,152.5C 235.143,149.802 235.976,147.135 237,144.5C 240.925,140.59 244.925,140.59 249,144.5C 250,147.5 251,150.5 252,153.5C 259.139,158.021 263.639,156.021 265.5,147.5C 260.823,128.834 249.49,122.834 231.5,129.5C 231.755,89.6268 239.422,51.2935 254.5,14.5 Z"/></g>
<g><path style="opacity:1" fill="#d04358" d="M 171.5,211.5 C 170.791,212.404 169.791,212.737 168.5,212.5C 167.974,217.807 168.64,222.807 170.5,227.5C 166.727,226.822 163.894,228.156 162,231.5C 161.5,249.164 161.333,266.83 161.5,284.5C 121.505,287.743 91.0049,306.41 70,340.5C 69.3333,262.167 69.3333,183.833 70,105.5C 70.4215,101.128 71.0881,96.7946 72,92.5C 84.7582,46.8757 114.591,20.8757 161.5,14.5C 161.333,78.5009 161.5,142.501 162,206.5C 163.652,210.877 166.819,212.544 171.5,211.5 Z"/></g>
<g><path style="opacity:1" fill="#774149" d="M 441.5,123.5 C 441.833,179.504 441.5,235.504 440.5,291.5C 439.893,291.376 439.56,291.043 439.5,290.5C 440.167,234.833 440.833,179.167 441.5,123.5 Z"/></g>
<g><path style="opacity:1" fill="#080404" d="M 234.5,152.5 C 229.756,158.087 225.423,157.754 221.5,151.5C 220.444,142.272 223.777,134.939 231.5,129.5C 249.49,122.834 260.823,128.834 265.5,147.5C 263.639,156.021 259.139,158.021 252,153.5C 251,150.5 250,147.5 249,144.5C 244.925,140.59 240.925,140.59 237,144.5C 235.976,147.135 235.143,149.802 234.5,152.5 Z"/></g>
<g><path style="opacity:1" fill="#080505" d="M 396.5,151.5 C 392.243,157.618 387.576,157.952 382.5,152.5C 382.779,144.608 379.112,141.108 371.5,142C 368.338,144.759 366.504,148.259 366,152.5C 361.162,158.036 356.829,157.703 353,151.5C 352.25,136.67 359.25,128.336 374,126.5C 389.323,127.823 396.823,136.156 396.5,151.5 Z"/></g>
<g><path style="opacity:1" fill="#edebfd" d="M 221.5,151.5 C 225.423,157.754 229.756,158.087 234.5,152.5C 243.074,154.236 249.574,158.903 254,166.5C 257.849,182.47 252.015,193.136 236.5,198.5C 229.55,199.593 222.55,199.76 215.5,199C 199.877,194.715 193.044,184.548 195,168.5C 200.309,157.424 209.142,151.758 221.5,151.5 Z"/></g>
<g><path style="opacity:1" fill="#eeebfd" d="M 396.5,151.5 C 414.357,153.181 423.19,162.848 423,180.5C 419.139,191.022 411.639,197.189 400.5,199C 386.894,202.13 375.394,198.63 366,188.5C 357.594,170.305 363.094,158.305 382.5,152.5C 387.576,157.952 392.243,157.618 396.5,151.5 Z"/></g>
<g><path style="opacity:1" fill="#060303" d="M 290.5,158.5 C 295.361,158.43 299.361,160.263 302.5,164C 306.471,165.913 310.471,165.913 314.5,164C 316.833,162.333 319.167,160.667 321.5,159C 329.161,158.33 332.327,161.83 331,169.5C 320.138,181.072 307.638,183.239 293.5,176C 287.978,173.51 285.478,169.343 286,163.5C 287.025,161.313 288.525,159.646 290.5,158.5 Z"/></g>
<g><path style="opacity:1" fill="#fc8b9b" d="M 286.5,298.5 C 300.727,315.892 317.06,331.059 335.5,344C 364.165,344.5 392.831,344.667 421.5,344.5C 333.668,345.333 245.668,345.833 157.5,346C 125.419,356.992 112.586,379.158 119,412.5C 125.342,431.509 138.176,443.676 157.5,449C 177.831,449.5 198.164,449.667 218.5,449.5C 218.334,455.842 218.5,462.175 219,468.5C 223.738,481.886 232.905,486.386 246.5,482C 251.001,479.584 255.334,476.917 259.5,474C 264.314,471.107 269.314,470.774 274.5,473C 280.52,476.366 286.52,479.7 292.5,483C 305.691,485.329 314.191,480.162 318,467.5C 318.499,461.843 318.666,456.176 318.5,450.5C 354.882,450.026 391.215,450.526 427.5,452C 441.152,460.455 444.319,471.955 437,486.5C 433.429,491.031 428.929,494.198 423.5,496C 334.5,496.667 245.5,496.667 156.5,496C 112.083,487.918 83.9168,462.085 72,418.5C 65.0089,371.997 81.1756,336.163 120.5,311C 131.739,304.714 143.739,300.714 156.5,299C 199.832,298.5 243.165,298.333 286.5,298.5 Z"/></g>
<g><path style="opacity:1" fill="#feb3be" d="M 286.5,298.5 C 332.168,298.333 377.835,298.5 423.5,299C 441.202,306.917 445.368,319.417 436,336.5C 432.23,341.106 427.396,343.773 421.5,344.5C 392.831,344.667 364.165,344.5 335.5,344C 317.06,331.059 300.727,315.892 286.5,298.5 Z"/></g>
<g><path style="opacity:1" fill="#646476" d="M 164.5,360.5 C 236.334,359.168 308.334,359.168 380.5,360.5C 380.376,361.107 380.043,361.44 379.5,361.5C 308.002,360.501 236.335,360.167 164.5,360.5 Z"/></g>
<g><path style="opacity:1" fill="#d7d7fd" d="M 164.5,360.5 C 236.335,360.167 308.002,360.501 379.5,361.5C 369.089,372.729 364.422,386.062 365.5,401.5C 364.566,400.432 364.232,399.099 364.5,397.5C 346.659,397.17 328.992,397.503 311.5,398.5C 307.582,394.706 302.916,392.206 297.5,391C 277.5,390.333 257.5,390.333 237.5,391C 233,392.747 229,395.247 225.5,398.5C 194.338,397.502 163.004,397.168 131.5,397.5C 132.989,376.678 143.989,364.345 164.5,360.5 Z"/></g>
<g><path style="opacity:1" fill="#edecfe" d="M 131.5,397.5 C 163.004,397.168 194.338,397.502 225.5,398.5C 221.821,402.859 219.487,407.859 218.5,413.5C 217.509,420.313 217.175,427.313 217.5,434.5C 199.833,434.5 182.167,434.5 164.5,434.5C 144.023,430.687 133.023,418.353 131.5,397.5 Z"/></g>
<g><path style="opacity:1" fill="#edecfe" d="M 365.5,401.5 C 366.503,413.867 371.17,424.534 379.5,433.5C 359.34,434.497 339.007,434.83 318.5,434.5C 318.666,426.493 318.5,418.493 318,410.5C 316.598,406.025 314.431,402.025 311.5,398.5C 328.992,397.503 346.659,397.17 364.5,397.5C 364.232,399.099 364.566,400.432 365.5,401.5 Z"/></g>
<g><path style="opacity:1" fill="#ce4357" d="M 293.5,405.5 C 279.817,405.167 266.15,405.501 252.5,406.5C 258.978,433.978 275.978,450.645 303.5,456.5C 303.957,460.584 303.29,464.417 301.5,468C 298.697,468.755 296.03,468.422 293.5,467C 275.914,452.69 258.581,453.024 241.5,468C 238.653,468.944 236.153,468.444 234,466.5C 233.026,447.743 233.36,429.076 235,410.5C 236.938,407.894 239.438,406.061 242.5,405C 259.672,404.172 276.672,404.338 293.5,405.5 Z"/></g>
<g><path style="opacity:1" fill="#e85a6f" d="M 293.5,405.5 C 298.305,406.132 301.472,408.799 303,413.5C 303.5,427.829 303.667,442.163 303.5,456.5C 275.978,450.645 258.978,433.978 252.5,406.5C 266.15,405.501 279.817,405.167 293.5,405.5 Z"/></g>
<g><path style="opacity:1" fill="#878690" d="M 218.5,413.5 C 218.5,420.833 218.5,428.167 218.5,435.5C 200.326,435.83 182.326,435.497 164.5,434.5C 182.167,434.5 199.833,434.5 217.5,434.5C 217.175,427.313 217.509,420.313 218.5,413.5 Z"/></g>
<g><path style="opacity:1" fill="#7f7e88" d="M 379.5,433.5 C 380.043,433.56 380.376,433.893 380.5,434.5C 359.671,435.828 339.004,435.828 318.5,434.5C 339.007,434.83 359.34,434.497 379.5,433.5 Z"/></g>
</svg>
