<?xml version="1.0" encoding="UTF-8"?>
<!DOCTYPE svg PUBLIC "-//W3C//DTD SVG 1.1//EN" "http://www.w3.org/Graphics/SVG/1.1/DTD/svg11.dtd">
<svg xmlns="http://www.w3.org/2000/svg" version="1.1" width="512px" height="512px" style="shape-rendering:geometricPrecision; text-rendering:geometricPrecision; image-rendering:optimizeQuality; fill-rule:evenodd; clip-rule:evenodd" xmlns:xlink="http://www.w3.org/1999/xlink">
<g><path style="opacity:0.992" fill="#000000" d="M 253.5,-0.5 C 327.167,-0.5 400.833,-0.5 474.5,-0.5C 493.491,5.15795 505.825,17.4913 511.5,36.5C 511.5,182.5 511.5,328.5 511.5,474.5C 505.726,493.941 493.059,506.274 473.5,511.5C 357.5,511.5 241.5,511.5 125.5,511.5C 111.253,505.328 106.42,494.661 111,479.5C 112.561,476.217 114.727,473.383 117.5,471C 127.598,466.54 136.764,460.707 145,453.5C 152.482,444.868 156.982,434.868 158.5,423.5C 116.794,423.972 75.1272,423.472 33.5,422C 15.913,416.58 4.57966,405.08 -0.5,387.5C -0.5,300.167 -0.5,212.833 -0.5,125.5C 5.2944,104.544 18.9611,92.0442 40.5,88C 99.1657,87.5 157.832,87.3333 216.5,87.5C 216.333,70.4967 216.5,53.4967 217,36.5C 222.349,17.3182 234.516,4.98489 253.5,-0.5 Z"/></g>
<g><path style="opacity:1" fill="#626877" d="M 340.5,14.5 C 332.415,20.9879 327.081,29.3212 324.5,39.5C 308.83,39.3334 293.163,39.5001 277.5,40C 267.333,43.5 260.5,50.3333 257,60.5C 256.5,69.8274 256.334,79.1607 256.5,88.5C 248.167,88.5 239.833,88.5 231.5,88.5C 231.333,72.4965 231.5,56.4965 232,40.5C 235.833,27.3333 244.333,18.8333 257.5,15C 285.165,14.5 312.831,14.3334 340.5,14.5 Z"/></g>
<g><path style="opacity:1" fill="#6f7688" d="M 340.5,14.5 C 383.835,14.3333 427.168,14.5 470.5,15C 483.675,18.8421 492.175,27.3421 496,40.5C 496.667,183.833 496.667,327.167 496,470.5C 492.167,483.667 483.667,492.167 470.5,496C 427.168,496.5 383.835,496.667 340.5,496.5C 332.59,490.364 327.423,482.364 325,472.5C 324.5,456.17 324.333,439.837 324.5,423.5C 341.342,423.83 358.008,423.497 374.5,422.5C 394.366,419.134 407.199,407.801 413,388.5C 414.469,343.867 414.969,299.2 414.5,254.5C 426.171,254.667 437.838,254.5 449.5,254C 460.667,250.833 467.833,243.667 471,232.5C 471.667,215.167 471.667,197.833 471,180.5C 467.404,169.904 460.238,163.071 449.5,160C 437.838,159.5 426.171,159.333 414.5,159.5C 414.5,151.167 414.5,142.833 414.5,134.5C 426.171,134.667 437.838,134.5 449.5,134C 460.667,130.833 467.833,123.667 471,112.5C 471.667,95.1667 471.667,77.8333 471,60.5C 467.404,49.904 460.238,43.0707 449.5,40C 440.167,39.3333 430.833,39.3333 421.5,40C 418.211,41.4103 416.544,43.9103 416.5,47.5C 411.5,47.5 406.5,47.5 401.5,47.5C 401.456,43.9103 399.789,41.4103 396.5,40C 372.502,39.5 348.502,39.3334 324.5,39.5C 327.081,29.3212 332.415,20.9879 340.5,14.5 Z"/></g>
<g><path style="opacity:1" fill="#626877" d="M 401.5,47.5 C 406.5,47.5 411.5,47.5 416.5,47.5C 416.84,50.6748 418.507,52.8415 421.5,54C 429.833,54.3333 438.167,54.6667 446.5,55C 451.235,56.0681 454.402,58.9014 456,63.5C 456.667,79.1667 456.667,94.8333 456,110.5C 454.5,114.667 451.667,117.5 447.5,119C 435.486,119.833 423.486,119.666 411.5,118.5C 403.954,100.732 390.621,90.7323 371.5,88.5C 355.675,87.5036 339.675,87.1703 323.5,87.5C 323.5,76.5 323.5,65.5 323.5,54.5C 347.836,54.6666 372.169,54.5 396.5,54C 399.493,52.8415 401.16,50.6748 401.5,47.5 Z"/></g>
<g><path style="opacity:1" fill="#525763" d="M 323.5,54.5 C 323.5,65.5 323.5,76.5 323.5,87.5C 339.675,87.1703 355.675,87.5036 371.5,88.5C 338.167,88.5 304.833,88.5 271.5,88.5C 271.334,80.16 271.5,71.8267 272,63.5C 273.5,59.3333 276.333,56.5 280.5,55C 294.829,54.5001 309.163,54.3334 323.5,54.5 Z"/></g>
<g><path style="opacity:1" fill="#7dd6f9" d="M 371.5,103.5 C 281.833,103.333 192.166,103.5 102.5,104C 94.1302,110.899 88.9635,119.732 87,130.5C 86.5,166.165 86.3333,201.832 86.5,237.5C 87.791,237.263 88.791,237.596 89.5,238.5C 75.735,238.036 62.0683,238.536 48.5,240C 44.6099,242.596 41.7766,246.096 40,250.5C 39.3333,263.5 39.3333,276.5 40,289.5C 41.505,294.355 44.3383,298.188 48.5,301C 62.0683,302.464 75.735,302.964 89.5,302.5C 88.791,303.404 87.791,303.737 86.5,303.5C 86.5,311.5 86.5,319.5 86.5,327.5C 107.34,327.169 128.007,327.503 148.5,328.5C 103.833,328.5 59.1667,328.5 14.5,328.5C 14.3333,261.833 14.5,195.166 15,128.5C 19.0201,114.481 28.1868,105.981 42.5,103C 152.334,102.167 262.001,102.334 371.5,103.5 Z"/></g>
<g><path style="opacity:1" fill="#95e6fd" d="M 371.5,103.5 C 385.892,106.058 395.059,114.391 399,128.5C 399.5,195.166 399.667,261.833 399.5,328.5C 324.166,328.333 248.833,328.5 173.5,329C 171.113,330.547 169.78,332.713 169.5,335.5C 164.5,335.5 159.5,335.5 154.5,335.5C 154.129,331.75 152.129,329.417 148.5,328.5C 128.007,327.503 107.34,327.169 86.5,327.5C 86.5,319.5 86.5,311.5 86.5,303.5C 87.791,303.737 88.791,303.404 89.5,302.5C 95.9189,301.712 100.419,298.378 103,292.5C 104.115,285.074 104.615,277.574 104.5,270C 104.333,263.5 104.167,257 104,250.5C 101.723,243.388 96.89,239.388 89.5,238.5C 88.791,237.596 87.791,237.263 86.5,237.5C 86.3333,201.832 86.5,166.165 87,130.5C 88.9635,119.732 94.1302,110.899 102.5,104C 192.166,103.5 281.833,103.333 371.5,103.5 Z"/></g>
<g><path style="opacity:1" fill="#050707" d="M 137.5,164.5 C 133.573,166.126 129.906,165.793 126.5,163.5C 124.47,157.374 123.97,151.041 125,144.5C 127.913,139.311 132.08,138.144 137.5,141C 138.126,141.75 138.626,142.584 139,143.5C 140.046,150.703 139.546,157.703 137.5,164.5 Z"/></g>
<g><path style="opacity:1" fill="#050707" d="M 287.5,163.5 C 284.094,165.793 280.427,166.126 276.5,164.5C 274.454,157.703 273.954,150.703 275,143.5C 277.513,139.788 281.013,138.622 285.5,140C 287.049,141.214 288.215,142.714 289,144.5C 290.03,151.041 289.53,157.374 287.5,163.5 Z"/></g>
<g><path style="opacity:1" fill="#030505" d="M 192.5,145.5 C 201.839,145.334 211.173,145.5 220.5,146C 231.923,148.823 237.923,156.157 238.5,168C 236.443,191.398 223.776,202.732 200.5,202C 181.079,194.331 173.246,180.164 177,159.5C 180.049,152.407 185.215,147.74 192.5,145.5 Z"/></g>
<g><path style="opacity:1" fill="#47535e" d="M 194.5,160.5 C 203.25,160.09 211.916,160.59 220.5,162C 222.881,163.509 223.881,165.675 223.5,168.5C 223.01,179.649 217.343,185.983 206.5,187.5C 196.142,185.351 190.809,178.851 190.5,168C 190.603,166.439 190.937,164.939 191.5,163.5C 192.77,162.712 193.77,161.712 194.5,160.5 Z"/></g>
<g><path style="opacity:1" fill="#fea1ac" d="M 126.5,163.5 C 129.906,165.793 133.573,166.126 137.5,164.5C 153.858,169.666 159.358,180.333 154,196.5C 149.168,203.838 142.334,208.004 133.5,209C 120.963,211.488 110.463,207.988 102,198.5C 94.6842,181.091 100.184,169.591 118.5,164C 121.146,163.503 123.813,163.336 126.5,163.5 Z"/></g>
<g><path style="opacity:1" fill="#fea1ac" d="M 287.5,163.5 C 300.294,163.472 309.46,169.139 315,180.5C 316.784,196.067 309.951,205.567 294.5,209C 279.171,212.24 267.337,207.406 259,194.5C 255.684,179.288 261.518,169.288 276.5,164.5C 280.427,166.126 284.094,165.793 287.5,163.5 Z"/></g>
<g><path style="opacity:1" fill="#545965" d="M 414.5,174.5 C 425.172,174.333 435.839,174.5 446.5,175C 451.235,176.068 454.402,178.901 456,183.5C 456.499,188.823 456.666,194.156 456.5,199.5C 442.5,199.5 428.5,199.5 414.5,199.5C 414.5,191.167 414.5,182.833 414.5,174.5 Z"/></g>
<g><path style="opacity:1" fill="#545965" d="M 414.5,214.5 C 428.5,214.5 442.5,214.5 456.5,214.5C 456.666,219.844 456.499,225.177 456,230.5C 454.402,235.099 451.235,237.932 446.5,239C 435.839,239.5 425.172,239.667 414.5,239.5C 414.5,231.167 414.5,222.833 414.5,214.5 Z"/></g>
<g><path style="opacity:1" fill="#010303" d="M 89.5,238.5 C 96.89,239.388 101.723,243.388 104,250.5C 104.167,257 104.333,263.5 104.5,270C 104.615,277.574 104.115,285.074 103,292.5C 100.419,298.378 95.9189,301.712 89.5,302.5C 75.735,302.964 62.0683,302.464 48.5,301C 44.3383,298.188 41.505,294.355 40,289.5C 39.3333,276.5 39.3333,263.5 40,250.5C 41.7766,246.096 44.6099,242.596 48.5,240C 62.0683,238.536 75.735,238.036 89.5,238.5 Z"/></g>
<g><path style="opacity:1" fill="#010101" d="M 140.5,238.5 C 154.504,238.333 168.504,238.5 182.5,239C 188.333,240.833 192.167,244.667 194,250.5C 194.667,263.5 194.667,276.5 194,289.5C 192.564,295.87 188.731,300.037 182.5,302C 168.5,302.667 154.5,302.667 140.5,302C 135.011,299.532 131.511,295.365 130,289.5C 129.333,276.5 129.333,263.5 130,250.5C 131.963,245.044 135.463,241.044 140.5,238.5 Z"/></g>
<g><path style="opacity:1" fill="#030304" d="M 230.5,238.5 C 244.504,238.333 258.504,238.5 272.5,239C 278.333,240.833 282.167,244.667 284,250.5C 284.667,263.5 284.667,276.5 284,289.5C 282.564,295.87 278.731,300.037 272.5,302C 258.5,302.667 244.5,302.667 230.5,302C 225.011,299.532 221.511,295.365 220,289.5C 219.333,276.5 219.333,263.5 220,250.5C 221.963,245.044 225.463,241.044 230.5,238.5 Z"/></g>
<g><path style="opacity:1" fill="#030203" d="M 320.5,238.5 C 334.504,238.333 348.504,238.5 362.5,239C 368.333,240.833 372.167,244.667 374,250.5C 374.667,263.5 374.667,276.5 374,289.5C 372.564,295.87 368.731,300.037 362.5,302C 348.5,302.667 334.5,302.667 320.5,302C 315.011,299.532 311.511,295.365 310,289.5C 309.333,276.5 309.333,263.5 310,250.5C 311.963,245.044 315.463,241.044 320.5,238.5 Z"/></g>
<g><path style="opacity:1" fill="#01be9e" d="M 54.5,253.5 C 66.1667,253.5 77.8333,253.5 89.5,253.5C 89.6665,264.505 89.4998,275.505 89,286.5C 88.5,287 88,287.5 87.5,288C 77.1667,288.667 66.8333,288.667 56.5,288C 56,287.5 55.5,287 55,286.5C 54.5002,275.505 54.3335,264.505 54.5,253.5 Z"/></g>
<g><path style="opacity:1" fill="#f4d142" d="M 178.5,253.5 C 174.833,253.5 171.167,253.5 167.5,253.5C 167.5,264.833 167.5,276.167 167.5,287.5C 170.833,287.5 174.167,287.5 177.5,287.5C 166.993,288.823 156.326,288.823 145.5,287.5C 144.175,275.97 144.175,264.47 145.5,253C 156.674,252.174 167.674,252.341 178.5,253.5 Z"/></g>
<g><path style="opacity:1" fill="#feef49" d="M 178.5,253.5 C 179.659,264.326 179.826,275.326 179,286.5C 178.617,287.056 178.117,287.389 177.5,287.5C 174.167,287.5 170.833,287.5 167.5,287.5C 167.5,276.167 167.5,264.833 167.5,253.5C 171.167,253.5 174.833,253.5 178.5,253.5 Z"/></g>
<g><path style="opacity:1" fill="#c68ef4" d="M 256.5,253.5 C 256.5,264.833 256.5,276.167 256.5,287.5C 249.833,287.5 243.167,287.5 236.5,287.5C 235.883,287.389 235.383,287.056 235,286.5C 234.5,275.505 234.333,264.505 234.5,253.5C 241.833,253.5 249.167,253.5 256.5,253.5 Z"/></g>
<g><path style="opacity:1" fill="#ca99ed" d="M 256.5,253.5 C 260.833,253.5 265.167,253.5 269.5,253.5C 269.667,264.505 269.5,275.505 269,286.5C 268.5,287 268,287.5 267.5,288C 256.992,288.825 246.658,288.659 236.5,287.5C 243.167,287.5 249.833,287.5 256.5,287.5C 256.5,276.167 256.5,264.833 256.5,253.5 Z"/></g>
<g><path style="opacity:1" fill="#fe7c80" d="M 346.5,253.5 C 346.5,264.833 346.5,276.167 346.5,287.5C 339.833,287.5 333.167,287.5 326.5,287.5C 325.883,287.389 325.383,287.056 325,286.5C 324.5,275.505 324.333,264.505 324.5,253.5C 331.833,253.5 339.167,253.5 346.5,253.5 Z"/></g>
<g><path style="opacity:1" fill="#f78f90" d="M 346.5,253.5 C 350.767,253.203 354.934,253.536 359,254.5C 359.667,265.167 359.667,275.833 359,286.5C 358.5,287 358,287.5 357.5,288C 346.992,288.825 336.658,288.659 326.5,287.5C 333.167,287.5 339.833,287.5 346.5,287.5C 346.5,276.167 346.5,264.833 346.5,253.5 Z"/></g>
<g><path style="opacity:1" fill="#f3f8fa" d="M 154.5,335.5 C 159.5,335.5 164.5,335.5 169.5,335.5C 169.948,338.233 171.281,340.399 173.5,342C 248.833,342.5 324.166,342.667 399.5,342.5C 399.667,355.504 399.5,368.504 399,381.5C 396.228,396.439 387.395,405.106 372.5,407.5C 282.166,407.667 191.833,407.5 101.5,407C 93.2043,400.587 88.3709,392.087 87,381.5C 86.5001,368.838 86.3334,356.171 86.5,343.5C 107.34,343.831 128.007,343.497 148.5,342.5C 152.113,341.637 154.113,339.303 154.5,335.5 Z"/></g>
<g><path style="opacity:1" fill="#d7e6ee" d="M 148.5,342.5 C 128.007,343.497 107.34,343.831 86.5,343.5C 86.3334,356.171 86.5001,368.838 87,381.5C 88.3709,392.087 93.2043,400.587 101.5,407C 191.833,407.5 282.166,407.667 372.5,407.5C 262.001,408.666 151.334,408.833 40.5,408C 26.2145,404.715 17.7145,395.881 15,381.5C 14.5001,368.504 14.3334,355.504 14.5,342.5C 59.1667,342.5 103.833,342.5 148.5,342.5 Z"/></g>
<g><path style="opacity:1" fill="#30333a" d="M 374.5,422.5 C 358.008,423.497 341.342,423.83 324.5,423.5C 301.5,423.5 278.5,423.5 255.5,423.5C 255.5,424.5 255.5,425.5 255.5,426.5C 254.566,425.432 254.232,424.099 254.5,422.5C 294.5,422.5 334.5,422.5 374.5,422.5 Z"/></g>
<g><path style="opacity:1" fill="#bae2f7" d="M 239.5,423.5 C 229.5,423.5 219.5,423.5 209.5,423.5C 208.349,458.163 192.016,482.496 160.5,496.5C 150.161,496.666 139.828,496.5 129.5,496C 123.791,492.455 123.125,488.121 127.5,483C 154.782,472.056 170.448,452.056 174.5,423C 196.337,422.171 218.004,422.337 239.5,423.5 Z"/></g>
<g><path style="opacity:1" fill="#e0f0f9" d="M 239.5,423.5 C 241.683,441.365 249.349,456.531 262.5,469C 270.584,474.795 279.084,479.961 288,484.5C 290.223,488.388 289.723,491.888 286.5,495C 244.585,496.489 202.585,496.989 160.5,496.5C 192.016,482.496 208.349,458.163 209.5,423.5C 219.5,423.5 229.5,423.5 239.5,423.5 Z"/></g>
<g><path style="opacity:1" fill="#626877" d="M 324.5,423.5 C 324.333,439.837 324.5,456.17 325,472.5C 327.423,482.364 332.59,490.364 340.5,496.5C 328.167,496.5 315.833,496.5 303.5,496.5C 305.967,486.4 303.3,477.9 295.5,471C 279.963,465.45 268.13,455.616 260,441.5C 257.789,436.702 256.289,431.702 255.5,426.5C 255.5,425.5 255.5,424.5 255.5,423.5C 278.5,423.5 301.5,423.5 324.5,423.5 Z"/></g>
</svg>
