<?xml version="1.0" encoding="UTF-8"?>
<!DOCTYPE svg PUBLIC "-//W3C//DTD SVG 1.1//EN" "http://www.w3.org/Graphics/SVG/1.1/DTD/svg11.dtd">
<svg xmlns="http://www.w3.org/2000/svg" version="1.1" width="512px" height="512px" style="shape-rendering:geometricPrecision; text-rendering:geometricPrecision; image-rendering:optimizeQuality; fill-rule:evenodd; clip-rule:evenodd" xmlns:xlink="http://www.w3.org/1999/xlink">
<g><path style="opacity:0.988" fill="#020202" d="M 128.5,-0.5 C 195.5,-0.5 262.5,-0.5 329.5,-0.5C 360.732,5.8928 381.566,24.2261 392,54.5C 422.425,64.9262 440.758,85.9262 447,117.5C 447.667,181.5 447.667,245.5 447,309.5C 445.728,312.222 443.561,313.556 440.5,313.5C 436.91,313.456 434.41,311.789 433,308.5C 432.667,245.5 432.333,182.5 432,119.5C 426.216,93.7158 410.716,76.8825 385.5,69C 353.869,67.5453 322.203,67.0453 290.5,67.5C 252.793,67.0311 215.127,67.5311 177.5,69C 153.28,77.2183 138.114,93.7183 132,118.5C 131.012,228.863 131.346,339.196 133,449.5C 140.882,474.716 157.716,490.216 183.5,496C 207.498,496.5 231.498,496.667 255.5,496.5C 281.835,496.667 308.169,496.5 334.5,496C 347,493.5 354.5,486 357,473.5C 353.606,447.969 363.773,430.803 387.5,422C 396.56,421.882 405.56,421.215 414.5,420C 423.99,415.876 429.823,408.709 432,398.5C 432.333,378.5 432.667,358.5 433,338.5C 434.41,335.211 436.91,333.544 440.5,333.5C 443.325,333.081 445.491,334.081 447,336.5C 447.667,373.167 447.667,409.833 447,446.5C 439.32,482.013 417.82,503.68 382.5,511.5C 315.5,511.5 248.5,511.5 181.5,511.5C 150.268,505.107 129.434,486.774 119,456.5C 88.5748,446.074 70.2415,425.074 64,393.5C 63.3333,313.5 63.3333,233.5 64,153.5C 65.2725,150.778 67.4392,149.444 70.5,149.5C 74.0897,149.544 76.5897,151.211 78,154.5C 78.0259,234.854 78.6926,315.188 80,395.5C 85.1509,414.848 96.6509,428.848 114.5,437.5C 114.56,438.043 114.893,438.376 115.5,438.5C 116.5,333.835 116.833,229.169 116.5,124.5C 122.175,82.1586 146.175,58.1586 188.5,52.5C 250.504,52.8333 312.504,52.5 374.5,51.5C 374.376,50.8933 374.043,50.56 373.5,50.5C 363.541,30.0635 347.208,18.2302 324.5,15C 295.835,14.5 267.169,14.3334 238.5,14.5C 202.498,14.3333 166.498,14.5 130.5,15C 102.667,21.5 85.5,38.6667 79,66.5C 78.6667,85.5 78.3333,104.5 78,123.5C 77.1501,127.513 74.6501,129.513 70.5,129.5C 67.6755,129.919 65.5088,128.919 64,126.5C 63.3333,105.833 63.3333,85.1667 64,64.5C 71.6804,28.9867 93.1804,7.32001 128.5,-0.5 Z"/></g>
<g><path style="opacity:0.999" fill="#596bd8" d="M 238.5,14.5 C 231.702,26.4305 225.702,38.7638 220.5,51.5C 209.654,51.1722 198.987,51.5056 188.5,52.5C 146.175,58.1586 122.175,82.1586 116.5,124.5C 115.833,228.833 115.167,333.167 114.5,437.5C 96.6509,428.848 85.1509,414.848 80,395.5C 78.6926,315.188 78.0259,234.854 78,154.5C 76.5897,151.211 74.0897,149.544 70.5,149.5C 70.5,142.833 70.5,136.167 70.5,129.5C 74.6501,129.513 77.1501,127.513 78,123.5C 78.3333,104.5 78.6667,85.5 79,66.5C 85.5,38.6667 102.667,21.5 130.5,15C 166.498,14.5 202.498,14.3333 238.5,14.5 Z"/></g>
<g><path style="opacity:1" fill="#717aea" d="M 238.5,14.5 C 267.169,14.3334 295.835,14.5 324.5,15C 347.208,18.2302 363.541,30.0635 373.5,50.5C 322.669,51.4989 271.669,51.8322 220.5,51.5C 225.702,38.7638 231.702,26.4305 238.5,14.5 Z"/></g>
<g><path style="opacity:1" fill="#5158a9" d="M 373.5,50.5 C 374.043,50.56 374.376,50.8933 374.5,51.5C 312.504,52.5 250.504,52.8333 188.5,52.5C 198.987,51.5056 209.654,51.1722 220.5,51.5C 271.669,51.8322 322.669,51.4989 373.5,50.5 Z"/></g>
<g><path style="opacity:1" fill="#d9d6ef" d="M 290.5,67.5 C 280.864,85.1686 272.531,103.502 265.5,122.5C 265.863,123.183 266.196,123.85 266.5,124.5C 260.393,124.44 257.559,127.44 258,133.5C 258.997,135.323 260.164,136.99 261.5,138.5C 260.542,138.953 259.708,139.619 259,140.5C 251.924,162.804 246.09,185.47 241.5,208.5C 292.998,209.167 344.332,209.833 395.5,210.5C 318.833,210.333 242.166,210.5 165.5,211C 160.014,216.081 160.347,220.748 166.5,225C 190.498,225.5 214.498,225.667 238.5,225.5C 237.074,235.484 235.74,245.484 234.5,255.5C 211.831,255.333 189.164,255.5 166.5,256C 160.16,260.084 159.827,264.75 165.5,270C 187.831,270.5 210.164,270.667 232.5,270.5C 231.787,280.484 231.453,290.484 231.5,300.5C 209.831,300.333 188.164,300.5 166.5,301C 160.271,305.171 159.938,309.837 165.5,315C 242.166,315.5 318.833,315.667 395.5,315.5C 340.669,316.499 285.669,316.832 230.5,316.5C 230.5,326.167 230.5,335.833 230.5,345.5C 209.164,345.333 187.831,345.5 166.5,346C 160.347,350.252 160.014,354.919 165.5,360C 242.499,360.5 319.499,360.667 396.5,360.5C 341.669,361.499 286.669,361.832 231.5,361.5C 232.119,371.171 232.786,380.837 233.5,390.5C 253.007,390.17 272.341,390.503 291.5,391.5C 249.499,391.333 207.499,391.5 165.5,392C 160.003,397.033 160.336,401.7 166.5,406C 189.498,406.5 212.498,406.667 235.5,406.5C 238.98,437.237 245.647,467.237 255.5,496.5C 231.498,496.667 207.498,496.5 183.5,496C 157.716,490.216 140.882,474.716 133,449.5C 131.346,339.196 131.012,228.863 132,118.5C 138.114,93.7183 153.28,77.2183 177.5,69C 215.127,67.5311 252.793,67.0311 290.5,67.5 Z"/></g>
<g><path style="opacity:1" fill="#ebe9f4" d="M 290.5,67.5 C 322.203,67.0453 353.869,67.5453 385.5,69C 410.716,76.8825 426.216,93.7158 432,119.5C 432.333,182.5 432.667,245.5 433,308.5C 434.41,311.789 436.91,313.456 440.5,313.5C 440.5,320.167 440.5,326.833 440.5,333.5C 436.91,333.544 434.41,335.211 433,338.5C 432.667,358.5 432.333,378.5 432,398.5C 429.823,408.709 423.99,415.876 414.5,420C 405.56,421.215 396.56,421.882 387.5,422C 363.773,430.803 353.606,447.969 357,473.5C 354.5,486 347,493.5 334.5,496C 308.169,496.5 281.835,496.667 255.5,496.5C 245.647,467.237 238.98,437.237 235.5,406.5C 254.17,406.667 272.836,406.5 291.5,406C 296.535,402.987 297.702,398.82 295,393.5C 293.887,392.695 292.721,392.028 291.5,391.5C 272.341,390.503 253.007,390.17 233.5,390.5C 232.786,380.837 232.119,371.171 231.5,361.5C 286.669,361.832 341.669,361.499 396.5,360.5C 404.408,355.755 404.408,350.922 396.5,346C 341.168,345.5 285.834,345.333 230.5,345.5C 230.5,335.833 230.5,326.167 230.5,316.5C 285.669,316.832 340.669,316.499 395.5,315.5C 402.164,313.511 403.831,309.511 400.5,303.5C 399.335,302.416 398.002,301.583 396.5,301C 341.501,300.5 286.501,300.333 231.5,300.5C 231.453,290.484 231.787,280.484 232.5,270.5C 287.501,270.667 342.501,270.5 397.5,270C 402.434,267.335 403.601,263.502 401,258.5C 399.829,257.107 398.329,256.273 396.5,256C 342.501,255.5 288.501,255.333 234.5,255.5C 235.74,245.484 237.074,235.484 238.5,225.5C 291.168,225.667 343.834,225.5 396.5,225C 402.331,222.828 403.831,218.995 401,213.5C 399.512,211.84 397.679,210.84 395.5,210.5C 344.332,209.833 292.998,209.167 241.5,208.5C 246.09,185.47 251.924,162.804 259,140.5C 259.708,139.619 260.542,138.953 261.5,138.5C 273.434,148.27 286.1,149.104 299.5,141C 304.231,138.044 306.064,133.878 305,128.5C 302.487,124.788 298.987,123.622 294.5,125C 289.735,130.588 283.735,132.588 276.5,131C 273.536,128.19 270.202,126.024 266.5,124.5C 266.196,123.85 265.863,123.183 265.5,122.5C 272.531,103.502 280.864,85.1686 290.5,67.5 Z"/></g>
<g><path style="opacity:1" fill="#060505" d="M 223.5,138.5 C 217.305,140.736 213.305,138.736 211.5,132.5C 211.096,126.71 211.596,121.044 213,115.5C 217.625,111.354 221.959,111.687 226,116.5C 226.667,122.5 226.667,128.5 226,134.5C 225.338,135.984 224.504,137.317 223.5,138.5 Z"/></g>
<g><path style="opacity:1" fill="#0a090a" d="M 352.5,131.5 C 350.419,138.71 346.086,140.71 339.5,137.5C 339.217,136.711 338.717,136.044 338,135.5C 337.333,129.167 337.333,122.833 338,116.5C 342.987,111.158 347.654,111.491 352,117.5C 352.499,122.155 352.666,126.821 352.5,131.5 Z"/></g>
<g><path style="opacity:1" fill="#050505" d="M 266.5,124.5 C 270.202,126.024 273.536,128.19 276.5,131C 283.735,132.588 289.735,130.588 294.5,125C 298.987,123.622 302.487,124.788 305,128.5C 306.064,133.878 304.231,138.044 299.5,141C 286.1,149.104 273.434,148.27 261.5,138.5C 260.164,136.99 258.997,135.323 258,133.5C 257.559,127.44 260.393,124.44 266.5,124.5 Z"/></g>
<g><path style="opacity:1" fill="#404c9a" d="M 116.5,124.5 C 116.833,229.169 116.5,333.835 115.5,438.5C 114.893,438.376 114.56,438.043 114.5,437.5C 115.167,333.167 115.833,228.833 116.5,124.5 Z"/></g>
<g><path style="opacity:1" fill="#fea1ac" d="M 211.5,132.5 C 213.305,138.736 217.305,140.736 223.5,138.5C 234.905,150.964 233.905,162.464 220.5,173C 206.727,179.601 193.393,178.934 180.5,171C 168.556,157.101 170.223,145.101 185.5,135C 193.923,131.456 202.59,130.623 211.5,132.5 Z"/></g>
<g><path style="opacity:1" fill="#fea1ac" d="M 352.5,131.5 C 362.788,130.243 372.455,132.076 381.5,137C 395.845,151.594 394.178,164.261 376.5,175C 361.679,180.419 348.512,177.919 337,167.5C 332.771,161.841 331.438,155.507 333,148.5C 335.19,144.778 337.356,141.111 339.5,137.5C 346.086,140.71 350.419,138.71 352.5,131.5 Z"/></g>
<g><path style="opacity:1" fill="#030303" d="M 395.5,210.5 C 397.679,210.84 399.512,211.84 401,213.5C 403.831,218.995 402.331,222.828 396.5,225C 343.834,225.5 291.168,225.667 238.5,225.5C 214.498,225.667 190.498,225.5 166.5,225C 160.347,220.748 160.014,216.081 165.5,211C 242.166,210.5 318.833,210.333 395.5,210.5 Z"/></g>
<g><path style="opacity:1" fill="#000000" d="M 234.5,255.5 C 288.501,255.333 342.501,255.5 396.5,256C 398.329,256.273 399.829,257.107 401,258.5C 403.601,263.502 402.434,267.335 397.5,270C 342.501,270.5 287.501,270.667 232.5,270.5C 210.164,270.667 187.831,270.5 165.5,270C 159.827,264.75 160.16,260.084 166.5,256C 189.164,255.5 211.831,255.333 234.5,255.5 Z"/></g>
<g><path style="opacity:1" fill="#040404" d="M 231.5,300.5 C 286.501,300.333 341.501,300.5 396.5,301C 398.002,301.583 399.335,302.416 400.5,303.5C 403.831,309.511 402.164,313.511 395.5,315.5C 318.833,315.667 242.166,315.5 165.5,315C 159.938,309.837 160.271,305.171 166.5,301C 188.164,300.5 209.831,300.333 231.5,300.5 Z"/></g>
<g><path style="opacity:1" fill="#090909" d="M 230.5,345.5 C 285.834,345.333 341.168,345.5 396.5,346C 404.408,350.922 404.408,355.755 396.5,360.5C 319.499,360.667 242.499,360.5 165.5,360C 160.014,354.919 160.347,350.252 166.5,346C 187.831,345.5 209.164,345.333 230.5,345.5 Z"/></g>
<g><path style="opacity:1" fill="#080809" d="M 291.5,391.5 C 292.721,392.028 293.887,392.695 295,393.5C 297.702,398.82 296.535,402.987 291.5,406C 272.836,406.5 254.17,406.667 235.5,406.5C 212.498,406.667 189.498,406.5 166.5,406C 160.336,401.7 160.003,397.033 165.5,392C 207.499,391.5 249.499,391.333 291.5,391.5 Z"/></g>
<g><path style="opacity:1" fill="#d8d5ee" d="M 431.5,426.5 C 433.986,457.018 421.319,478.851 393.5,492C 383.511,495.855 373.178,497.189 362.5,496C 367.986,489.522 371.153,482.022 372,473.5C 369.329,445.171 382.163,432.671 410.5,436C 418.584,434.954 425.584,431.787 431.5,426.5 Z"/></g>
</svg>
