<?xml version="1.0" encoding="UTF-8"?>
<!DOCTYPE svg PUBLIC "-//W3C//DTD SVG 1.1//EN" "http://www.w3.org/Graphics/SVG/1.1/DTD/svg11.dtd">
<svg xmlns="http://www.w3.org/2000/svg" version="1.1" width="512px" height="512px" style="shape-rendering:geometricPrecision; text-rendering:geometricPrecision; image-rendering:optimizeQuality; fill-rule:evenodd; clip-rule:evenodd" xmlns:xlink="http://www.w3.org/1999/xlink">
<g><path style="opacity:0.97" fill="#010102" d="M 147.5,-0.5 C 159.5,-0.5 171.5,-0.5 183.5,-0.5C 258.252,15.8662 329.252,42.5328 396.5,79.5C 409.668,67.5112 424.334,57.6778 440.5,50C 467.143,40.9932 488.643,47.8266 505,70.5C 507.685,75.7441 509.852,81.0775 511.5,86.5C 511.5,138.833 511.5,191.167 511.5,243.5C 500.832,276.29 478.499,289.123 444.5,282C 426.515,274.671 410.682,264.171 397,250.5C 347.683,277.407 296.183,299.24 242.5,316C 233.344,329.808 225.344,344.308 218.5,359.5C 246.685,360.508 258.519,374.841 254,402.5C 250.082,410.752 243.916,416.585 235.5,420C 224.23,421.409 212.896,421.909 201.5,421.5C 199.567,434.861 197.401,448.195 195,461.5C 187.443,488.225 170.277,504.892 143.5,511.5C 135.833,511.5 128.167,511.5 120.5,511.5C 84.727,501.865 66.727,478.365 66.5,441C 66.4225,436.083 66.9225,431.25 68,426.5C 69.7342,424.549 71.9009,423.549 74.5,423.5C 77.7067,424.026 80.2067,425.692 82,428.5C 82.1552,439.209 82.8219,449.875 84,460.5C 93.3373,486.236 111.504,497.903 138.5,495.5C 154.302,493.538 166.302,485.704 174.5,472C 160.008,466.344 147.508,457.844 137,446.5C 133.221,441.277 130.221,435.61 128,429.5C 126.081,420.495 124.081,411.495 122,402.5C 119.17,395.14 114.67,389.14 108.5,384.5C 101.428,377.301 92.7617,373.301 82.5,372.5C 82.6664,381.173 82.4998,389.84 82,398.5C 80.5897,401.789 78.0897,403.456 74.5,403.5C 70.8296,403.673 68.3296,402.007 67,398.5C 66.6667,365.167 66.3333,331.833 66,298.5C 27.8351,269.514 5.66841,231.181 -0.5,183.5C -0.5,171.167 -0.5,158.833 -0.5,146.5C 5.107,104.119 23.7737,68.6188 55.5,40C 59.394,37.8754 63.0606,38.042 66.5,40.5C 68.8322,43.6854 68.9989,47.0187 67,50.5C 17.2944,97.3198 2.9611,153.32 24,218.5C 38.3309,253.828 62.1642,280.661 95.5,299C 126.812,315.273 159.812,319.94 194.5,313C 204.813,310.76 214.813,307.926 224.5,304.5C 282.316,287.926 337.649,265.26 390.5,236.5C 391.667,189.17 391.833,141.837 391,94.5C 335.37,63.6803 276.87,40.0137 215.5,23.5C 173.26,8.85197 132.26,12.0186 92.5,33C 88.191,34.2437 84.8577,33.0771 82.5,29.5C 81.137,26.786 81.3037,24.1194 83,21.5C 94.584,14.0769 107.084,8.57693 120.5,5C 129.551,2.71871 138.551,0.885375 147.5,-0.5 Z"/></g>
<g><path style="opacity:1" fill="#5f6bd4" d="M 215.5,23.5 C 201.956,30.858 189.956,40.358 179.5,52C 180.737,52.2321 181.737,52.7321 182.5,53.5C 137.271,48.3722 100.771,63.7055 73,99.5C 49.577,135.641 46.2436,173.641 63,213.5C 89.506,261.839 130.339,282.839 185.5,276.5C 196.598,288.543 209.598,297.876 224.5,304.5C 214.813,307.926 204.813,310.76 194.5,313C 159.812,319.94 126.812,315.273 95.5,299C 62.1642,280.661 38.3309,253.828 24,218.5C 2.9611,153.32 17.2944,97.3198 67,50.5C 68.9989,47.0187 68.8322,43.6854 66.5,40.5C 71.8333,36.8333 77.1667,33.1667 82.5,29.5C 84.8577,33.0771 88.191,34.2437 92.5,33C 132.26,12.0186 173.26,8.85197 215.5,23.5 Z"/></g>
<g><path style="opacity:1" fill="#7379e6" d="M 215.5,23.5 C 276.87,40.0137 335.37,63.6803 391,94.5C 391.833,141.837 391.667,189.17 390.5,236.5C 337.649,265.26 282.316,287.926 224.5,304.5C 209.598,297.876 196.598,288.543 185.5,276.5C 243.731,261.537 274.398,224.037 277.5,164C 275.074,113.253 250.408,78.2529 203.5,59C 196.599,56.7209 189.599,54.8876 182.5,53.5C 181.737,52.7321 180.737,52.2321 179.5,52C 189.956,40.358 201.956,30.858 215.5,23.5 Z"/></g>
<g><path style="opacity:1" fill="#040405" d="M 182.5,53.5 C 189.599,54.8876 196.599,56.7209 203.5,59C 250.408,78.2529 275.074,113.253 277.5,164C 274.398,224.037 243.731,261.537 185.5,276.5C 130.339,282.839 89.506,261.839 63,213.5C 46.2436,173.641 49.577,135.641 73,99.5C 100.771,63.7055 137.271,48.3722 182.5,53.5 Z"/></g>
<g><path style="opacity:1" fill="#5f6bd5" d="M 453.5,61.5 C 475.306,59.504 489.473,68.8374 496,89.5C 496.977,140.871 496.644,192.204 495,243.5C 487.295,263.442 472.795,271.608 451.5,268C 434.554,261.282 419.72,251.449 407,238.5C 406.167,189.497 406.333,140.497 407.5,91.5C 420.928,78.4607 436.261,68.4607 453.5,61.5 Z"/></g>
<g><path style="opacity:1" fill="#d7d5ee" d="M 166.5,67.5 C 160.418,76.6572 155.084,86.3239 150.5,96.5C 132.326,96.8301 114.326,96.4968 96.5,95.5C 115.869,76.592 139.202,67.2587 166.5,67.5 Z"/></g>
<g><path style="opacity:1" fill="#ebe9f4" d="M 166.5,67.5 C 192.741,67.9019 215.074,77.2352 233.5,95.5C 206.005,96.4979 178.338,96.8313 150.5,96.5C 155.084,86.3239 160.418,76.6572 166.5,67.5 Z"/></g>
<g><path style="opacity:1" fill="#c7c5d1" d="M 96.5,95.5 C 114.326,96.4968 132.326,96.8301 150.5,96.5C 178.338,96.8313 206.005,96.4979 233.5,95.5C 234.289,95.7828 234.956,96.2828 235.5,97C 188.5,97.6667 141.5,97.6667 94.5,97C 95.0442,96.2828 95.7109,95.7828 96.5,95.5 Z"/></g>
<g><path style="opacity:1" fill="#c6c2eb" d="M 144.5,112.5 C 142.524,119.738 140.858,127.072 139.5,134.5C 162.006,134.169 184.34,134.503 206.5,135.5C 177.498,135.333 148.498,135.5 119.5,136C 99.3348,144.486 93.1681,158.986 101,179.5C 110.57,193.188 123.737,198.521 140.5,195.5C 142.699,202.765 144.699,210.099 146.5,217.5C 125.164,217.667 103.831,217.5 82.5,217C 67.4996,192.171 63.6663,165.671 71,137.5C 73.6284,128.744 77.4618,120.578 82.5,113C 103.164,112.5 123.831,112.333 144.5,112.5 Z"/></g>
<g><path style="opacity:1" fill="#d9d7f0" d="M 144.5,112.5 C 179.173,112.167 213.84,112.5 248.5,113.5C 263.118,138.27 266.618,164.603 259,192.5C 256.561,200.99 253.061,208.99 248.5,216.5C 214.507,217.5 180.507,217.833 146.5,217.5C 144.699,210.099 142.699,202.765 140.5,195.5C 162.503,195.667 184.503,195.5 206.5,195C 226.015,190.13 234.515,177.63 232,157.5C 228.034,144.931 219.534,137.597 206.5,135.5C 184.34,134.503 162.006,134.169 139.5,134.5C 140.858,127.072 142.524,119.738 144.5,112.5 Z"/></g>
<g><path style="opacity:1" fill="#030304" d="M 206.5,135.5 C 219.534,137.597 228.034,144.931 232,157.5C 234.515,177.63 226.015,190.13 206.5,195C 184.503,195.5 162.503,195.667 140.5,195.5C 123.737,198.521 110.57,193.188 101,179.5C 93.1681,158.986 99.3348,144.486 119.5,136C 148.498,135.5 177.498,135.333 206.5,135.5 Z"/></g>
<g><path style="opacity:1" fill="#4858b8" d="M 205.5,150.5 C 182.833,150.5 160.167,150.5 137.5,150.5C 137.5,160.167 137.5,169.833 137.5,179.5C 160.5,179.5 183.5,179.5 206.5,179.5C 179.003,180.664 151.336,180.83 123.5,180C 113.121,174.861 110.288,167.028 115,156.5C 117.593,153.457 120.76,151.29 124.5,150C 151.67,149.17 178.67,149.336 205.5,150.5 Z"/></g>
<g><path style="opacity:1" fill="#5f6bd5" d="M 205.5,150.5 C 218.139,155.292 220.973,163.625 214,175.5C 211.843,177.495 209.343,178.828 206.5,179.5C 183.5,179.5 160.5,179.5 137.5,179.5C 137.5,169.833 137.5,160.167 137.5,150.5C 160.167,150.5 182.833,150.5 205.5,150.5 Z"/></g>
<g><path style="opacity:1" fill="#9998a2" d="M 234.5,233.5 C 207.833,233.5 181.167,233.5 154.5,233.5C 134.993,233.17 115.659,233.503 96.5,234.5C 95.7109,234.217 95.0442,233.717 94.5,233C 141.904,232.17 188.571,232.336 234.5,233.5 Z"/></g>
<g><path style="opacity:1" fill="#d8d6ee" d="M 154.5,233.5 C 155.38,236.262 156.546,238.929 158,241.5C 162.521,248.557 167.021,255.557 171.5,262.5C 142.062,264.582 117.062,255.249 96.5,234.5C 115.659,233.503 134.993,233.17 154.5,233.5 Z"/></g>
<g><path style="opacity:1" fill="#eae8f3" d="M 154.5,233.5 C 181.167,233.5 207.833,233.5 234.5,233.5C 217.454,251.419 196.454,261.086 171.5,262.5C 167.021,255.557 162.521,248.557 158,241.5C 156.546,238.929 155.38,236.262 154.5,233.5 Z"/></g>
<g><path style="opacity:1" fill="#554c5d" d="M 208.5,343.5 C 208.53,342.503 208.03,341.836 207,341.5C 192.495,344.572 177.829,346.239 163,346.5C 149.793,345.849 136.626,345.016 123.5,344C 112.942,347.28 107.942,354.447 108.5,365.5C 100.401,361.023 91.7345,358.356 82.5,357.5C 82.1672,341.486 82.5006,325.486 83.5,309.5C 126.46,332.538 171.293,336.871 218,322.5C 218.5,322.833 219,323.167 219.5,323.5C 215.283,329.939 211.616,336.606 208.5,343.5 Z"/></g>
<g><path style="opacity:1" fill="#63576c" d="M 208.5,343.5 C 202.452,357.141 197.285,371.141 193,385.5C 187.922,409.39 183.422,433.39 179.5,457.5C 167.708,453.195 157.541,446.529 149,437.5C 142.333,427.165 138.666,415.832 138,403.5C 133.14,386.826 123.307,374.159 108.5,365.5C 107.942,354.447 112.942,347.28 123.5,344C 136.626,345.016 149.793,345.849 163,346.5C 177.829,346.239 192.495,344.572 207,341.5C 208.03,341.836 208.53,342.503 208.5,343.5 Z"/></g>
<g><path style="opacity:0.998" fill="#efcb6a" d="M 108.5,384.5 C 108.333,408.836 108.5,433.169 109,457.5C 112.183,472.708 120.016,484.875 132.5,494C 134.345,495.128 136.345,495.628 138.5,495.5C 111.504,497.903 93.3373,486.236 84,460.5C 82.8219,449.875 82.1552,439.209 82,428.5C 80.2067,425.692 77.7067,424.026 74.5,423.5C 74.5,416.833 74.5,410.167 74.5,403.5C 78.0897,403.456 80.5897,401.789 82,398.5C 82.4998,389.84 82.6664,381.173 82.5,372.5C 92.7617,373.301 101.428,377.301 108.5,384.5 Z"/></g>
<g><path style="opacity:1" fill="#dd8493" d="M 228.5,405.5 C 220.097,406.134 212.097,405.467 204.5,403.5C 206.207,394.004 208.541,384.671 211.5,375.5C 217.176,375.334 222.843,375.501 228.5,376C 238.855,379.876 242.355,387.043 239,397.5C 236.758,401.919 233.258,404.586 228.5,405.5 Z"/></g>
<g><path style="opacity:1" fill="#f4e09a" d="M 108.5,384.5 C 114.67,389.14 119.17,395.14 122,402.5C 124.081,411.495 126.081,420.495 128,429.5C 130.221,435.61 133.221,441.277 137,446.5C 147.508,457.844 160.008,466.344 174.5,472C 166.302,485.704 154.302,493.538 138.5,495.5C 136.345,495.628 134.345,495.128 132.5,494C 120.016,484.875 112.183,472.708 109,457.5C 108.5,433.169 108.333,408.836 108.5,384.5 Z"/></g>
<g><path style="opacity:1" fill="#804c55" d="M 204.5,403.5 C 212.097,405.467 220.097,406.134 228.5,405.5C 220.35,406.493 212.017,406.826 203.5,406.5C 203.263,405.209 203.596,404.209 204.5,403.5 Z"/></g>
</svg>
