<?xml version="1.0" encoding="UTF-8"?>
<!DOCTYPE svg PUBLIC "-//W3C//DTD SVG 1.1//EN" "http://www.w3.org/Graphics/SVG/1.1/DTD/svg11.dtd">
<svg xmlns="http://www.w3.org/2000/svg" version="1.1" width="512px" height="512px" style="shape-rendering:geometricPrecision; text-rendering:geometricPrecision; image-rendering:optimizeQuality; fill-rule:evenodd; clip-rule:evenodd" xmlns:xlink="http://www.w3.org/1999/xlink">
<g><path style="opacity:0.971" fill="#020202" d="M 234.5,-0.5 C 248.5,-0.5 262.5,-0.5 276.5,-0.5C 353.881,9.74513 411.714,48.7451 450,116.5C 460.529,137.421 467.863,159.421 472,182.5C 480.06,186.227 485.727,192.227 489,200.5C 490.582,218.461 490.916,236.461 490,254.5C 488.994,264.828 483.994,272.494 475,277.5C 474.5,285.159 474.334,292.826 474.5,300.5C 494.036,306.702 506.369,319.702 511.5,339.5C 511.5,380.167 511.5,420.833 511.5,461.5C 505.441,484.888 490.441,498.721 466.5,503C 442.657,505.592 418.99,508.426 395.5,511.5C 388.833,511.5 382.167,511.5 375.5,511.5C 359.939,507.272 349.939,497.272 345.5,481.5C 323.044,476.265 309.877,462.265 306,439.5C 305.333,413.833 305.333,388.167 306,362.5C 309.824,339.176 323.324,325.176 346.5,320.5C 351.579,301.356 364.079,291.022 384,289.5C 395.055,290.705 406.055,292.038 417,293.5C 417.667,288.167 417.667,282.833 417,277.5C 408.629,272.121 403.962,264.454 403,254.5C 402.084,236.461 402.418,218.461 404,200.5C 405.922,194.57 409.422,189.737 414.5,186C 412.862,178.588 410.529,171.421 407.5,164.5C 390.826,171.463 373.826,172.297 356.5,167C 333.832,158.166 310.498,151.833 286.5,148C 260.007,144.477 233.674,145.477 207.5,151C 185.429,157.135 163.429,163.469 141.5,170C 128.014,171.418 115.014,169.585 102.5,164.5C 100.576,171.698 98.5758,178.865 96.5,186C 102.976,190.439 106.81,196.605 108,204.5C 108.667,221.833 108.667,239.167 108,256.5C 106.577,265.683 101.911,272.683 94,277.5C 93.1705,282.864 93.3372,288.198 94.5,293.5C 105.303,292.003 116.137,290.669 127,289.5C 146.921,291.022 159.421,301.356 164.5,320.5C 187.676,325.176 201.176,339.176 205,362.5C 205.667,388.167 205.667,413.833 205,439.5C 200.669,461.841 187.502,475.841 165.5,481.5C 161.089,497.245 151.089,507.245 135.5,511.5C 128.833,511.5 122.167,511.5 115.5,511.5C 92.0267,508.283 68.36,505.45 44.5,503C 20.5592,498.721 5.55915,484.888 -0.5,461.5C -0.5,420.833 -0.5,380.167 -0.5,339.5C 4.63082,319.702 16.9642,306.702 36.5,300.5C 36.6664,292.826 36.4997,285.159 36,277.5C 28.4548,273.745 23.7881,267.745 22,259.5C 21.3333,240.167 21.3333,220.833 22,201.5C 24.8468,192.653 30.5134,186.319 39,182.5C 56.3264,97.6288 105.493,40.1288 186.5,10C 202.356,5.19842 218.356,1.69842 234.5,-0.5 Z"/></g>
<g><path style="opacity:1" fill="#d3c2e7" d="M 341.5,72.5 C 337.653,69.4074 333.32,67.0741 328.5,65.5C 330.081,61.9057 329.414,58.739 326.5,56C 298.717,43.8768 269.717,39.0434 239.5,41.5C 233.353,33.0141 233.02,24.3474 238.5,15.5C 321.849,11.5893 386.016,44.5893 431,114.5C 443.429,135.289 451.596,157.622 455.5,181.5C 446.5,181.5 437.5,181.5 428.5,181.5C 418.38,134.888 393.713,98.0546 354.5,71C 349.5,67.3095 345.167,67.8095 341.5,72.5 Z"/></g>
<g><path style="opacity:1" fill="#bb9adb" d="M 238.5,15.5 C 233.02,24.3474 233.353,33.0141 239.5,41.5C 167.492,51.3512 117.325,89.6846 89,156.5C 85.7335,164.567 83.5668,172.9 82.5,181.5C 73.5,181.5 64.5,181.5 55.5,181.5C 70.4987,110.334 111.165,59.8342 177.5,30C 197.052,21.8619 217.385,17.0286 238.5,15.5 Z"/></g>
<g><path style="opacity:1" fill="#fae19e" d="M 242.5,56.5 C 244.199,56.3398 245.866,56.5065 247.5,57C 238.474,68.2448 234.141,81.0781 234.5,95.5C 228.665,102.155 229.665,107.822 237.5,112.5C 239.792,119.086 243.126,125.086 247.5,130.5C 232.361,131.201 217.361,133.034 202.5,136C 182.646,141.396 162.98,147.396 143.5,154C 135.833,154.667 128.167,154.667 120.5,154C 116.223,152.91 112.223,151.243 108.5,149C 132.861,101.809 170.861,71.8088 222.5,59C 229.077,57.4035 235.744,56.5702 242.5,56.5 Z"/></g>
<g><path style="opacity:1" fill="#fceecd" d="M 242.5,56.5 C 250.323,55.3439 258.323,55.1772 266.5,56C 285.65,57.8278 304.15,62.3278 322,69.5C 324.587,68.7927 326.754,67.4594 328.5,65.5C 333.32,67.0741 337.653,69.4074 341.5,72.5C 340.137,75.214 340.304,77.8806 342,80.5C 368.572,97.7346 388.738,120.568 402.5,149C 393.184,154.221 383.184,156.221 372.5,155C 356.051,150.406 339.717,145.406 323.5,140C 298.659,132.865 273.326,129.698 247.5,130.5C 243.126,125.086 239.792,119.086 237.5,112.5C 252.547,121.544 266.381,119.877 279,107.5C 282.325,98.3188 279.158,94.4855 269.5,96C 260.133,105.913 250.8,105.913 241.5,96C 239.19,95.5034 236.857,95.3367 234.5,95.5C 234.141,81.0781 238.474,68.2448 247.5,57C 245.866,56.5065 244.199,56.3398 242.5,56.5 Z"/></g>
<g><path style="opacity:1" fill="#090805" d="M 185.5,82.5 C 189.426,82.0466 192.592,83.3799 195,86.5C 195.667,93.1667 195.667,99.8333 195,106.5C 189.837,112.062 185.171,111.729 181,105.5C 180.333,99.5 180.333,93.5 181,87.5C 182.059,85.3408 183.559,83.6741 185.5,82.5 Z"/></g>
<g><path style="opacity:1" fill="#060605" d="M 320.5,82.5 C 324.888,81.9433 328.055,83.6099 330,87.5C 330.667,93.5 330.667,99.5 330,105.5C 327.774,109.861 324.274,111.361 319.5,110C 317.951,108.786 316.785,107.286 316,105.5C 315.333,99.5 315.333,93.5 316,87.5C 317.025,85.313 318.525,83.6464 320.5,82.5 Z"/></g>
<g><path style="opacity:1" fill="#060605" d="M 234.5,95.5 C 236.857,95.3367 239.19,95.5034 241.5,96C 250.8,105.913 260.133,105.913 269.5,96C 279.158,94.4855 282.325,98.3188 279,107.5C 266.381,119.877 252.547,121.544 237.5,112.5C 229.665,107.822 228.665,102.155 234.5,95.5 Z"/></g>
<g><path style="opacity:1" fill="#747476" d="M 68.5,196.5 C 66.7884,199.261 65.6218,202.261 65,205.5C 64.3333,222.5 64.3333,239.5 65,256.5C 65.7648,259.196 66.9315,261.696 68.5,264C 73.1548,264.499 77.8215,264.666 82.5,264.5C 70.6738,265.66 58.6738,265.826 46.5,265C 41.7938,263.895 38.6271,261.062 37,256.5C 36.3333,239.5 36.3333,222.5 37,205.5C 38.4421,201.725 40.9421,198.892 44.5,197C 52.4931,196.5 60.4931,196.334 68.5,196.5 Z"/></g>
<g><path style="opacity:1" fill="#909090" d="M 68.5,196.5 C 74.5933,196.139 80.5933,196.639 86.5,198C 88.7089,199.873 90.5422,202.04 92,204.5C 92.6667,221.833 92.6667,239.167 92,256.5C 90.4716,261.201 87.3049,263.868 82.5,264.5C 77.8215,264.666 73.1548,264.499 68.5,264C 66.9315,261.696 65.7648,259.196 65,256.5C 64.3333,239.5 64.3333,222.5 65,205.5C 65.6218,202.261 66.7884,199.261 68.5,196.5 Z"/></g>
<g><path style="opacity:1" fill="#747476" d="M 450.5,196.5 C 449.126,198.714 447.959,201.047 447,203.5C 446.333,221.833 446.333,240.167 447,258.5C 447.792,260.587 448.959,262.421 450.5,264C 455.155,264.499 459.821,264.666 464.5,264.5C 452.34,265.66 440.007,265.827 427.5,265C 422.901,263.402 420.068,260.235 419,255.5C 418.028,237.742 418.361,220.076 420,202.5C 421.873,200.291 424.04,198.458 426.5,197C 434.493,196.5 442.493,196.334 450.5,196.5 Z"/></g>
<g><path style="opacity:1" fill="#909090" d="M 450.5,196.5 C 456.593,196.139 462.593,196.639 468.5,198C 470.709,199.873 472.542,202.04 474,204.5C 474.667,221.5 474.667,238.5 474,255.5C 472.904,260.765 469.737,263.765 464.5,264.5C 459.821,264.666 455.155,264.499 450.5,264C 448.959,262.421 447.792,260.587 447,258.5C 446.333,240.167 446.333,221.833 447,203.5C 447.959,201.047 449.126,198.714 450.5,196.5 Z"/></g>
<g><path style="opacity:1" fill="#5f4e6f" d="M 77.5,295.5 C 77.5,290.5 77.5,285.5 77.5,280.5C 69.1667,280.5 60.8333,280.5 52.5,280.5C 52.5,286.167 52.5,291.833 52.5,297.5C 51.5104,291.69 51.1771,285.69 51.5,279.5C 60.5,279.5 69.5,279.5 78.5,279.5C 78.8214,285.026 78.4881,290.36 77.5,295.5 Z"/></g>
<g><path style="opacity:1" fill="#5a5263" d="M 459.5,280.5 C 450.833,280.5 442.167,280.5 433.5,280.5C 433.5,285.5 433.5,290.5 433.5,295.5C 432.512,290.36 432.179,285.026 432.5,279.5C 441.682,279.173 450.682,279.507 459.5,280.5 Z"/></g>
<g><path style="opacity:1" fill="#bb9adc" d="M 77.5,295.5 C 69.1962,296.495 60.8629,297.161 52.5,297.5C 52.5,291.833 52.5,286.167 52.5,280.5C 60.8333,280.5 69.1667,280.5 77.5,280.5C 77.5,285.5 77.5,290.5 77.5,295.5 Z"/></g>
<g><path style="opacity:1" fill="#d2c0e5" d="M 459.5,280.5 C 459.5,286.167 459.5,291.833 459.5,297.5C 450.777,297.493 442.111,296.826 433.5,295.5C 433.5,290.5 433.5,285.5 433.5,280.5C 442.167,280.5 450.833,280.5 459.5,280.5 Z"/></g>
<g><path style="opacity:1" fill="#fef0ce" d="M 157.5,366.5 C 157.5,371.5 157.5,376.5 157.5,381.5C 153.91,381.544 151.41,383.211 150,386.5C 149.667,417.833 149.333,449.167 149,480.5C 144.837,491.155 137.004,496.488 125.5,496.5C 108.287,495.07 91.2871,493.07 74.5,490.5C 68.971,483.096 65.471,474.763 64,465.5C 63.3333,421.833 63.3333,378.167 64,334.5C 65.3214,324.852 69.4881,316.852 76.5,310.5C 93.0839,308.308 109.751,306.642 126.5,305.5C 137.505,306.018 145.005,311.351 149,321.5C 149.333,334.5 149.667,347.5 150,360.5C 151.308,364.062 153.808,366.062 157.5,366.5 Z"/></g>
<g><path style="opacity:1" fill="#fbe29f" d="M 417.5,309.5 C 414.31,313.214 412.143,317.547 411,322.5C 410.333,374.5 410.333,426.5 411,478.5C 412.356,483.411 414.19,488.077 416.5,492.5C 403.972,494.878 391.306,496.044 378.5,496C 370.099,493.932 364.599,488.766 362,480.5C 361.333,427.5 361.333,374.5 362,321.5C 364.474,313.693 369.641,308.526 377.5,306C 391.076,305.853 404.409,307.02 417.5,309.5 Z"/></g>
<g><path style="opacity:1" fill="#fef0ce" d="M 417.5,309.5 C 434.197,310.575 450.864,312.075 467.5,314C 482.333,318.167 491.833,327.667 496,342.5C 496.667,381.167 496.667,419.833 496,458.5C 492.404,471.761 484.238,480.928 471.5,486C 453.297,489.226 434.963,491.393 416.5,492.5C 414.19,488.077 412.356,483.411 411,478.5C 410.333,426.5 410.333,374.5 411,322.5C 412.143,317.547 414.31,313.214 417.5,309.5 Z"/></g>
<g><path style="opacity:1" fill="#fbe29f" d="M 76.5,310.5 C 69.4881,316.852 65.3214,324.852 64,334.5C 63.3333,378.167 63.3333,421.833 64,465.5C 65.471,474.763 68.971,483.096 74.5,490.5C 62.3886,489.769 50.3886,488.269 38.5,486C 26.3431,480.511 18.5098,471.344 15,458.5C 14.3333,419.833 14.3333,381.167 15,342.5C 19.1754,327.658 28.6754,318.158 43.5,314C 54.4985,312.757 65.4985,311.59 76.5,310.5 Z"/></g>
<g><path style="opacity:1" fill="#8f8f8f" d="M 189.5,398.5 C 183.005,405.748 175.005,410.414 165.5,412.5C 165.826,403.983 165.493,395.65 164.5,387.5C 163.388,384.054 161.055,382.054 157.5,381.5C 157.5,376.5 157.5,371.5 157.5,366.5C 160.675,366.16 162.841,364.493 164,361.5C 164.168,353.147 164.668,344.813 165.5,336.5C 177.439,339.938 185.272,347.605 189,359.5C 189.5,372.496 189.667,385.496 189.5,398.5 Z"/></g>
<g><path style="opacity:1" fill="#909090" d="M 343.5,337.5 C 345.491,362.144 346.157,387.144 345.5,412.5C 336.012,410.422 328.012,405.755 321.5,398.5C 321.053,384.427 321.553,370.427 323,356.5C 326.844,346.819 333.677,340.486 343.5,337.5 Z"/></g>
<g><path style="opacity:1" fill="#747476" d="M 164.5,387.5 C 165.493,395.65 165.826,403.983 165.5,412.5C 175.005,410.414 183.005,405.748 189.5,398.5C 189.667,412.171 189.5,425.837 189,439.5C 185.907,452.428 178.073,461.094 165.5,465.5C 164.5,439.509 164.167,413.509 164.5,387.5 Z"/></g>
<g><path style="opacity:1" fill="#747475" d="M 343.5,337.5 C 344.209,336.596 345.209,336.263 346.5,336.5C 346.833,379.505 346.5,422.505 345.5,465.5C 333.8,461.3 325.967,453.3 322,441.5C 321.5,427.171 321.333,412.837 321.5,398.5C 328.012,405.755 336.012,410.422 345.5,412.5C 346.157,387.144 345.491,362.144 343.5,337.5 Z"/></g>
</svg>
