<?xml version="1.0" encoding="UTF-8"?>
<!DOCTYPE svg PUBLIC "-//W3C//DTD SVG 1.1//EN" "http://www.w3.org/Graphics/SVG/1.1/DTD/svg11.dtd">
<svg xmlns="http://www.w3.org/2000/svg" version="1.1" width="512px" height="512px" style="shape-rendering:geometricPrecision; text-rendering:geometricPrecision; image-rendering:optimizeQuality; fill-rule:evenodd; clip-rule:evenodd" xmlns:xlink="http://www.w3.org/1999/xlink">
<g><path style="opacity:0.961" fill="#020201" d="M 27.5,-0.5 C 31.8333,-0.5 36.1667,-0.5 40.5,-0.5C 45.5343,1.1179 49.7009,4.1179 53,8.5C 104.214,74.8837 163.714,132.55 231.5,181.5C 247.167,173.5 262.833,173.5 278.5,181.5C 347.787,131.049 408.787,71.882 461.5,4C 464.099,2.20496 466.766,0.704964 469.5,-0.5C 474.5,-0.5 479.5,-0.5 484.5,-0.5C 498.369,5.55897 504.202,16.2256 502,31.5C 501.09,36.6513 499.09,41.318 496,45.5C 440.152,116.355 375.652,177.855 302.5,230C 300.942,233.388 299.608,236.888 298.5,240.5C 309.122,249.625 316.789,260.792 321.5,274C 372.343,284.504 397.843,315.671 398,367.5C 395.137,400.156 382.304,427.989 359.5,451C 357.115,451.556 354.782,451.39 352.5,450.5C 350.176,447.525 349.343,444.192 350,440.5C 364.441,423.956 374.441,404.956 380,383.5C 388.611,347.642 377.777,319.475 347.5,299C 317.424,284.001 289.09,286.667 262.5,307C 258.572,308.325 254.572,308.658 250.5,308C 242.152,302.825 233.485,298.158 224.5,294C 213.845,290.074 202.845,288.574 191.5,289.5C 157.762,295.071 136.596,314.404 128,347.5C 125.66,381.146 135.327,410.813 157,436.5C 179.715,463.883 207.882,483.383 241.5,495C 262.484,497.617 281.817,493.117 299.5,481.5C 310.502,475.33 320.835,468.163 330.5,460C 334.021,459.309 337.355,459.809 340.5,461.5C 341.989,465.243 341.822,468.91 340,472.5C 318.413,491.71 293.58,504.71 265.5,511.5C 258.5,511.5 251.5,511.5 244.5,511.5C 195.818,497.884 157.985,469.55 131,426.5C 118.932,406.13 112.432,384.13 111.5,360.5C 115.434,312.396 141.1,283.563 188.5,274C 193.211,260.792 200.878,249.625 211.5,240.5C 210.26,236.944 208.927,233.444 207.5,230C 162.388,197.577 120.222,161.41 81,121.5C 78.8829,117.934 79.0495,114.6 81.5,111.5C 85.0519,109.132 88.7186,108.965 92.5,111C 128.403,147.402 166.736,180.735 207.5,211C 208.332,211.688 208.998,211.521 209.5,210.5C 211.555,204.723 214.388,199.389 218,194.5C 218.667,193.5 218.667,192.5 218,191.5C 150.32,141.154 90.4862,82.6543 38.5,16C 29.8261,13.8156 25.1594,17.3156 24.5,26.5C 24.542,29.2586 25.042,31.9253 26,34.5C 28.6667,38.5 31.3333,42.5 34,46.5C 46.7054,60.2033 59.0387,74.2033 71,88.5C 71.7585,92.3566 71.2585,96.0233 69.5,99.5C 64.6663,101.25 60.4997,100.25 57,96.5C 45.706,82.8705 34.0393,69.5372 22,56.5C 13.9724,48.1098 9.47244,38.1098 8.5,26.5C 9.0441,13.3084 15.3774,4.30837 27.5,-0.5 Z"/></g>
<g><path style="opacity:0.999" fill="#f7ed96" d="M 81.5,111.5 C 77.8333,107.167 73.8333,103.167 69.5,99.5C 71.2585,96.0233 71.7585,92.3566 71,88.5C 59.0387,74.2033 46.7054,60.2033 34,46.5C 31.3333,42.5 28.6667,38.5 26,34.5C 25.042,31.9253 24.542,29.2586 24.5,26.5C 25.1594,17.3156 29.8261,13.8156 38.5,16C 90.4862,82.6543 150.32,141.154 218,191.5C 218.667,192.5 218.667,193.5 218,194.5C 214.388,199.389 211.555,204.723 209.5,210.5C 208.998,211.521 208.332,211.688 207.5,211C 166.736,180.735 128.403,147.402 92.5,111C 88.7186,108.965 85.0519,109.132 81.5,111.5 Z"/></g>
<g><path style="opacity:1" fill="#f7ed95" d="M 473.5,14.5 C 481.852,13.524 486.186,17.1906 486.5,25.5C 486.458,28.2586 485.958,30.9253 485,33.5C 431.963,102.378 370.13,161.711 299.5,211.5C 298.398,204.294 295.398,197.961 290.5,192.5C 359.384,141.282 420.384,81.949 473.5,14.5 Z"/></g>
<g><path style="opacity:1" fill="#f4cd6f" d="M 246.5,191.5 C 275.57,190.008 288.57,203.675 285.5,232.5C 271.363,226.857 256.697,225.023 241.5,227C 235.7,228.545 230.033,230.378 224.5,232.5C 220.6,212.626 227.933,198.959 246.5,191.5 Z"/></g>
<g><path style="opacity:1" fill="#f8ee96" d="M 243.5,241.5 C 271.345,238.252 291.679,248.919 304.5,273.5C 287.753,276.03 272.42,282.196 258.5,292C 256.167,292.667 253.833,292.667 251.5,292C 237.667,282.255 222.333,276.088 205.5,273.5C 213.473,257.191 226.14,246.524 243.5,241.5 Z"/></g>
<g><path style="opacity:1" fill="#fec8d3" d="M 191.5,289.5 C 202.845,288.574 213.845,290.074 224.5,294C 233.485,298.158 242.152,302.825 250.5,308C 254.572,308.658 258.572,308.325 262.5,307C 289.09,286.667 317.424,284.001 347.5,299C 377.777,319.475 388.611,347.642 380,383.5C 374.441,404.956 364.441,423.956 350,440.5C 349.343,444.192 350.176,447.525 352.5,450.5C 348.5,454.167 344.5,457.833 340.5,461.5C 337.355,459.809 334.021,459.309 330.5,460C 320.835,468.163 310.502,475.33 299.5,481.5C 250.238,471.23 215.238,443.23 194.5,397.5C 204.224,389.502 206.39,379.835 201,368.5C 199.296,366.627 197.463,364.96 195.5,363.5C 198.933,359.919 200.266,355.586 199.5,350.5C 201.16,341.337 197.494,337.17 188.5,338C 187.333,339.167 186.167,340.333 185,341.5C 184.501,346.823 184.334,352.156 184.5,357.5C 183.508,357.672 182.842,357.338 182.5,356.5C 181.431,333.734 184.431,311.401 191.5,289.5 Z"/></g>
<g><path style="opacity:1" fill="#fd9db0" d="M 191.5,289.5 C 184.431,311.401 181.431,333.734 182.5,356.5C 166.522,353.643 154.356,358.976 146,372.5C 144.148,389.342 151.648,399.508 168.5,403C 177.812,404.06 186.479,402.227 194.5,397.5C 215.238,443.23 250.238,471.23 299.5,481.5C 281.817,493.117 262.484,497.617 241.5,495C 207.882,483.383 179.715,463.883 157,436.5C 135.327,410.813 125.66,381.146 128,347.5C 136.596,314.404 157.762,295.071 191.5,289.5 Z"/></g>
<g><path style="opacity:1" fill="#050404" d="M 340.5,358.5 C 339.488,361.853 337.154,363.52 333.5,363.5C 329.32,363.585 326.986,361.585 326.5,357.5C 326.583,353.082 324.416,350.749 320,350.5C 317.849,350.643 316.182,351.643 315,353.5C 314.737,361.103 310.903,364.269 303.5,363C 298.408,357.107 298.241,350.941 303,344.5C 313.947,332.857 325.28,332.523 337,343.5C 340.008,348.053 341.174,353.053 340.5,358.5 Z"/></g>
<g><path style="opacity:1" fill="#060505" d="M 195.5,363.5 C 189.797,364.822 186.131,362.822 184.5,357.5C 184.334,352.156 184.501,346.823 185,341.5C 186.167,340.333 187.333,339.167 188.5,338C 197.494,337.17 201.16,341.337 199.5,350.5C 200.266,355.586 198.933,359.919 195.5,363.5 Z"/></g>
<g><path style="opacity:1" fill="#060405" d="M 234.5,349.5 C 239.538,348.448 243.538,349.948 246.5,354C 254.574,358.252 261.574,356.918 267.5,350C 276.333,348.167 279.833,351.667 278,360.5C 265.937,372.941 252.437,374.774 237.5,366C 234.168,363.511 231.834,360.344 230.5,356.5C 231.071,353.687 232.404,351.354 234.5,349.5 Z"/></g>
<g><path style="opacity:1" fill="#fefdfe" d="M 182.5,356.5 C 182.842,357.338 183.508,357.672 184.5,357.5C 186.131,362.822 189.797,364.822 195.5,363.5C 197.463,364.96 199.296,366.627 201,368.5C 206.39,379.835 204.224,389.502 194.5,397.5C 186.479,402.227 177.812,404.06 168.5,403C 151.648,399.508 144.148,389.342 146,372.5C 154.356,358.976 166.522,353.643 182.5,356.5 Z"/></g>
<g><path style="opacity:1" fill="#fefefe" d="M 326.5,357.5 C 326.986,361.585 329.32,363.585 333.5,363.5C 337.154,363.52 339.488,361.853 340.5,358.5C 351.462,357.61 359.295,362.61 364,373.5C 366.003,384.658 362.17,393.158 352.5,399C 337.428,406.315 323.595,404.481 311,393.5C 302.264,380.894 304.097,370.06 316.5,361C 319.561,358.965 322.895,357.799 326.5,357.5 Z"/></g>
</svg>
