<?xml version="1.0" encoding="UTF-8"?>
<!DOCTYPE svg PUBLIC "-//W3C//DTD SVG 1.1//EN" "http://www.w3.org/Graphics/SVG/1.1/DTD/svg11.dtd">
<svg xmlns="http://www.w3.org/2000/svg" version="1.1" width="512px" height="512px" style="shape-rendering:geometricPrecision; text-rendering:geometricPrecision; image-rendering:optimizeQuality; fill-rule:evenodd; clip-rule:evenodd" xmlns:xlink="http://www.w3.org/1999/xlink">
<g><path style="opacity:0.968" fill="#010101" d="M 419.5,-0.5 C 427.167,-0.5 434.833,-0.5 442.5,-0.5C 454.114,1.9737 464.447,7.14037 473.5,15C 485.486,25.6444 495.986,37.4777 505,50.5C 507.696,56.4298 509.863,62.4298 511.5,68.5C 511.5,76.1667 511.5,83.8333 511.5,91.5C 509.137,100.735 505.303,109.401 500,117.5C 491.864,126.637 483.364,135.47 474.5,144C 479.119,158.519 476.453,171.519 466.5,183C 486.967,209.36 491.133,238.193 479,269.5C 475.795,276.691 471.795,283.358 467,289.5C 437.5,319 408,348.5 378.5,378C 364.555,385.473 352.055,383.64 341,372.5C 333.667,361.5 333.667,350.5 341,339.5C 369,311.5 397,283.5 425,255.5C 432.924,245.004 433.924,234.004 428,222.5C 380.167,269.667 332.333,316.833 284.5,364C 263.418,375.541 242.084,386.541 220.5,397C 213.1,405.07 205.1,412.404 196.5,419C 183.288,423.986 171.788,421.486 162,411.5C 145.074,426.606 138.241,445.439 141.5,468C 140.829,487.005 131.162,498.338 112.5,502C 88.9788,504.855 65.6455,508.022 42.5,511.5C 36.1667,511.5 29.8333,511.5 23.5,511.5C 11.8333,507.167 3.83333,499.167 -0.5,487.5C -0.5,481.167 -0.5,474.833 -0.5,468.5C 2.97761,444.687 6.14427,420.687 9,396.5C 11.6056,384.105 18.7723,375.605 30.5,371C 41.4424,369.76 52.4424,369.093 63.5,369C 77.4591,366.773 88.9591,360.273 98,349.5C 94.3626,344.893 91.6959,339.559 90,333.5C 88.2372,324.427 89.9038,316.094 95,308.5C 101.333,302.167 107.667,295.833 114,289.5C 124.505,267.822 135.505,246.489 147,225.5C 172.805,198.695 198.972,172.195 225.5,146C 229.066,143.883 232.4,144.05 235.5,146.5C 237.463,149.518 237.963,152.851 237,156.5C 211.472,181.695 186.305,207.195 161.5,233C 200.333,271.833 239.167,310.667 278,349.5C 287.036,340.632 295.869,331.632 304.5,322.5C 355.654,271.845 406.488,221.178 457,170.5C 463.297,160.236 462.964,150.236 456,140.5C 451.667,136.167 447.333,131.833 443,127.5C 440.88,124.303 441.047,121.303 443.5,118.5C 445.559,115.851 448.225,115.018 451.5,116C 456.649,120.315 461.649,124.815 466.5,129.5C 475.931,121.572 484.098,112.572 491,102.5C 501.671,77.5196 496.505,56.5196 475.5,39.5C 467.337,29.4978 457.337,21.9978 445.5,17C 427.356,11.5368 411.356,15.2035 397.5,28C 391.985,33.348 386.652,38.848 381.5,44.5C 389.854,53.521 398.521,62.1877 407.5,70.5C 415.131,78.6316 422.964,86.6316 431,94.5C 431.847,98.0723 431.347,101.406 429.5,104.5C 426.555,105.468 423.555,105.634 420.5,105C 403.833,88.3333 387.167,71.6667 370.5,55C 360.718,48.1552 350.718,47.8219 340.5,54C 328.661,64.6724 317.328,75.839 306.5,87.5C 290.701,102.798 275.035,118.298 259.5,134C 256.019,135.999 252.685,135.832 249.5,133.5C 247.033,130.02 246.866,126.353 249,122.5C 275.167,96.3333 301.333,70.1667 327.5,44C 339.371,34.573 352.537,32.073 367,36.5C 375.53,27.6359 384.363,19.1359 393.5,11C 401.599,5.69666 410.265,1.86333 419.5,-0.5 Z"/></g>
<g><path style="opacity:1" fill="#4e4b5d" d="M 475.5,39.5 C 457.787,35.4297 441.787,38.9297 427.5,50C 420.631,56.7018 413.964,63.5351 407.5,70.5C 398.521,62.1877 389.854,53.521 381.5,44.5C 386.652,38.848 391.985,33.348 397.5,28C 411.356,15.2035 427.356,11.5368 445.5,17C 457.337,21.9978 467.337,29.4978 475.5,39.5 Z"/></g>
<g><path style="opacity:1" fill="#5b566d" d="M 475.5,39.5 C 496.505,56.5196 501.671,77.5196 491,102.5C 484.098,112.572 475.931,121.572 466.5,129.5C 461.649,124.815 456.649,120.315 451.5,116C 448.225,115.018 445.559,115.851 443.5,118.5C 439.833,112.833 435.167,108.167 429.5,104.5C 431.347,101.406 431.847,98.0723 431,94.5C 422.964,86.6316 415.131,78.6316 407.5,70.5C 413.964,63.5351 420.631,56.7018 427.5,50C 441.787,38.9297 457.787,35.4297 475.5,39.5 Z"/></g>
<g><path style="opacity:1" fill="#7c84d6" d="M 429.5,104.5 C 435.167,108.167 439.833,112.833 443.5,118.5C 441.047,121.303 440.88,124.303 443,127.5C 447.333,131.833 451.667,136.167 456,140.5C 462.964,150.236 463.297,160.236 457,170.5C 406.488,221.178 355.654,271.845 304.5,322.5C 300.694,310.069 297.694,297.403 295.5,284.5C 301.887,276.617 304.721,267.617 304,257.5C 301.649,249.984 296.816,244.984 289.5,242.5C 288.287,190.259 294.287,138.759 307.5,88C 307.272,87.6012 306.938,87.4346 306.5,87.5C 317.328,75.839 328.661,64.6724 340.5,54C 350.718,47.8219 360.718,48.1552 370.5,55C 387.167,71.6667 403.833,88.3333 420.5,105C 423.555,105.634 426.555,105.468 429.5,104.5 Z"/></g>
<g><path style="opacity:0.999" fill="#6b68d6" d="M 306.5,87.5 C 306.938,87.4346 307.272,87.6012 307.5,88C 294.287,138.759 288.287,190.259 289.5,242.5C 286.833,242.5 284.167,242.5 281.5,242.5C 281.66,240.801 281.494,239.134 281,237.5C 277.167,233.667 273.333,229.833 269.5,226C 261.412,223.125 257.579,225.958 258,234.5C 261.336,238.668 264.836,242.668 268.5,246.5C 252.077,256.269 247.577,269.936 255,287.5C 262.781,295.852 271.948,297.685 282.5,293C 287.256,290.731 291.59,287.897 295.5,284.5C 297.694,297.403 300.694,310.069 304.5,322.5C 295.869,331.632 287.036,340.632 278,349.5C 239.167,310.667 200.333,271.833 161.5,233C 186.305,207.195 211.472,181.695 237,156.5C 237.963,152.851 237.463,149.518 235.5,146.5C 240.167,142.167 244.833,137.833 249.5,133.5C 252.685,135.832 256.019,135.999 259.5,134C 275.035,118.298 290.701,102.798 306.5,87.5 Z"/></g>
<g><path style="opacity:1" fill="#fda0ac" d="M 364.5,159.5 C 369.478,156.46 370.811,152.126 368.5,146.5C 378.269,130.077 391.936,125.577 409.5,133C 417.852,140.781 419.685,149.948 415,160.5C 407.21,176.977 394.377,183.81 376.5,181C 367.703,176.578 363.703,169.412 364.5,159.5 Z"/></g>
<g><path style="opacity:1" fill="#050407" d="M 368.5,146.5 C 370.811,152.126 369.478,156.46 364.5,159.5C 362.801,159.66 361.134,159.494 359.5,159C 355.667,155.167 351.833,151.333 348,147.5C 345.125,139.412 347.958,135.579 356.5,136C 360.668,139.336 364.668,142.836 368.5,146.5 Z"/></g>
<g><path style="opacity:1" fill="#020203" d="M 326.5,176.5 C 330.426,176.047 333.592,177.38 336,180.5C 338.166,195.669 332.333,206.502 318.5,213C 313.238,214.439 307.904,214.772 302.5,214C 297.274,209.585 297.274,205.251 302.5,201C 316,200.833 322.833,194 323,180.5C 324.376,179.295 325.542,177.962 326.5,176.5 Z"/></g>
<g><path style="opacity:1" fill="#5b566c" d="M 454.5,194.5 C 462.16,202.147 466.993,211.48 469,222.5C 472.371,244.046 467.371,263.379 454,280.5C 425.833,308.667 397.667,336.833 369.5,365C 362.203,369.2 356.37,367.7 352,360.5C 351.163,356.705 351.496,353.039 353,349.5C 382.361,320.472 411.361,291.139 440,261.5C 450.141,244.32 449.974,227.32 439.5,210.5C 444.522,205.146 449.522,199.813 454.5,194.5 Z"/></g>
<g><path style="opacity:1" fill="#040307" d="M 281.5,242.5 C 278.46,247.478 274.126,248.811 268.5,246.5C 264.836,242.668 261.336,238.668 258,234.5C 257.579,225.958 261.412,223.125 269.5,226C 273.333,229.833 277.167,233.667 281,237.5C 281.494,239.134 281.66,240.801 281.5,242.5 Z"/></g>
<g><path style="opacity:1" fill="#fda0ac" d="M 281.5,242.5 C 284.167,242.5 286.833,242.5 289.5,242.5C 296.816,244.984 301.649,249.984 304,257.5C 304.721,267.617 301.887,276.617 295.5,284.5C 291.59,287.897 287.256,290.731 282.5,293C 271.948,297.685 262.781,295.852 255,287.5C 247.577,269.936 252.077,256.269 268.5,246.5C 274.126,248.811 278.46,247.478 281.5,242.5 Z"/></g>
<g><path style="opacity:1" fill="#f6cd61" d="M 177.5,270.5 C 169.5,285.833 161.5,301.167 153.5,316.5C 145.347,308.847 137.347,301.014 129.5,293C 136.864,277.772 144.364,262.605 152,247.5C 152.718,246.549 153.551,246.383 154.5,247C 162.369,254.702 170.036,262.535 177.5,270.5 Z"/></g>
<g><path style="opacity:1" fill="#f6e669" d="M 177.5,270.5 C 206.812,299.146 235.812,328.146 264.5,357.5C 248.99,365.755 233.323,373.755 217.5,381.5C 196.146,359.813 174.812,338.146 153.5,316.5C 161.5,301.167 169.5,285.833 177.5,270.5 Z"/></g>
<g><path style="opacity:1" fill="#6b68d5" d="M 144.5,330.5 C 137.718,335.777 132.218,342.111 128,349.5C 127.506,351.134 127.34,352.801 127.5,354.5C 120.535,348.036 113.702,341.369 107,334.5C 103.667,329.167 103.667,323.833 107,318.5C 111.333,314.167 115.667,309.833 120,305.5C 128.369,313.702 136.536,322.035 144.5,330.5 Z"/></g>
<g><path style="opacity:1" fill="#7c84d6" d="M 144.5,330.5 C 164.465,349.965 184.299,369.632 204,389.5C 204.667,390.167 204.667,390.833 204,391.5C 199.833,395.667 195.667,399.833 191.5,404C 187.289,405.534 182.956,405.867 178.5,405C 160.994,388.66 143.994,371.827 127.5,354.5C 127.34,352.801 127.506,351.134 128,349.5C 132.218,342.111 137.718,335.777 144.5,330.5 Z"/></g>
<g><path style="opacity:1" fill="#f1c95f" d="M 138.5,413.5 C 126.089,399.586 113.089,386.086 99.5,373C 98.552,372.517 97.552,372.351 96.5,372.5C 100.964,368.537 105.298,364.37 109.5,360C 110.167,359.333 110.833,359.333 111.5,360C 124.333,372.833 137.167,385.667 150,398.5C 150.667,399.5 150.667,400.5 150,401.5C 145.935,405.395 142.102,409.395 138.5,413.5 Z"/></g>
<g><path style="opacity:1" fill="#f6e669" d="M 96.5,372.5 C 97.552,372.351 98.552,372.517 99.5,373C 113.089,386.086 126.089,399.586 138.5,413.5C 127.113,432.196 122.613,452.529 125,474.5C 123.65,479.185 120.817,482.685 116.5,485C 93.2552,488.858 69.9219,492.192 46.5,495C 40.1697,495.819 33.8363,496.152 27.5,496C 27.1667,495.667 26.8333,495.333 26.5,495C 34.8333,486.667 43.1667,478.333 51.5,470C 62.4996,473.375 71.9996,470.875 80,462.5C 88.2447,445.822 83.7447,433.989 66.5,427C 53.6649,425.334 44.8315,430.501 40,442.5C 39.2215,448.354 39.5549,454.02 41,459.5C 32.6667,467.833 24.3333,476.167 16,484.5C 14.4049,480.354 14.0716,476.02 15,471.5C 18.494,447.548 21.494,423.548 24,399.5C 25.2878,392.21 29.4545,387.377 36.5,385C 58.0121,387.786 78.0121,383.62 96.5,372.5 Z"/></g>
<g><path style="opacity:1" fill="#585369" d="M 58.5,441.5 C 65.8312,441 69.3312,444.333 69,451.5C 65.7023,456.774 61.369,457.774 56,454.5C 53.4582,449.438 54.2915,445.105 58.5,441.5 Z"/></g>
</svg>
