<?xml version="1.0" encoding="UTF-8"?>
<!DOCTYPE svg PUBLIC "-//W3C//DTD SVG 1.1//EN" "http://www.w3.org/Graphics/SVG/1.1/DTD/svg11.dtd">
<svg xmlns="http://www.w3.org/2000/svg" version="1.1" width="512px" height="512px" style="shape-rendering:geometricPrecision; text-rendering:geometricPrecision; image-rendering:optimizeQuality; fill-rule:evenodd; clip-rule:evenodd" xmlns:xlink="http://www.w3.org/1999/xlink">
<g><path style="opacity:0.989" fill="#010101" d="M 380.5,63.5 C 378.96,66.9429 376.293,68.9429 372.5,69.5C 366.647,67.5368 360.647,66.2035 354.5,65.5C 349.033,64.0204 343.367,62.8537 337.5,62C 308.723,56.8492 284.056,64.3492 263.5,84.5C 262.168,170.334 262.168,256.334 263.5,342.5C 264.107,342.376 264.44,342.043 264.5,341.5C 288.149,325.404 314.149,320.237 342.5,326C 356.957,328.698 371.29,331.865 385.5,335.5C 405.211,342.842 425.544,348.175 446.5,351.5C 447.568,352.434 448.901,352.768 450.5,352.5C 450.833,265.998 450.499,179.665 449.5,93.5C 449.084,91.2475 447.751,89.7475 445.5,89C 431.72,86.1384 418.054,82.8051 404.5,79C 400.315,76.8017 398.315,73.3017 398.5,68.5C 400.138,65.3767 402.805,63.71 406.5,63.5C 420.967,67.8269 435.634,71.3269 450.5,74C 460.371,78.2406 465.371,85.7406 465.5,96.5C 489.063,95.1203 504.396,105.454 511.5,127.5C 511.5,226.5 511.5,325.5 511.5,424.5C 507.348,440.152 497.348,449.985 481.5,454C 419.168,454.5 356.834,454.667 294.5,454.5C 292.942,467.884 285.942,477.05 273.5,482C 263.218,483.536 252.885,483.87 242.5,483C 226.701,480.034 218.035,470.534 216.5,454.5C 178.832,454.667 141.165,454.5 103.5,454C 100.778,452.728 99.4443,450.561 99.5,447.5C 99.6423,444.383 100.976,441.883 103.5,440C 131.498,439.5 159.498,439.333 187.5,439.5C 197.167,439.5 206.833,439.5 216.5,439.5C 217.494,429.013 217.828,418.346 217.5,407.5C 168.833,407.5 120.167,407.5 71.5,407.5C 57.5729,404.74 49.0729,396.407 46,382.5C 45.5,292.501 45.3333,202.501 45.5,112.5C 30.4292,110.444 20.2625,116.444 15,130.5C 14.3333,227.5 14.3333,324.5 15,421.5C 17.4013,429.135 22.2347,434.635 29.5,438C 44.4324,439.285 59.4324,439.952 74.5,440C 77.8923,441.542 79.8923,444.042 80.5,447.5C 80.1614,450.669 78.4948,452.836 75.5,454C 58.7798,454.941 42.1132,454.607 25.5,453C 11.8895,447.903 3.22279,438.403 -0.5,424.5C -0.5,325.167 -0.5,225.833 -0.5,126.5C 7.0542,105.031 22.3875,95.031 45.5,96.5C 45.1184,87.4673 48.785,80.634 56.5,76C 70.4287,72.3131 84.4287,68.8131 98.5,65.5C 96.886,52.5008 100.886,41.6674 110.5,33C 114.814,30.3399 119.481,28.6732 124.5,28C 144.5,27.3333 164.5,27.3333 184.5,28C 195.917,30.0392 203.917,36.3726 208.5,47C 226.284,50.2267 241.951,57.7267 255.5,69.5C 277.338,50.7229 302.671,42.8895 331.5,46C 347.16,47.3319 362.493,50.3319 377.5,55C 379.93,57.3046 380.93,60.1379 380.5,63.5 Z"/></g>
<g><path style="opacity:1" fill="#fc5b6e" d="M 150.5,43.5 C 136.416,71.8409 132.916,101.508 140,132.5C 143.425,144.611 147.925,156.278 153.5,167.5C 150.206,167.259 147.206,168.092 144.5,170C 137.167,178.333 129.833,186.667 122.5,195C 119.364,196.041 116.864,195.207 115,192.5C 114.333,145.833 114.333,99.1667 115,52.5C 116.442,48.7251 118.942,45.8917 122.5,44C 131.827,43.5002 141.161,43.3335 150.5,43.5 Z"/></g>
<g><path style="opacity:1" fill="#fd6d7e" d="M 150.5,43.5 C 161.838,43.3335 173.172,43.5001 184.5,44C 189.333,45.5 192.5,48.6667 194,53.5C 194.667,99.5 194.667,145.5 194,191.5C 192.179,194.991 189.346,196.157 185.5,195C 178.833,187 172.167,179 165.5,171C 161.911,168.369 157.911,167.203 153.5,167.5C 147.925,156.278 143.425,144.611 140,132.5C 132.916,101.508 136.416,71.8409 150.5,43.5 Z"/></g>
<g><path style="opacity:1" fill="#d6dcf4" d="M 354.5,65.5 C 327.703,115.961 319.869,169.294 331,225.5C 339.911,266.987 358.077,303.653 385.5,335.5C 371.29,331.865 356.957,328.698 342.5,326C 314.149,320.237 288.149,325.404 264.5,341.5C 263.501,256.002 263.167,170.335 263.5,84.5C 284.056,64.3492 308.723,56.8492 337.5,62C 343.367,62.8537 349.033,64.0204 354.5,65.5 Z"/></g>
<g><path style="opacity:1" fill="#4e4f51" d="M 210.5,63.5 C 209.833,106.833 209.167,150.167 208.5,193.5C 208.167,149.828 208.5,106.162 209.5,62.5C 210.107,62.6236 210.44,62.9569 210.5,63.5 Z"/></g>
<g><path style="opacity:1" fill="#f2f4fb" d="M 210.5,63.5 C 225.123,66.6401 237.457,73.6401 247.5,84.5C 247.833,170.335 247.499,256.002 246.5,341.5C 231.797,331.265 215.464,325.599 197.5,324.5C 194.878,323.967 192.378,322.967 190,321.5C 161.957,283.88 146.457,241.546 143.5,194.5C 146.285,190.542 149.285,186.709 152.5,183C 153.833,182.333 155.167,182.333 156.5,183C 162.833,190.667 169.167,198.333 175.5,206C 186.206,212.736 196.039,211.569 205,202.5C 206.741,199.691 207.908,196.691 208.5,193.5C 209.167,150.167 209.833,106.833 210.5,63.5 Z"/></g>
<g><path style="opacity:1" fill="#f2f4fb" d="M 380.5,63.5 C 386.5,65.1667 392.5,66.8333 398.5,68.5C 398.315,73.3017 400.315,76.8017 404.5,79C 418.054,82.8051 431.72,86.1384 445.5,89C 447.751,89.7475 449.084,91.2475 449.5,93.5C 449.5,179.5 449.5,265.5 449.5,351.5C 448.5,351.5 447.5,351.5 446.5,351.5C 425.544,348.175 405.211,342.842 385.5,335.5C 358.077,303.653 339.911,266.987 331,225.5C 319.869,169.294 327.703,115.961 354.5,65.5C 360.647,66.2035 366.647,67.5368 372.5,69.5C 376.293,68.9429 378.96,66.9429 380.5,63.5 Z"/></g>
<g><path style="opacity:1" fill="#d6dcf4" d="M 143.5,194.5 C 146.457,241.546 161.957,283.88 190,321.5C 192.378,322.967 194.878,323.967 197.5,324.5C 177.451,323.968 157.784,326.468 138.5,332C 118.849,337.661 99.1822,343.327 79.5,349C 73.2154,350.27 66.882,351.103 60.5,351.5C 60.3333,265.499 60.5,179.499 61,93.5C 62.2506,90.6193 64.4173,88.786 67.5,88C 78.2473,86.1457 88.9139,83.9791 99.5,81.5C 99.0241,120.215 99.5241,158.881 101,197.5C 108.138,210.324 118.305,213.49 131.5,207C 135.676,202.991 139.676,198.824 143.5,194.5 Z"/></g>
<g><path style="opacity:1" fill="#797a7e" d="M 247.5,84.5 C 248.832,170.334 248.832,256.334 247.5,342.5C 246.893,342.376 246.56,342.043 246.5,341.5C 247.499,256.002 247.833,170.335 247.5,84.5 Z"/></g>
<g><path style="opacity:1" fill="#6b6e7a" d="M 263.5,84.5 C 263.167,170.335 263.501,256.002 264.5,341.5C 264.44,342.043 264.107,342.376 263.5,342.5C 262.168,256.334 262.168,170.334 263.5,84.5 Z"/></g>
<g><path style="opacity:1" fill="#dfe1e7" d="M 449.5,93.5 C 450.499,179.665 450.833,265.998 450.5,352.5C 448.901,352.768 447.568,352.434 446.5,351.5C 447.5,351.5 448.5,351.5 449.5,351.5C 449.5,265.5 449.5,179.5 449.5,93.5 Z"/></g>
<g><path style="opacity:0.999" fill="#d87b40" d="M 71.5,407.5 C 98.995,408.498 126.662,408.831 154.5,408.5C 165.198,419.2 176.198,429.533 187.5,439.5C 159.498,439.333 131.498,439.5 103.5,440C 100.976,441.883 99.6423,444.383 99.5,447.5C 93.1667,447.5 86.8333,447.5 80.5,447.5C 79.8923,444.042 77.8923,441.542 74.5,440C 59.4324,439.952 44.4324,439.285 29.5,438C 22.2347,434.635 17.4013,429.135 15,421.5C 14.3333,324.5 14.3333,227.5 15,130.5C 20.2625,116.444 30.4292,110.444 45.5,112.5C 45.3333,202.501 45.5,292.501 46,382.5C 49.0729,396.407 57.5729,404.74 71.5,407.5 Z"/></g>
<g><path style="opacity:1" fill="#e3986c" d="M 294.5,439.5 C 294.5,429.167 294.5,418.833 294.5,408.5C 343.003,408.832 391.336,408.499 439.5,407.5C 453.427,404.74 461.927,396.407 465,382.5C 465.5,292.501 465.667,202.501 465.5,112.5C 480.596,110.455 490.763,116.455 496,130.5C 496.667,227.5 496.667,324.5 496,421.5C 493.124,431.357 486.624,437.19 476.5,439C 415.834,439.5 355.168,439.667 294.5,439.5 Z"/></g>
<g><path style="opacity:1" fill="#070809" d="M 291.5,176.5 C 295.594,175.705 298.761,177.038 301,180.5C 301.667,186.5 301.667,192.5 301,198.5C 295.854,205.406 291.187,205.073 287,197.5C 286.333,192.167 286.333,186.833 287,181.5C 288.025,179.313 289.525,177.646 291.5,176.5 Z"/></g>
<g><path style="opacity:1" fill="#070708" d="M 415.5,176.5 C 419.909,175.618 423.409,176.952 426,180.5C 426.667,186.5 426.667,192.5 426,198.5C 420.854,205.406 416.187,205.073 412,197.5C 411.333,192.167 411.333,186.833 412,181.5C 412.997,179.677 414.164,178.01 415.5,176.5 Z"/></g>
<g><path style="opacity:1" fill="#060606" d="M 336.5,188.5 C 341.437,187.603 345.437,189.103 348.5,193C 356.431,196.92 363.431,195.586 369.5,189C 377.791,187.045 381.291,190.212 380,198.5C 375.318,205.263 368.818,209.097 360.5,210C 349.718,211.406 340.884,207.906 334,199.5C 331.584,195.078 332.417,191.411 336.5,188.5 Z"/></g>
<g><path style="opacity:1" fill="#c3cdef" d="M 173.5,339.5 C 202.13,335.523 226.963,343.189 248,362.5C 248.5,372.494 248.666,382.494 248.5,392.5C 188.832,392.667 129.166,392.5 69.5,392C 65.6119,389.778 62.7786,386.612 61,382.5C 60.5006,377.177 60.334,371.844 60.5,366.5C 68.9149,365.987 77.2482,364.82 85.5,363C 114.555,353.584 143.888,345.751 173.5,339.5 Z"/></g>
<g><path style="opacity:1" fill="#c3cdef" d="M 305.5,339.5 C 321.649,338.814 337.649,339.981 353.5,343C 374.96,348.599 396.294,354.599 417.5,361C 428.376,363.813 439.376,365.979 450.5,367.5C 450.851,373.262 450.351,378.928 449,384.5C 447.108,388.058 444.275,390.558 440.5,392C 381.168,392.5 321.834,392.667 262.5,392.5C 262.334,382.494 262.5,372.494 263,362.5C 275.013,350.745 289.18,343.078 305.5,339.5 Z"/></g>
<g><path style="opacity:1" fill="#905c3c" d="M 71.5,407.5 C 120.167,407.5 168.833,407.5 217.5,407.5C 217.828,418.346 217.494,429.013 216.5,439.5C 216.5,429.167 216.5,418.833 216.5,408.5C 195.833,408.5 175.167,408.5 154.5,408.5C 126.662,408.831 98.995,408.498 71.5,407.5 Z"/></g>
<g><path style="opacity:1" fill="#936346" d="M 439.5,407.5 C 391.336,408.499 343.003,408.832 294.5,408.5C 294.5,418.833 294.5,429.167 294.5,439.5C 293.506,429.013 293.172,418.346 293.5,407.5C 342.167,407.5 390.833,407.5 439.5,407.5 Z"/></g>
<g><path style="opacity:1" fill="#e3986c" d="M 154.5,408.5 C 175.167,408.5 195.833,408.5 216.5,408.5C 216.5,418.833 216.5,429.167 216.5,439.5C 206.833,439.5 197.167,439.5 187.5,439.5C 176.198,429.533 165.198,419.2 154.5,408.5 Z"/></g>
<g><path style="opacity:1" fill="#343e55" d="M 278.5,455.5 C 278.5,439.833 278.5,424.167 278.5,408.5C 263.167,408.5 247.833,408.5 232.5,408.5C 232.5,423.833 232.5,439.167 232.5,454.5C 231.504,439.009 231.17,423.342 231.5,407.5C 247.5,407.5 263.5,407.5 279.5,407.5C 279.83,423.675 279.496,439.675 278.5,455.5 Z"/></g>
<g><path style="opacity:1" fill="#677ca9" d="M 278.5,455.5 C 277.555,459.942 275.221,463.442 271.5,466C 266.08,467.091 260.58,467.591 255,467.5C 249.725,467.616 244.558,467.116 239.5,466C 235.322,463.315 232.988,459.482 232.5,454.5C 232.5,439.167 232.5,423.833 232.5,408.5C 247.833,408.5 263.167,408.5 278.5,408.5C 278.5,424.167 278.5,439.833 278.5,455.5 Z"/></g>
</svg>
