<?xml version="1.0" encoding="UTF-8"?>
<!DOCTYPE svg PUBLIC "-//W3C//DTD SVG 1.1//EN" "http://www.w3.org/Graphics/SVG/1.1/DTD/svg11.dtd">
<svg xmlns="http://www.w3.org/2000/svg" version="1.1" width="512px" height="512px" style="shape-rendering:geometricPrecision; text-rendering:geometricPrecision; image-rendering:optimizeQuality; fill-rule:evenodd; clip-rule:evenodd" xmlns:xlink="http://www.w3.org/1999/xlink">
<g><path style="opacity:0.959" fill="#000000" d="M 276.5,-0.5 C 283.5,-0.5 290.5,-0.5 297.5,-0.5C 326.145,7.31098 341.978,25.9776 345,55.5C 343.624,56.7051 342.458,58.0384 341.5,59.5C 337.808,60.0288 334.642,59.0288 332,56.5C 328.962,43.2481 322.462,32.0814 312.5,23C 299.048,13.8245 284.714,12.1579 269.5,18C 223.51,34.9403 177.51,51.7736 131.5,68.5C 117.152,73.561 102.819,78.7276 88.5,84C 70.3883,92.3917 61.5549,106.558 62,126.5C 62.2625,131.005 63.2625,135.339 65,139.5C 102.53,241.757 139.863,344.09 177,446.5C 178.606,451.515 177.106,455.181 172.5,457.5C 168.773,458.648 165.606,457.648 163,454.5C 123.761,347.358 85.094,240.025 47,132.5C 44.3181,103.687 55.8181,82.8539 81.5,70C 146.511,46.1664 211.511,22.6664 276.5,-0.5 Z"/></g>
<g><path style="opacity:0.999" fill="#484f57" d="M 341.5,59.5 C 343.502,65.1715 345.502,70.8382 347.5,76.5C 343.276,78.9593 341.776,82.626 343,87.5C 377,180.833 411,274.167 445,367.5C 455.264,396.799 446.097,417.299 417.5,429C 395.586,437.126 373.586,444.959 351.5,452.5C 345.204,450.856 339.204,448.356 333.5,445C 332.748,444.329 332.414,443.496 332.5,442.5C 361.698,432.236 390.698,421.403 419.5,410C 431.29,400.29 434.79,388.123 430,373.5C 390.333,264.833 350.667,156.167 311,47.5C 303.923,35.5452 293.423,30.3785 279.5,32C 262.947,37.4064 246.614,43.4064 230.5,50C 226.961,51.9069 224.461,54.7403 223,58.5C 222.042,65.5284 221.042,72.5284 220,79.5C 203.489,85.8929 186.822,91.8929 170,97.5C 164.927,94.7645 160.76,90.9312 157.5,86C 149.838,80.6459 141.838,80.1459 133.5,84.5C 131.87,82.9739 131.037,80.9739 131,78.5C 130.253,75.0764 130.42,71.7431 131.5,68.5C 177.51,51.7736 223.51,34.9403 269.5,18C 284.714,12.1579 299.048,13.8245 312.5,23C 322.462,32.0814 328.962,43.2481 332,56.5C 334.642,59.0288 337.808,60.0288 341.5,59.5 Z"/></g>
<g><path style="opacity:1" fill="#010203" d="M 332.5,442.5 C 298.9,454.756 265.233,466.923 231.5,479C 219.439,480.223 209.606,476.056 202,466.5C 160.94,355.32 120.273,243.987 80,132.5C 77.3051,119.582 81.1384,109.082 91.5,101C 105.402,94.9826 119.402,89.4826 133.5,84.5C 141.838,80.1459 149.838,80.6459 157.5,86C 160.76,90.9312 164.927,94.7645 170,97.5C 186.822,91.8929 203.489,85.8929 220,79.5C 221.042,72.5284 222.042,65.5284 223,58.5C 224.461,54.7403 226.961,51.9069 230.5,50C 246.614,43.4064 262.947,37.4064 279.5,32C 293.423,30.3785 303.923,35.5452 311,47.5C 350.667,156.167 390.333,264.833 430,373.5C 434.79,388.123 431.29,400.29 419.5,410C 390.698,421.403 361.698,432.236 332.5,442.5 Z"/></g>
<g><path style="opacity:1" fill="#7d9adc" d="M 313.5,433.5 C 294.581,420.513 276.915,405.846 260.5,389.5C 258.713,385.925 256.879,382.259 255,378.5C 252.227,375.864 249.06,373.864 245.5,372.5C 241.091,368.003 237.424,363.003 234.5,357.5C 241.956,350.042 243.456,341.376 239,331.5C 237.2,323.746 233.7,316.913 228.5,311C 222.886,307.791 216.886,306.791 210.5,308C 207.978,309.341 205.311,310.174 202.5,310.5C 194.344,294.522 187.01,278.188 180.5,261.5C 190.575,256.704 196.241,248.704 197.5,237.5C 196.469,228.806 191.803,223.139 183.5,220.5C 185.218,218.074 185.718,215.407 185,212.5C 183.891,207.105 181.391,202.605 177.5,199C 169.212,197.709 166.045,201.209 168,209.5C 169.183,212.526 170.349,215.526 171.5,218.5C 169.139,218.674 166.806,219.007 164.5,219.5C 152.163,180.486 142.497,140.82 135.5,100.5C 138.404,98.8051 141.571,97.4718 145,96.5C 149.789,100.286 154.289,104.453 158.5,109C 163.399,112.225 168.732,113.225 174.5,112C 192.654,105.727 210.654,99.06 228.5,92C 235.789,84.3595 238.622,75.1928 237,64.5C 237.833,63.6667 238.667,62.8333 239.5,62C 253.5,57 267.5,52 281.5,47C 287.951,45.9723 293.118,48.139 297,53.5C 338.027,163.881 378.193,274.547 417.5,385.5C 417.114,391.723 414.114,396.223 408.5,399C 376.767,410.41 345.1,421.91 313.5,433.5 Z"/></g>
<g><path style="opacity:1" fill="#040505" d="M 186.5,68.5 C 192.523,67.1966 196.189,69.53 197.5,75.5C 195.374,82.3138 191.208,83.9804 185,80.5C 182.66,76.0521 183.16,72.0521 186.5,68.5 Z"/></g>
<g><path style="opacity:1" fill="#40454d" d="M 131.5,68.5 C 130.42,71.7431 130.253,75.0764 131,78.5C 131.037,80.9739 131.87,82.9739 133.5,84.5C 119.402,89.4826 105.402,94.9826 91.5,101C 81.1384,109.082 77.3051,119.582 80,132.5C 120.273,243.987 160.94,355.32 202,466.5C 209.606,476.056 219.439,480.223 231.5,479C 265.233,466.923 298.9,454.756 332.5,442.5C 332.414,443.496 332.748,444.329 333.5,445C 339.204,448.356 345.204,450.856 351.5,452.5C 315.03,466.222 278.363,479.722 241.5,493C 219.304,500.564 201.304,494.898 187.5,476C 184.584,474.182 181.584,474.016 178.5,475.5C 176.302,469.574 174.302,463.574 172.5,457.5C 177.106,455.181 178.606,451.515 177,446.5C 139.863,344.09 102.53,241.757 65,139.5C 63.2625,135.339 62.2625,131.005 62,126.5C 61.5549,106.558 70.3883,92.3917 88.5,84C 102.819,78.7276 117.152,73.561 131.5,68.5 Z"/></g>
<g><path style="opacity:0.959" fill="#000000" d="M 347.5,76.5 C 351.426,76.0466 354.592,77.3799 357,80.5C 393.463,179.222 429.129,278.222 464,377.5C 467.514,407.981 455.347,429.481 427.5,442C 363.505,465.495 299.505,488.662 235.5,511.5C 228.167,511.5 220.833,511.5 213.5,511.5C 199.668,508.493 188.168,501.493 179,490.5C 174.678,485.495 174.511,480.495 178.5,475.5C 181.584,474.016 184.584,474.182 187.5,476C 201.304,494.898 219.304,500.564 241.5,493C 278.363,479.722 315.03,466.222 351.5,452.5C 373.586,444.959 395.586,437.126 417.5,429C 446.097,417.299 455.264,396.799 445,367.5C 411,274.167 377,180.833 343,87.5C 341.776,82.626 343.276,78.9593 347.5,76.5 Z"/></g>
<g><path style="opacity:1" fill="#597bca" d="M 135.5,100.5 C 142.497,140.82 152.163,180.486 164.5,219.5C 147.824,225.202 141.324,236.535 145,253.5C 151.633,262.272 160.466,265.772 171.5,264C 174.432,262.855 177.432,262.022 180.5,261.5C 187.01,278.188 194.344,294.522 202.5,310.5C 197.893,312.548 193.227,314.715 188.5,317C 181.977,322.004 179.81,328.504 182,336.5C 184.444,344.719 187.444,352.719 191,360.5C 196.489,366.824 203.322,368.991 211.5,367C 219.351,364.11 227.017,360.943 234.5,357.5C 237.424,363.003 241.091,368.003 245.5,372.5C 242.555,371.532 239.555,371.366 236.5,372C 227.928,374.746 219.594,378.079 211.5,382C 206.166,386.67 203.999,392.503 205,399.5C 207.555,408.503 210.888,417.169 215,425.5C 222.013,432.949 230.179,434.449 239.5,430C 246.112,427.91 252.445,425.243 258.5,422C 262.747,417.94 265.08,412.94 265.5,407C 264.13,401.06 262.463,395.227 260.5,389.5C 276.915,405.846 294.581,420.513 313.5,433.5C 285.49,443.56 257.49,453.726 229.5,464C 223.576,465.124 218.742,463.291 215,458.5C 174.606,349.32 134.606,239.987 95,130.5C 92.996,123.363 94.8294,117.53 100.5,113C 111.983,108.255 123.65,104.089 135.5,100.5 Z"/></g>
<g><path style="opacity:0.918" fill="#000000" d="M 419.5,126.5 C 422.32,126.248 424.986,126.748 427.5,128C 460.343,159.547 474.176,198.047 469,243.5C 466.565,248.224 462.731,249.724 457.5,248C 455.667,247.5 454.5,246.333 454,244.5C 457.996,202.474 444.996,166.808 415,137.5C 413.776,132.626 415.276,128.959 419.5,126.5 Z"/></g>
<g><path style="opacity:0.915" fill="#000000" d="M 400.5,154.5 C 403.187,154.336 405.854,154.503 408.5,155C 433.552,177.808 442.218,205.475 434.5,238C 428.884,240.611 424.718,239.111 422,233.5C 424.15,214.435 420.15,196.769 410,180.5C 405.288,175.457 400.955,170.123 397,164.5C 396.182,160.469 397.349,157.136 400.5,154.5 Z"/></g>
<g><path style="opacity:1" fill="#040407" d="M 296.5,172.5 C 297.167,179.167 294.167,182.167 287.5,181.5C 284.909,180.746 283.076,179.079 282,176.5C 280.63,172.725 279.464,168.891 278.5,165C 279.419,159.208 282.752,156.874 288.5,158C 292.751,161.88 295.417,166.714 296.5,172.5 Z"/></g>
<g><path style="opacity:1" fill="#ef9987" d="M 287.5,181.5 C 294.167,182.167 297.167,179.167 296.5,172.5C 308.401,164.81 320.401,164.643 332.5,172C 341.292,180.949 341.792,190.449 334,200.5C 321.925,212.782 308.091,215.282 292.5,208C 285.818,201.936 283.651,194.436 286,185.5C 286.791,184.255 287.291,182.922 287.5,181.5 Z"/></g>
<g><path style="opacity:1" fill="#030406" d="M 245.5,182.5 C 255.773,183.194 258.273,188.194 253,197.5C 242.056,211.318 228.889,213.985 213.5,205.5C 209.714,198.811 211.548,194.811 219,193.5C 224.438,195.784 229.938,195.951 235.5,194C 238.969,190.188 242.302,186.355 245.5,182.5 Z"/></g>
<g><path style="opacity:1" fill="#050506" d="M 183.5,220.5 C 178.729,223.705 174.729,223.039 171.5,218.5C 170.349,215.526 169.183,212.526 168,209.5C 166.045,201.209 169.212,197.709 177.5,199C 181.391,202.605 183.891,207.105 185,212.5C 185.718,215.407 185.218,218.074 183.5,220.5 Z"/></g>
<g><path style="opacity:1" fill="#ef9987" d="M 171.5,218.5 C 174.729,223.039 178.729,223.705 183.5,220.5C 191.803,223.139 196.469,228.806 197.5,237.5C 196.241,248.704 190.575,256.704 180.5,261.5C 177.432,262.022 174.432,262.855 171.5,264C 160.466,265.772 151.633,262.272 145,253.5C 141.324,236.535 147.824,225.202 164.5,219.5C 166.806,219.007 169.139,218.674 171.5,218.5 Z"/></g>
<g><path style="opacity:1" fill="#030304" d="M 342.5,259.5 C 350.81,258.406 357.643,261.072 363,267.5C 368.1,277.328 371.1,287.661 372,298.5C 370.712,305.79 366.545,310.623 359.5,313C 353.758,314.803 348.091,316.803 342.5,319C 332.501,321.41 325.001,318.243 320,309.5C 317.667,303.167 315.333,296.833 313,290.5C 310.145,280.729 312.979,273.229 321.5,268C 328.64,265.238 335.64,262.405 342.5,259.5 Z"/></g>
<g><path style="opacity:0.922" fill="#000000" d="M 45.5,262.5 C 49.8394,261.846 53.6727,262.846 57,265.5C 52.5929,307.62 65.5929,343.287 96,372.5C 97.3205,382.512 93.1538,386.012 83.5,383C 48.5291,349.599 35.8625,309.433 45.5,262.5 Z"/></g>
<g><path style="opacity:0.919" fill="#000000" d="M 79.5,271.5 C 83.6218,271.476 86.7885,273.143 89,276.5C 86.2465,303.577 94.5799,326.577 114,345.5C 114.761,355.068 110.594,358.235 101.5,355C 79.2234,333.507 70.0567,307.34 74,276.5C 75.4055,274.256 77.2389,272.59 79.5,271.5 Z"/></g>
<g><path style="opacity:1" fill="#f2e8cc" d="M 345.5,274.5 C 347.722,274.178 349.556,274.845 351,276.5C 354.049,283.3 356.049,290.3 357,297.5C 350.35,300.162 343.684,302.829 337,305.5C 335.013,304.846 333.68,303.513 333,301.5C 330.833,295.667 328.667,289.833 326.5,284C 326.645,283.228 326.978,282.561 327.5,282C 333.641,279.572 339.641,277.072 345.5,274.5 Z"/></g>
<g><path style="opacity:1" fill="#020304" d="M 276.5,283.5 C 284.575,282.358 291.408,284.691 297,290.5C 300.911,298.56 304.245,306.894 307,315.5C 307.664,323.503 304.831,330.003 298.5,335C 291.167,337.667 283.833,340.333 276.5,343C 265.87,345.102 258.37,341.269 254,331.5C 251.667,325.167 249.333,318.833 247,312.5C 245.366,304.4 247.866,297.9 254.5,293C 261.777,289.525 269.11,286.359 276.5,283.5 Z"/></g>
<g><path style="opacity:1" fill="#a6d2ea" d="M 279.5,298.5 C 281.467,298.261 283.301,298.594 285,299.5C 288.164,306.327 290.498,313.327 292,320.5C 286.967,323.404 281.633,325.738 276,327.5C 273.88,328.459 271.713,328.626 269.5,328C 265.593,321.276 263.093,314.109 262,306.5C 267.757,303.532 273.59,300.865 279.5,298.5 Z"/></g>
<g><path style="opacity:1" fill="#030203" d="M 234.5,357.5 C 227.017,360.943 219.351,364.11 211.5,367C 203.322,368.991 196.489,366.824 191,360.5C 187.444,352.719 184.444,344.719 182,336.5C 179.81,328.504 181.977,322.004 188.5,317C 193.227,314.715 197.893,312.548 202.5,310.5C 205.311,310.174 207.978,309.341 210.5,308C 216.886,306.791 222.886,307.791 228.5,311C 233.7,316.913 237.2,323.746 239,331.5C 243.456,341.376 241.956,350.042 234.5,357.5 Z"/></g>
<g><path style="opacity:1" fill="#e9c76e" d="M 224.5,345.5 C 220.052,338.779 215.719,331.946 211.5,325C 212.056,324.617 212.389,324.117 212.5,323.5C 215.002,322.221 217.502,322.221 220,323.5C 222.47,329.744 224.637,336.077 226.5,342.5C 226.36,344.03 225.693,345.03 224.5,345.5 Z"/></g>
<g><path style="opacity:1" fill="#dfa252" d="M 212.5,323.5 C 212.389,324.117 212.056,324.617 211.5,325C 215.719,331.946 220.052,338.779 224.5,345.5C 219.387,347.934 214.054,350.1 208.5,352C 206.559,352.743 204.726,352.576 203,351.5C 201.197,345.758 199.197,340.091 197,334.5C 196.333,332.833 196.333,331.167 197,329.5C 202.056,327.204 207.222,325.204 212.5,323.5 Z"/></g>
<g><path style="opacity:1" fill="#020304" d="M 365.5,324.5 C 373.575,323.358 380.408,325.691 386,331.5C 392.087,342.082 395.087,353.415 395,365.5C 393.257,370.91 389.757,374.744 384.5,377C 377.898,379.534 371.231,381.867 364.5,384C 355.74,385.701 348.907,382.867 344,375.5C 341.667,369.167 339.333,362.833 337,356.5C 333.362,346.628 335.862,338.795 344.5,333C 351.64,330.238 358.64,327.405 365.5,324.5 Z"/></g>
<g><path style="opacity:1" fill="#94cdbe" d="M 368.5,339.5 C 370.467,339.261 372.301,339.594 374,340.5C 377.655,347.454 379.655,354.787 380,362.5C 373.128,365.904 365.961,368.071 358.5,369C 354.593,362.276 352.093,355.109 351,347.5C 356.588,344.144 362.422,341.478 368.5,339.5 Z"/></g>
<g><path style="opacity:1" fill="#030203" d="M 299.5,348.5 C 307.934,347.145 315.101,349.478 321,355.5C 326.272,365.635 329.272,376.301 330,387.5C 328.776,392.789 325.942,396.955 321.5,400C 315.167,402.333 308.833,404.667 302.5,407C 291.621,410.638 283.454,407.472 278,397.5C 275.466,390.898 273.133,384.231 271,377.5C 268.853,367.963 272.019,360.796 280.5,356C 287.052,353.767 293.385,351.267 299.5,348.5 Z"/></g>
<g><path style="opacity:1" fill="#ec9684" d="M 302.5,363.5 C 304.792,363.244 306.959,363.577 309,364.5C 312.049,371.3 314.049,378.3 315,385.5C 307.991,389.614 300.491,392.114 292.5,393C 288.894,385.857 286.728,378.357 286,370.5C 291.461,367.854 296.961,365.52 302.5,363.5 Z"/></g>
<g><path style="opacity:1" fill="#020304" d="M 245.5,372.5 C 249.06,373.864 252.227,375.864 255,378.5C 256.879,382.259 258.713,385.925 260.5,389.5C 262.463,395.227 264.13,401.06 265.5,407C 265.08,412.94 262.747,417.94 258.5,422C 252.445,425.243 246.112,427.91 239.5,430C 230.179,434.449 222.013,432.949 215,425.5C 210.888,417.169 207.555,408.503 205,399.5C 203.999,392.503 206.166,386.67 211.5,382C 219.594,378.079 227.928,374.746 236.5,372C 239.555,371.366 242.555,371.532 245.5,372.5 Z"/></g>
<g><path style="opacity:1" fill="#93ccbd" d="M 238.5,386.5 C 240.484,386.383 242.15,387.05 243.5,388.5C 246.605,395.31 248.772,402.31 250,409.5C 242.826,413.225 235.326,415.725 227.5,417C 223.98,410.104 221.48,402.937 220,395.5C 220.5,394.333 221.333,393.5 222.5,393C 228.054,391.1 233.387,388.934 238.5,386.5 Z"/></g>
</svg>
