<?xml version="1.0" encoding="UTF-8"?>
<!DOCTYPE svg PUBLIC "-//W3C//DTD SVG 1.1//EN" "http://www.w3.org/Graphics/SVG/1.1/DTD/svg11.dtd">
<svg xmlns="http://www.w3.org/2000/svg" version="1.1" width="512px" height="512px" style="shape-rendering:geometricPrecision; text-rendering:geometricPrecision; image-rendering:optimizeQuality; fill-rule:evenodd; clip-rule:evenodd" xmlns:xlink="http://www.w3.org/1999/xlink">
<g><path style="opacity:0.984" fill="#030202" d="M 296.5,-0.5 C 309.5,-0.5 322.5,-0.5 335.5,-0.5C 408.214,9.39468 461.048,47.0613 494,112.5C 502.982,133.105 508.815,154.438 511.5,176.5C 511.5,189.167 511.5,201.833 511.5,214.5C 502.958,278.943 471.625,328.943 417.5,364.5C 422.946,377.58 422.78,390.58 417,403.5C 407.548,421.632 395.048,437.466 379.5,451C 359.975,467.606 338.309,480.94 314.5,491C 310.235,492.245 306.902,491.078 304.5,487.5C 303.769,483.397 304.769,479.897 307.5,477C 322.098,471.038 335.764,463.538 348.5,454.5C 327.436,413.27 324.936,370.937 341,327.5C 343.38,322.573 345.88,317.739 348.5,313C 315.313,290.424 278.646,276.757 238.5,272C 222.53,270.488 206.53,270.155 190.5,271C 182.59,271.486 174.924,272.652 167.5,274.5C 132.762,280.017 101.096,292.851 72.5,313C 90.0461,346.401 94.5461,381.568 86,418.5C 83.0398,430.92 78.5398,442.753 72.5,454C 94.2752,469.549 118.275,480.882 144.5,488C 155.66,491.132 166.993,493.299 178.5,494.5C 195.421,496.482 212.421,496.982 229.5,496C 245.844,494.082 262.011,491.248 278,487.5C 279.967,487.542 281.801,488.042 283.5,489C 284.163,490.518 285.163,491.685 286.5,492.5C 286.953,496.426 285.62,499.592 282.5,502C 266.266,506.414 249.933,509.581 233.5,511.5C 218.167,511.5 202.833,511.5 187.5,511.5C 125.232,505.612 71.7316,480.946 27,437.5C 14.658,424.35 5.49129,409.35 -0.5,392.5C -0.5,386.5 -0.5,380.5 -0.5,374.5C 6.65717,354.716 17.9905,337.549 33.5,323C 62.1049,297.105 94.9383,278.271 132,266.5C 120.028,233.115 116.695,198.782 122,163.5C 123.171,159.163 126.004,156.83 130.5,156.5C 133.34,157.686 135.506,159.686 137,162.5C 136.517,168.459 136.017,174.459 135.5,180.5C 135.833,183.167 136.167,185.833 136.5,188.5C 139.715,186.726 143.048,185.226 146.5,184C 163.296,179.068 179.963,173.735 196.5,168C 204.112,164.861 211.446,161.194 218.5,157C 197.595,142.426 176.429,128.26 155,114.5C 150.723,120.97 147.39,127.97 145,135.5C 142.358,138.029 139.192,139.029 135.5,138.5C 131.557,136.279 130.057,132.946 131,128.5C 155.307,66.1935 199.473,25.3602 263.5,6C 274.524,3.22802 285.524,1.06135 296.5,-0.5 Z"/></g>
<g><path style="opacity:1" fill="#fba63e" d="M 354.5,18.5 C 331.798,37.5349 311.131,58.5349 292.5,81.5C 291.542,67.1648 290.542,52.8315 289.5,38.5C 289.425,30.7528 290.092,23.0861 291.5,15.5C 312.678,13.4378 333.678,14.4378 354.5,18.5 Z"/></g>
<g><path style="opacity:1" fill="#d3d9f0" d="M 275.5,107.5 C 263.311,126.169 253.477,146.169 246,167.5C 245.22,169.387 245.387,171.054 246.5,172.5C 234.756,183.222 221.423,191.722 206.5,198C 192.046,203.596 177.379,208.596 162.5,213C 154.016,216.158 145.85,219.992 138,224.5C 136.058,217.979 135.225,211.313 135.5,204.5C 161.567,195.644 187.567,186.477 213.5,177C 219.427,174.065 225.094,170.732 230.5,167C 237.446,159.669 237.113,152.669 229.5,146C 207.247,131.291 185.081,116.457 163,101.5C 163.917,96.8374 166.083,92.6707 169.5,89C 170.908,88.6848 172.241,89.0181 173.5,90C 196.228,105.726 219.228,121.059 242.5,136C 248.009,136.718 252.509,134.884 256,130.5C 259.88,119.162 261.38,107.495 260.5,95.5C 259.137,71.5118 258.137,47.5118 257.5,23.5C 263.454,21.9599 269.454,20.6266 275.5,19.5C 275.016,25.1505 274.682,30.8172 274.5,36.5C 275.97,52.6365 276.97,68.8032 277.5,85C 277.714,92.7335 277.047,100.234 275.5,107.5 Z"/></g>
<g><path style="opacity:1" fill="#fdbd72" d="M 354.5,18.5 C 362.936,20.5275 371.269,23.0275 379.5,26C 385.67,27.9904 391.337,30.8237 396.5,34.5C 367.858,77.796 338.858,120.796 309.5,163.5C 300.328,157.748 291.328,151.748 282.5,145.5C 289.578,124.774 292.911,103.44 292.5,81.5C 311.131,58.5349 331.798,37.5349 354.5,18.5 Z"/></g>
<g><path style="opacity:1" fill="#fca73e" d="M 240.5,31.5 C 241.167,36.8333 241.833,42.1667 242.5,47.5C 245.87,71.473 246.203,95.473 243.5,119.5C 222.03,105.196 200.696,90.6956 179.5,76C 192.371,62.1182 206.704,50.1182 222.5,40C 228.193,36.4623 234.193,33.629 240.5,31.5 Z"/></g>
<g><path style="opacity:1" fill="#895a21" d="M 240.5,31.5 C 240.56,30.9569 240.893,30.6236 241.5,30.5C 242.495,36.1278 242.829,41.7945 242.5,47.5C 241.833,42.1667 241.167,36.8333 240.5,31.5 Z"/></g>
<g><path style="opacity:1" fill="#e4e8f5" d="M 403.5,92.5 C 399.846,97.7961 396.179,103.129 392.5,108.5C 388.494,106.714 384.994,107.38 382,110.5C 365.333,135.167 348.667,159.833 332,184.5C 330.055,191.324 331.888,196.824 337.5,201C 347.107,206.942 356.44,213.275 365.5,220C 370.622,224.161 375.955,224.494 381.5,221C 393.451,210.019 406.784,201.019 421.5,194C 438.133,187.011 455.133,181.011 472.5,176C 479.737,173.382 486.737,170.215 493.5,166.5C 495.55,172.963 495.883,179.463 494.5,186C 490.952,187.941 487.286,189.607 483.5,191C 457.265,197.966 431.932,207.3 407.5,219C 403.067,221.133 399.567,224.3 397,228.5C 395.055,235.324 396.888,240.824 402.5,245C 424.753,259.709 446.919,274.543 469,289.5C 467.16,294.148 464.493,298.482 461,302.5C 439.08,287.79 417.247,272.957 395.5,258C 384.307,251.21 376.807,254.044 373,266.5C 370.958,280.746 369.958,295.079 370,309.5C 365,305.833 360,302.167 355,298.5C 354.003,280.483 357.003,263.15 364,246.5C 364.822,240.971 362.989,236.471 358.5,233C 347.079,225.24 335.413,217.907 323.5,211C 318.495,210.083 314.328,211.583 311,215.5C 300.291,231.753 289.457,247.919 278.5,264C 273.117,263.38 267.784,262.213 262.5,260.5C 274.862,242.637 287.029,224.637 299,206.5C 301.774,199.869 300.274,194.369 294.5,190C 283.833,183 273.167,176 262.5,169C 256.33,166.417 250.997,167.583 246.5,172.5C 245.387,171.054 245.22,169.387 246,167.5C 253.477,146.169 263.311,126.169 275.5,107.5C 274.973,119.254 272.473,130.587 268,141.5C 266.055,148.324 267.888,153.824 273.5,158C 283.5,164.667 293.5,171.333 303.5,178C 309.533,180.516 315.033,179.682 320,175.5C 349.971,130.697 380.138,86.0301 410.5,41.5C 415.09,43.7621 419.09,46.7621 422.5,50.5C 415.529,61.303 408.363,71.9697 401,82.5C 400.024,86.327 400.857,89.6604 403.5,92.5 Z"/></g>
<g><path style="opacity:1" fill="#fdbc72" d="M 392.5,108.5 C 396.179,103.129 399.846,97.7961 403.5,92.5C 407.344,94.2646 410.677,93.598 413.5,90.5C 420.667,80.1667 427.833,69.8333 435,59.5C 462.368,83.8787 480.868,113.879 490.5,149.5C 483.8,155.188 476.133,159.355 467.5,162C 442.278,168.738 418.278,178.405 395.5,191C 388.048,196.117 380.882,201.617 374,207.5C 364.688,201.768 355.855,195.434 347.5,188.5C 362.667,166.167 377.833,143.833 393,121.5C 396.457,116.889 396.29,112.556 392.5,108.5 Z"/></g>
<g><path style="opacity:1" fill="#fca73e" d="M 130.5,156.5 C 132.144,150.604 133.81,144.604 135.5,138.5C 139.192,139.029 142.358,138.029 145,135.5C 147.39,127.97 150.723,120.97 155,114.5C 176.429,128.26 197.595,142.426 218.5,157C 211.446,161.194 204.112,164.861 196.5,168C 179.963,173.735 163.296,179.068 146.5,184C 143.048,185.226 139.715,186.726 136.5,188.5C 136.167,185.833 135.833,183.167 135.5,180.5C 136.017,174.459 136.517,168.459 137,162.5C 135.506,159.686 133.34,157.686 130.5,156.5 Z"/></g>
<g><path style="opacity:1" fill="#fcbc71" d="M 235.5,256.5 C 233.814,238.42 234.48,220.42 237.5,202.5C 237.48,201.274 237.147,200.274 236.5,199.5C 243.611,194.43 250.611,189.096 257.5,183.5C 266.787,188.96 275.453,195.127 283.5,202C 271.797,219.902 259.963,237.736 248,255.5C 244.086,257.84 239.92,258.173 235.5,256.5 Z"/></g>
<g><path style="opacity:1" fill="#fca73e" d="M 236.5,199.5 C 237.147,200.274 237.48,201.274 237.5,202.5C 234.48,220.42 233.814,238.42 235.5,256.5C 220.841,255.645 206.174,255.478 191.5,256C 176.674,257.284 162.008,259.451 147.5,262.5C 145.274,255.321 142.94,248.154 140.5,241C 148.749,235.041 157.749,230.374 167.5,227C 191.687,220.565 214.687,211.398 236.5,199.5 Z"/></g>
<g><path style="opacity:1" fill="#fcbb71" d="M 493.5,202.5 C 494.809,204.571 495.475,207.071 495.5,210C 493.719,233.506 487.385,255.673 476.5,276.5C 455.203,262.525 434.203,248.191 413.5,233.5C 421.276,228.279 429.609,224.112 438.5,221C 457.11,215.274 475.443,209.108 493.5,202.5 Z"/></g>
<g><path style="opacity:1" fill="#fbbb71" d="M 321.5,226.5 C 329.805,231.99 338.138,237.49 346.5,243C 347.574,243.739 348.241,244.739 348.5,246C 346.065,251.639 344.232,257.472 343,263.5C 342.07,271.945 340.57,280.278 338.5,288.5C 323.845,281.005 308.845,274.338 293.5,268.5C 303.251,254.754 312.585,240.754 321.5,226.5 Z"/></g>
<g><path style="opacity:1" fill="#dd8956" d="M 304.5,487.5 C 298.62,489.571 292.62,491.237 286.5,492.5C 285.163,491.685 284.163,490.518 283.5,489C 281.801,488.042 279.967,487.542 278,487.5C 262.011,491.248 245.844,494.082 229.5,496C 212.421,496.982 195.421,496.482 178.5,494.5C 167.639,479.452 158.306,463.452 150.5,446.5C 161.077,438.421 163.243,428.421 157,416.5C 152.877,411.523 147.71,408.19 141.5,406.5C 141.846,399.317 145.513,396.484 152.5,398C 154.656,401.425 156.322,405.092 157.5,409C 162.186,411.529 166.019,410.696 169,406.5C 169.213,388.061 160.046,380.228 141.5,383C 139.807,383.847 138.14,384.68 136.5,385.5C 135.941,372.561 136.941,359.894 139.5,347.5C 143.689,347.818 146.855,346.152 149,342.5C 149.578,338.044 149.078,333.711 147.5,329.5C 154.405,327.852 161.405,326.852 168.5,326.5C 168.334,330.514 168.501,334.514 169,338.5C 173.219,344.742 177.885,345.075 183,339.5C 183.499,334.177 183.666,328.844 183.5,323.5C 189.833,323.5 196.167,323.5 202.5,323.5C 202.334,329.176 202.501,334.843 203,340.5C 205.913,345.689 210.08,346.856 215.5,344C 216.126,343.25 216.626,342.416 217,341.5C 217.499,335.509 217.666,329.509 217.5,323.5C 224.18,323.612 230.847,323.946 237.5,324.5C 236.705,329.149 236.539,333.816 237,338.5C 241.171,344.729 245.837,345.062 251,339.5C 251.465,335.152 251.965,330.819 252.5,326.5C 259.22,327.173 265.887,328.173 272.5,329.5C 271.751,333.819 271.585,338.152 272,342.5C 275.913,348.617 280.246,348.951 285,343.5C 286.289,340.649 286.789,337.649 286.5,334.5C 291.466,335.322 296.299,336.655 301,338.5C 307.093,336.76 309.093,332.76 307,326.5C 301.964,323.098 296.464,320.765 290.5,319.5C 291.075,313.833 291.242,308.167 291,302.5C 286.749,297.274 282.415,297.274 278,302.5C 276.846,306.447 276.013,310.447 275.5,314.5C 268.515,313.419 261.515,312.419 254.5,311.5C 254.666,304.825 254.5,298.158 254,291.5C 250.627,288.114 246.794,287.614 242.5,290C 240.037,296.216 239.037,302.716 239.5,309.5C 232.173,309.056 224.84,308.723 217.5,308.5C 217.666,302.158 217.5,295.825 217,289.5C 211.885,283.925 207.219,284.258 203,290.5C 202.501,296.491 202.334,302.491 202.5,308.5C 195.457,308.28 188.457,308.614 181.5,309.5C 181.529,303.79 181.029,298.123 180,292.5C 175.239,287.188 170.572,287.188 166,292.5C 165.766,298.833 165.932,305.166 166.5,311.5C 161.106,311.733 155.773,312.399 150.5,313.5C 149.761,313.631 149.094,313.464 148.5,313C 154.189,299.79 160.522,286.957 167.5,274.5C 174.924,272.652 182.59,271.486 190.5,271C 206.53,270.155 222.53,270.488 238.5,272C 278.646,276.757 315.313,290.424 348.5,313C 345.88,317.739 343.38,322.573 341,327.5C 324.936,370.937 327.436,413.27 348.5,454.5C 335.764,463.538 322.098,471.038 307.5,477C 304.769,479.897 303.769,483.397 304.5,487.5 Z"/></g>
<g><path style="opacity:1" fill="#fbbb71" d="M 387.5,271.5 C 409.121,285.317 430.454,299.651 451.5,314.5C 438.972,328.535 424.806,340.535 409,350.5C 402.752,341.581 395.752,333.248 388,325.5C 385.068,307.456 384.901,289.456 387.5,271.5 Z"/></g>
<g><path style="opacity:1" fill="#c56c32" d="M 167.5,274.5 C 160.522,286.957 154.189,299.79 148.5,313C 149.094,313.464 149.761,313.631 150.5,313.5C 148.735,314.461 146.735,314.795 144.5,314.5C 144.499,309.997 143.666,305.663 142,301.5C 135.373,296.625 130.873,298.125 128.5,306C 129.622,310.441 130.289,314.941 130.5,319.5C 123.832,320.419 117.999,323.085 113,327.5C 111.561,333.629 113.894,337.296 120,338.5C 123.773,337.032 127.607,335.699 131.5,334.5C 132.167,334.833 132.833,335.167 133.5,335.5C 133.44,340.667 135.44,344.667 139.5,347.5C 136.941,359.894 135.941,372.561 136.5,385.5C 130.257,390.656 127.257,397.323 127.5,405.5C 113.977,407.029 105.977,414.363 103.5,427.5C 104.722,440.893 112.055,448.726 125.5,451C 129.833,451.667 134.167,451.667 138.5,451C 142.621,449.771 146.621,448.271 150.5,446.5C 158.306,463.452 167.639,479.452 178.5,494.5C 166.993,493.299 155.66,491.132 144.5,488C 118.275,480.882 94.2752,469.549 72.5,454C 78.5398,442.753 83.0398,430.92 86,418.5C 94.5461,381.568 90.0461,346.401 72.5,313C 101.096,292.851 132.762,280.017 167.5,274.5 Z"/></g>
<g><path style="opacity:1" fill="#050301" d="M 139.5,347.5 C 135.44,344.667 133.44,340.667 133.5,335.5C 132.833,335.167 132.167,334.833 131.5,334.5C 127.607,335.699 123.773,337.032 120,338.5C 113.894,337.296 111.561,333.629 113,327.5C 117.999,323.085 123.832,320.419 130.5,319.5C 130.289,314.941 129.622,310.441 128.5,306C 130.873,298.125 135.373,296.625 142,301.5C 143.666,305.663 144.499,309.997 144.5,314.5C 146.735,314.795 148.735,314.461 150.5,313.5C 155.773,312.399 161.106,311.733 166.5,311.5C 165.932,305.166 165.766,298.833 166,292.5C 170.572,287.188 175.239,287.188 180,292.5C 181.029,298.123 181.529,303.79 181.5,309.5C 188.457,308.614 195.457,308.28 202.5,308.5C 202.334,302.491 202.501,296.491 203,290.5C 207.219,284.258 211.885,283.925 217,289.5C 217.5,295.825 217.666,302.158 217.5,308.5C 224.84,308.723 232.173,309.056 239.5,309.5C 239.037,302.716 240.037,296.216 242.5,290C 246.794,287.614 250.627,288.114 254,291.5C 254.5,298.158 254.666,304.825 254.5,311.5C 261.515,312.419 268.515,313.419 275.5,314.5C 276.013,310.447 276.846,306.447 278,302.5C 282.415,297.274 286.749,297.274 291,302.5C 291.242,308.167 291.075,313.833 290.5,319.5C 296.464,320.765 301.964,323.098 307,326.5C 309.093,332.76 307.093,336.76 301,338.5C 296.299,336.655 291.466,335.322 286.5,334.5C 286.789,337.649 286.289,340.649 285,343.5C 280.246,348.951 275.913,348.617 272,342.5C 271.585,338.152 271.751,333.819 272.5,329.5C 265.887,328.173 259.22,327.173 252.5,326.5C 251.965,330.819 251.465,335.152 251,339.5C 245.837,345.062 241.171,344.729 237,338.5C 236.539,333.816 236.705,329.149 237.5,324.5C 230.847,323.946 224.18,323.612 217.5,323.5C 217.666,329.509 217.499,335.509 217,341.5C 216.626,342.416 216.126,343.25 215.5,344C 210.08,346.856 205.913,345.689 203,340.5C 202.501,334.843 202.334,329.176 202.5,323.5C 196.167,323.5 189.833,323.5 183.5,323.5C 183.666,328.844 183.499,334.177 183,339.5C 177.885,345.075 173.219,344.742 169,338.5C 168.501,334.514 168.334,330.514 168.5,326.5C 161.405,326.852 154.405,327.852 147.5,329.5C 149.078,333.711 149.578,338.044 149,342.5C 146.855,346.152 143.689,347.818 139.5,347.5 Z"/></g>
<g><path style="opacity:1" fill="#e3e6f3" d="M 58.5,321.5 C 64.6479,329.38 68.8146,338.38 71,348.5C 76.7562,376.214 75.4229,403.547 67,430.5C 65.0272,435.779 62.5272,440.779 59.5,445.5C 55.4895,443.004 52.1561,439.837 49.5,436C 62.7936,400.969 62.7936,365.969 49.5,331C 52.0784,327.39 55.0784,324.223 58.5,321.5 Z"/></g>
<g><path style="opacity:1" fill="#ebedf4" d="M 360.5,321.5 C 364.463,324.129 368.129,327.129 371.5,330.5C 362.356,353.317 359.189,376.984 362,401.5C 363.636,413.577 366.803,425.243 371.5,436.5C 368.172,439.658 364.672,442.658 361,445.5C 350.131,426.145 344.964,405.312 345.5,383C 345.258,361.137 350.258,340.637 360.5,321.5 Z"/></g>
<g><path style="opacity:1" fill="#c36b32" d="M 36.5,342.5 C 37.4972,342.47 38.1639,342.97 38.5,344C 45.1367,365.842 46.3034,388.009 42,410.5C 40.6338,415.313 38.9672,419.979 37,424.5C 25.1634,412.992 17.6634,399.159 14.5,383C 15.0606,375.985 17.2272,369.485 21,363.5C 25.6878,356.114 30.8545,349.114 36.5,342.5 Z"/></g>
<g><path style="opacity:1" fill="#db8755" d="M 382.5,342.5 C 392.81,351.358 400.31,362.358 405,375.5C 406.908,380.822 406.908,386.155 405,391.5C 400.321,404.211 393.154,415.211 383.5,424.5C 378.068,411.054 375.734,397.054 376.5,382.5C 375.986,368.764 377.986,355.431 382.5,342.5 Z"/></g>
<g><path style="opacity:1" fill="#050201" d="M 141.5,406.5 C 136.383,412.09 131.717,411.757 127.5,405.5C 127.257,397.323 130.257,390.656 136.5,385.5C 138.14,384.68 139.807,383.847 141.5,383C 160.046,380.228 169.213,388.061 169,406.5C 166.019,410.696 162.186,411.529 157.5,409C 156.322,405.092 154.656,401.425 152.5,398C 145.513,396.484 141.846,399.317 141.5,406.5 Z"/></g>
<g><path style="opacity:1" fill="#050302" d="M 292.5,405.5 C 289.798,410.574 285.798,411.741 280.5,409C 279.934,408.005 279.267,407.172 278.5,406.5C 278.957,399.12 275.624,396.287 268.5,398C 266.114,399.887 264.947,402.387 265,405.5C 262.928,410.143 259.428,411.643 254.5,410C 249.408,404.107 249.241,397.941 254,391.5C 260.914,382.519 269.748,380.019 280.5,384C 289.307,388.445 293.307,395.612 292.5,405.5 Z"/></g>
<g><path style="opacity:1" fill="#fefdfc" d="M 127.5,405.5 C 131.717,411.757 136.383,412.09 141.5,406.5C 147.71,408.19 152.877,411.523 157,416.5C 163.243,428.421 161.077,438.421 150.5,446.5C 146.621,448.271 142.621,449.771 138.5,451C 134.167,451.667 129.833,451.667 125.5,451C 112.055,448.726 104.722,440.893 103.5,427.5C 105.977,414.363 113.977,407.029 127.5,405.5 Z"/></g>
<g><path style="opacity:1" fill="#fefdfc" d="M 292.5,405.5 C 309.549,407.366 317.715,416.7 317,433.5C 311.438,445.285 302.105,451.285 289,451.5C 274.619,451.424 264.952,444.757 260,431.5C 260.142,418.84 266.309,410.507 278.5,406.5C 279.267,407.172 279.934,408.005 280.5,409C 285.798,411.741 289.798,410.574 292.5,405.5 Z"/></g>
<g><path style="opacity:1" fill="#080402" d="M 193.5,411.5 C 197.933,411.759 201.6,413.593 204.5,417C 208.997,419.121 213.33,418.788 217.5,416C 222.627,409.832 227.46,409.999 232,416.5C 231.755,423.449 228.255,428.282 221.5,431C 209.533,435.855 199.033,433.688 190,424.5C 187.186,418.938 188.352,414.605 193.5,411.5 Z"/></g>
</svg>
