<?xml version="1.0" encoding="UTF-8"?>
<!DOCTYPE svg PUBLIC "-//W3C//DTD SVG 1.1//EN" "http://www.w3.org/Graphics/SVG/1.1/DTD/svg11.dtd">
<svg xmlns="http://www.w3.org/2000/svg" version="1.1" width="512px" height="512px" style="shape-rendering:geometricPrecision; text-rendering:geometricPrecision; image-rendering:optimizeQuality; fill-rule:evenodd; clip-rule:evenodd" xmlns:xlink="http://www.w3.org/1999/xlink">
<g><path style="opacity:0.977" fill="#010101" d="M 511.5,210.5 C 511.5,228.167 511.5,245.833 511.5,263.5C 509.079,270.285 504.412,274.952 497.5,277.5C 496.667,345.831 496.167,414.164 496,482.5C 491.31,497.759 481.144,506.925 465.5,510C 444.833,510.667 424.167,510.667 403.5,510C 399.954,508.744 397.954,506.244 397.5,502.5C 398.41,499.207 400.41,496.707 403.5,495C 425.55,494.957 447.55,494.29 469.5,493C 474.05,490.117 477.55,486.284 480,481.5C 481.49,413.891 481.99,346.225 481.5,278.5C 460.006,277.503 438.34,277.169 416.5,277.5C 416.5,280.5 416.5,283.5 416.5,286.5C 411.535,309.669 397.201,319.502 373.5,316C 356.225,309.543 347.892,297.043 348.5,278.5C 286.669,277.501 224.669,277.168 162.5,277.5C 161.663,306.171 146.997,319.005 118.5,316C 104.815,310.813 96.8154,300.98 94.5,286.5C 94.5,283.5 94.5,280.5 94.5,277.5C 72.6602,277.169 50.9936,277.503 29.5,278.5C 29.6665,289.838 29.4999,301.172 29,312.5C 27.2926,315.59 24.7926,317.59 21.5,318.5C 18.8447,317.999 16.678,316.666 15,314.5C 14.8326,302.153 14.3326,289.82 13.5,277.5C 6.75739,274.758 2.09073,270.091 -0.5,263.5C -0.5,245.833 -0.5,228.167 -0.5,210.5C 5.53912,187.462 20.2058,173.129 43.5,167.5C 40.4013,152.895 45.4013,142.395 58.5,136C 65.7977,134.983 73.131,134.149 80.5,133.5C 81.6948,131.249 82.6948,128.915 83.5,126.5C 79.8489,122.348 76.0156,118.348 72,114.5C 66,104.833 66,95.1667 72,85.5C 77.8333,79.6667 83.6667,73.8333 89.5,68C 99.1667,62 108.833,62 118.5,68C 122.167,71.6667 125.833,75.3333 129.5,79C 132.296,78.9034 134.963,78.0701 137.5,76.5C 138.33,70.5275 138.83,64.5275 139,58.5C 143.935,42.6014 154.768,36.2681 171.5,39.5C 186.069,36.393 196.569,41.393 203,54.5C 203.916,61.8205 204.749,69.1538 205.5,76.5C 207.751,77.6948 210.085,78.6948 212.5,79.5C 216.652,75.8489 220.652,72.0156 224.5,68C 234.167,62 243.833,62 253.5,68C 259.333,73.8333 265.167,79.6667 271,85.5C 277.254,95.7105 276.921,105.71 270,115.5C 266.667,118.833 263.333,122.167 260,125.5C 260.019,128.244 260.686,130.911 262,133.5C 268.085,134.312 274.252,134.812 280.5,135C 296.007,139.724 302.34,150.224 299.5,166.5C 312.5,166.5 325.5,166.5 338.5,166.5C 338.667,154.162 338.5,141.829 338,129.5C 310.176,103.683 302.176,72.6832 314,36.5C 319.867,22.3072 329.034,10.8072 341.5,2C 349.783,-1.01692 356.283,1.14975 361,8.5C 362.275,25.1138 362.941,41.7804 363,58.5C 371.088,63.5838 379.421,68.2504 388,72.5C 396.392,68.3879 404.558,63.8879 412.5,59C 413.126,58.2496 413.626,57.4162 414,56.5C 414.333,40.8333 414.667,25.1667 415,9.5C 418.515,2.09678 424.348,-0.736556 432.5,1C 450.289,12.4779 461.456,28.6445 466,49.5C 469.817,69.5968 466.817,88.5968 457,106.5C 450.986,114.836 444.653,122.836 438,130.5C 437.5,142.495 437.333,154.495 437.5,166.5C 462.666,162.069 483.833,169.069 501,187.5C 505.965,194.591 509.465,202.258 511.5,210.5 Z M 164.5,133.5 C 182.249,131.787 195.083,138.787 203,154.5C 204.47,158.378 205.303,162.378 205.5,166.5C 182.833,166.5 160.167,166.5 137.5,166.5C 139.197,149.402 148.197,138.402 164.5,133.5 Z"/></g>
<g><path style="opacity:1" fill="#59d4fd" d="M 381.5,87.5 C 378.788,92.4669 376.955,97.8002 376,103.5C 375.5,124.497 375.333,145.497 375.5,166.5C 368.5,166.5 361.5,166.5 354.5,166.5C 354.829,153.656 354.495,140.989 353.5,128.5C 353.116,124.396 351.616,120.729 349,117.5C 323.737,94.8567 317.737,67.8567 331,36.5C 334.915,29.7525 339.748,23.7525 345.5,18.5C 346.333,32.1545 346.833,45.8212 347,59.5C 347.829,65.66 350.996,70.16 356.5,73C 364.896,77.8601 373.23,82.6934 381.5,87.5 Z"/></g>
<g><path style="opacity:1" fill="#a2e5fd" d="M 422.5,129.5 C 421.505,141.655 421.171,153.989 421.5,166.5C 406.167,166.5 390.833,166.5 375.5,166.5C 375.333,145.497 375.5,124.497 376,103.5C 376.955,97.8002 378.788,92.4669 381.5,87.5C 385.112,88.5114 388.779,88.6781 392.5,88C 402.327,82.9205 411.994,77.5871 421.5,72C 425.104,69.2924 427.604,65.7924 429,61.5C 429.333,46.8333 429.667,32.1667 430,17.5C 454.459,41.5865 458.792,68.9199 443,99.5C 438.409,106.095 433.076,112.095 427,117.5C 424.636,121.219 423.136,125.219 422.5,129.5 Z"/></g>
<g><path style="opacity:1" fill="#348ad6" d="M 188.5,63.5 C 166.567,78.3267 152.234,98.66 145.5,124.5C 130.754,134.66 122.754,148.66 121.5,166.5C 100.833,166.5 80.1667,166.5 59.5,166.5C 59.5,162.833 59.5,159.167 59.5,155.5C 59.8588,153.629 60.8588,152.129 62.5,151C 71.2273,150.877 79.8939,150.21 88.5,149C 90,147.5 91.5,146 93,144.5C 95.0571,138.719 97.3904,133.053 100,127.5C 100.743,124.217 100.076,121.217 98,118.5C 93.3333,113.833 88.6667,109.167 84,104.5C 82,101.5 82,98.5 84,95.5C 89.1667,90.3333 94.3333,85.1667 99.5,80C 102.5,78 105.5,78 108.5,80C 113.167,84.6667 117.833,89.3333 122.5,94C 124.513,95.2572 126.679,96.0905 129,96.5C 134.876,94.4801 140.709,92.3134 146.5,90C 148.96,88.5422 151.127,86.7089 153,84.5C 154.244,75.9088 154.911,67.2421 155,58.5C 155.833,57.6667 156.667,56.8333 157.5,56C 166.064,54.3933 174.73,54.06 183.5,55C 187.488,56.484 189.154,59.3174 188.5,63.5 Z"/></g>
<g><path style="opacity:1" fill="#67a0dd" d="M 188.5,63.5 C 188.334,69.8421 188.5,76.1754 189,82.5C 190,84.1667 191,85.8333 192,87.5C 198.065,90.5231 204.232,93.3565 210.5,96C 214.053,96.5976 217.386,95.9309 220.5,94C 225.532,88.6335 230.865,83.6335 236.5,79C 238.971,78.2937 241.305,78.627 243.5,80C 248.667,85.1667 253.833,90.3333 259,95.5C 261.149,99.087 260.816,102.42 258,105.5C 252.633,110.532 247.633,115.865 243,121.5C 242.333,123.5 242.333,125.5 243,127.5C 245.472,133.915 248.138,140.248 251,146.5C 252.833,147.667 254.667,148.833 256.5,150C 264.167,150.333 271.833,150.667 279.5,151C 281.751,151.748 283.084,153.248 283.5,155.5C 283.5,159.167 283.5,162.833 283.5,166.5C 262.833,166.5 242.167,166.5 221.5,166.5C 218.089,136.592 201.256,120.259 171,117.5C 161.951,117.906 153.451,120.24 145.5,124.5C 152.234,98.66 166.567,78.3267 188.5,63.5 Z"/></g>
<g><path style="opacity:1" fill="#1c4c75" d="M 59.5,155.5 C 59.5,159.167 59.5,162.833 59.5,166.5C 80.1667,166.5 100.833,166.5 121.5,166.5C 100.673,167.497 79.6733,167.831 58.5,167.5C 58.1832,163.298 58.5166,159.298 59.5,155.5 Z"/></g>
<g><path style="opacity:1" fill="#365474" d="M 283.5,155.5 C 284.483,159.298 284.817,163.298 284.5,167.5C 263.327,167.831 242.327,167.497 221.5,166.5C 242.167,166.5 262.833,166.5 283.5,166.5C 283.5,162.833 283.5,159.167 283.5,155.5 Z"/></g>
<g><path style="opacity:1" fill="#4f7b8b" d="M 353.5,128.5 C 354.495,140.989 354.829,153.656 354.5,166.5C 361.5,166.5 368.5,166.5 375.5,166.5C 390.833,166.5 406.167,166.5 421.5,166.5C 421.171,153.989 421.505,141.655 422.5,129.5C 422.5,142.167 422.5,154.833 422.5,167.5C 399.5,167.5 376.5,167.5 353.5,167.5C 353.5,154.5 353.5,141.5 353.5,128.5 Z"/></g>
<g><path style="opacity:1" fill="#f5c955" d="M 48.5,182.5 C 92.5013,182.333 136.501,182.5 180.5,183C 175.572,188.687 172.072,195.187 170,202.5C 169.5,222.497 169.333,242.497 169.5,262.5C 167.167,262.5 164.833,262.5 162.5,262.5C 161.204,234.374 146.538,221.874 118.5,225C 105.252,230.081 97.2522,239.581 94.5,253.5C 93.5233,256.287 93.19,259.287 93.5,262.5C 68.5,262.5 43.5,262.5 18.5,262.5C 17.2058,261.71 16.0391,260.71 15,259.5C 14.3333,243.833 14.3333,228.167 15,212.5C 20.0948,195.565 31.2615,185.565 48.5,182.5 Z"/></g>
<g><path style="opacity:1" fill="#f7d687" d="M 48.5,182.5 C 186.333,181.334 324.333,181.167 462.5,182C 479.713,185.548 490.88,195.714 496,212.5C 496.667,228.167 496.667,243.833 496,259.5C 494.871,261.141 493.371,262.141 491.5,262.5C 466.833,262.5 442.167,262.5 417.5,262.5C 417.81,259.287 417.477,256.287 416.5,253.5C 411.746,232.926 398.746,223.093 377.5,224C 357.798,229.226 348.131,242.059 348.5,262.5C 288.833,262.5 229.167,262.5 169.5,262.5C 169.333,242.497 169.5,222.497 170,202.5C 172.072,195.187 175.572,188.687 180.5,183C 136.501,182.5 92.5013,182.333 48.5,182.5 Z"/></g>
<g><path style="opacity:1" fill="#294e93" d="M 124.5,238.5 C 135.207,238.045 142.707,242.712 147,252.5C 147.941,265.237 147.607,277.904 146,290.5C 139.116,302.016 129.616,304.85 117.5,299C 113.806,296.313 111.306,292.813 110,288.5C 109.333,276.167 109.333,263.833 110,251.5C 113.162,245.164 117.996,240.831 124.5,238.5 Z"/></g>
<g><path style="opacity:1" fill="#49649e" d="M 378.5,238.5 C 388.954,237.808 396.454,242.141 401,251.5C 401.944,264.903 401.611,278.236 400,291.5C 392.148,302.922 382.315,305.089 370.5,298C 367.509,295.01 365.343,291.51 364,287.5C 363.333,275.833 363.333,264.167 364,252.5C 366.774,245.557 371.607,240.89 378.5,238.5 Z"/></g>
<g><path style="opacity:1" fill="#56461e" d="M 94.5,253.5 C 94.5,256.833 94.5,260.167 94.5,263.5C 68.9945,263.831 43.6612,263.498 18.5,262.5C 43.5,262.5 68.5,262.5 93.5,262.5C 93.19,259.287 93.5233,256.287 94.5,253.5 Z"/></g>
<g><path style="opacity:1" fill="#574c30" d="M 416.5,253.5 C 417.477,256.287 417.81,259.287 417.5,262.5C 442.167,262.5 466.833,262.5 491.5,262.5C 466.672,263.498 441.672,263.831 416.5,263.5C 416.5,260.167 416.5,256.833 416.5,253.5 Z"/></g>
<g><path style="opacity:1" fill="#a38d59" d="M 29.5,278.5 C 50.9936,277.503 72.6602,277.169 94.5,277.5C 94.5,280.5 94.5,283.5 94.5,286.5C 93.5269,284.052 93.1936,281.385 93.5,278.5C 72.1667,278.5 50.8333,278.5 29.5,278.5 Z"/></g>
<g><path style="opacity:1" fill="#a39d62" d="M 481.5,278.5 C 460.167,278.5 438.833,278.5 417.5,278.5C 417.806,281.385 417.473,284.052 416.5,286.5C 416.5,283.5 416.5,280.5 416.5,277.5C 438.34,277.169 460.006,277.503 481.5,278.5 Z"/></g>
<g><path style="opacity:1" fill="#f9d888" d="M 348.5,278.5 C 289.5,278.5 230.5,278.5 171.5,278.5C 171.5,312.833 171.5,347.167 171.5,381.5C 156.553,380.391 145.053,386.057 137,398.5C 133.178,413.345 138.344,423.845 152.5,430C 162.908,433.37 173.242,433.203 183.5,429.5C 195.728,456.727 214.394,478.394 239.5,494.5C 174.166,494.667 108.832,494.5 43.5,494C 36.8513,490.686 32.3513,485.519 30,478.5C 29.6667,432.5 29.3333,386.5 29,340.5C 27.0867,337.72 24.5867,336.053 21.5,335.5C 21.5,329.833 21.5,324.167 21.5,318.5C 24.7926,317.59 27.2926,315.59 29,312.5C 29.4999,301.172 29.6665,289.838 29.5,278.5C 50.8333,278.5 72.1667,278.5 93.5,278.5C 93.1936,281.385 93.5269,284.052 94.5,286.5C 96.8154,300.98 104.815,310.813 118.5,316C 146.997,319.005 161.663,306.171 162.5,277.5C 224.669,277.168 286.669,277.501 348.5,278.5 Z"/></g>
<g><path style="opacity:1" fill="#faf097" d="M 348.5,278.5 C 347.892,297.043 356.225,309.543 373.5,316C 397.201,319.502 411.535,309.669 416.5,286.5C 417.473,284.052 417.806,281.385 417.5,278.5C 438.833,278.5 460.167,278.5 481.5,278.5C 481.99,346.225 481.49,413.891 480,481.5C 477.55,486.284 474.05,490.117 469.5,493C 447.55,494.29 425.55,494.957 403.5,495C 400.41,496.707 398.41,499.207 397.5,502.5C 390.833,502.5 384.167,502.5 377.5,502.5C 376.892,499.042 374.892,496.542 371.5,495C 327.501,494.5 283.501,494.333 239.5,494.5C 214.394,478.394 195.728,456.727 183.5,429.5C 196.883,423.734 202.05,413.734 199,399.5C 196.685,395.362 193.852,391.695 190.5,388.5C 193.939,384.962 195.272,380.629 194.5,375.5C 195.949,365.785 191.949,361.618 182.5,363C 181.667,363.833 180.833,364.667 180,365.5C 179.501,371.491 179.334,377.491 179.5,383.5C 177.007,382.226 174.341,381.56 171.5,381.5C 171.5,347.167 171.5,312.833 171.5,278.5C 230.5,278.5 289.5,278.5 348.5,278.5 Z"/></g>
<g><path style="opacity:0.969" fill="#060503" d="M 21.5,335.5 C 24.5867,336.053 27.0867,337.72 29,340.5C 29.3333,386.5 29.6667,432.5 30,478.5C 32.3513,485.519 36.8513,490.686 43.5,494C 108.832,494.5 174.166,494.667 239.5,494.5C 283.501,494.333 327.501,494.5 371.5,495C 374.892,496.542 376.892,499.042 377.5,502.5C 377.456,506.09 375.789,508.59 372.5,510C 263.5,510.667 154.5,510.667 45.5,510C 29.8171,506.915 19.6504,497.748 15,482.5C 14.3333,434.833 14.3333,387.167 15,339.5C 16.6379,337.266 18.8045,335.933 21.5,335.5 Z"/></g>
<g><path style="opacity:1" fill="#050503" d="M 348.5,381.5 C 347.666,388.104 343.999,390.271 337.5,388C 335.267,385.887 333.933,383.387 333.5,380.5C 332.151,375.322 328.818,373.488 323.5,375C 320.196,377.273 318.696,380.439 319,384.5C 316.487,388.212 312.987,389.378 308.5,388C 304.87,384.95 303.703,381.117 305,376.5C 312.317,359.616 324.15,355.45 340.5,364C 346.009,368.519 348.676,374.352 348.5,381.5 Z"/></g>
<g><path style="opacity:1" fill="#090805" d="M 190.5,388.5 C 184.955,390.864 181.288,389.197 179.5,383.5C 179.334,377.491 179.501,371.491 180,365.5C 180.833,364.667 181.667,363.833 182.5,363C 191.949,361.618 195.949,365.785 194.5,375.5C 195.272,380.629 193.939,384.962 190.5,388.5 Z"/></g>
<g><path style="opacity:1" fill="#060503" d="M 234.5,374.5 C 236.199,374.34 237.866,374.506 239.5,375C 249.874,384.992 260.208,384.992 270.5,375C 278.788,373.709 281.955,377.209 280,385.5C 269.08,398.07 255.913,400.904 240.5,394C 237.667,391.833 234.833,389.667 232,387.5C 229.35,382.266 230.183,377.933 234.5,374.5 Z"/></g>
<g><path style="opacity:1" fill="#fea1ab" d="M 171.5,381.5 C 174.341,381.56 177.007,382.226 179.5,383.5C 181.288,389.197 184.955,390.864 190.5,388.5C 193.852,391.695 196.685,395.362 199,399.5C 202.05,413.734 196.883,423.734 183.5,429.5C 173.242,433.203 162.908,433.37 152.5,430C 138.344,423.845 133.178,413.345 137,398.5C 145.053,386.057 156.553,380.391 171.5,381.5 Z"/></g>
<g><path style="opacity:1" fill="#fea1ab" d="M 333.5,380.5 C 333.933,383.387 335.267,385.887 337.5,388C 343.999,390.271 347.666,388.104 348.5,381.5C 357.334,383 364.834,387 371,393.5C 379.032,408.632 375.532,420.465 360.5,429C 343.972,435.77 329.139,433.27 316,421.5C 307.131,407.968 309.298,396.468 322.5,387C 325.715,385.226 329.048,383.726 332.5,382.5C 333.298,382.043 333.631,381.376 333.5,380.5 Z"/></g>
</svg>
