<?xml version="1.0" encoding="UTF-8"?>
<!DOCTYPE svg PUBLIC "-//W3C//DTD SVG 1.1//EN" "http://www.w3.org/Graphics/SVG/1.1/DTD/svg11.dtd">
<svg xmlns="http://www.w3.org/2000/svg" version="1.1" width="512px" height="512px" style="shape-rendering:geometricPrecision; text-rendering:geometricPrecision; image-rendering:optimizeQuality; fill-rule:evenodd; clip-rule:evenodd" xmlns:xlink="http://www.w3.org/1999/xlink">
<g><path style="opacity:0.975" fill="#020101" d="M 150.5,-0.5 C 220.5,-0.5 290.5,-0.5 360.5,-0.5C 395.044,10.0775 409.377,33.2442 403.5,69C 401.975,70.0086 400.308,70.5086 398.5,70.5C 394.91,70.4559 392.41,68.7892 391,65.5C 393.277,41.5237 383.443,25.0237 361.5,16C 320.54,14.5285 279.54,14.0285 238.5,14.5C 210.165,14.3334 181.831,14.5 153.5,15C 136,19.1667 125.167,30 121,47.5C 120.333,75.8333 120.333,104.167 121,132.5C 137.402,138.126 144.902,149.626 143.5,167C 145.199,180.26 140.866,190.927 130.5,199C 127.395,200.868 124.062,202.035 120.5,202.5C 120.5,212.167 120.5,221.833 120.5,231.5C 210.332,232.499 300.332,232.833 390.5,232.5C 390.5,222.5 390.5,212.5 390.5,202.5C 378.275,200.109 370.775,192.776 368,180.5C 367.333,171.5 367.333,162.5 368,153.5C 371.825,142.507 379.325,135.507 390.5,132.5C 390.333,119.829 390.5,107.162 391,94.5C 392.913,91.7197 395.413,90.053 398.5,89.5C 401.195,89.933 403.362,91.2663 405,93.5C 405.5,106.162 405.667,118.829 405.5,131.5C 416.838,131.333 428.172,131.5 439.5,132C 452.41,135.244 460.243,143.411 463,156.5C 464.085,166.643 463.418,176.643 461,186.5C 456.862,195.332 450.028,200.998 440.5,203.5C 439.334,216.154 439.167,228.82 440,241.5C 443.054,244.942 445.054,248.942 446,253.5C 446.667,269.167 446.667,284.833 446,300.5C 442.397,312.882 434.231,320.049 421.5,322C 377.168,322.5 332.835,322.667 288.5,322.5C 288.173,342.743 288.507,362.909 289.5,383C 324.524,389.538 359.524,396.205 394.5,403C 409.627,407.796 417.627,418.129 418.5,434C 416.962,443.356 415.296,452.689 413.5,462C 416.683,487.161 406.35,503.661 382.5,511.5C 376.5,511.5 370.5,511.5 364.5,511.5C 338.623,502.093 328.623,483.76 334.5,456.5C 320.443,453.88 306.443,451.38 292.5,449C 300.057,461.197 301.224,474.03 296,487.5C 289.905,499.619 280.405,507.619 267.5,511.5C 261.167,511.5 254.833,511.5 248.5,511.5C 223.619,502.418 213.786,484.752 219,458.5C 220.099,455.136 221.599,451.97 223.5,449C 208.443,451.01 193.443,453.677 178.5,457C 185.246,484.012 175.579,502.179 149.5,511.5C 143.167,511.5 136.833,511.5 130.5,511.5C 107.355,503.053 97.3547,486.553 100.5,462C 98.4468,452.734 96.7802,443.401 95.5,434C 96.3784,418.125 104.378,407.791 119.5,403C 154.167,396.333 188.833,389.667 223.5,383C 224.493,362.909 224.827,342.743 224.5,322.5C 202.831,322.667 181.164,322.5 159.5,322C 155.482,321.137 153.482,318.637 153.5,314.5C 154.108,311.042 156.108,308.542 159.5,307C 176.163,306.5 192.83,306.333 209.5,306.5C 280.167,306.667 350.834,306.5 421.5,306C 426.64,304.86 429.807,301.694 431,296.5C 431.667,283.167 431.667,269.833 431,256.5C 429.5,252.333 426.667,249.5 422.5,248C 352.501,247.5 282.501,247.333 212.5,247.5C 170.832,247.333 129.165,247.5 87.5,248C 83.9421,249.892 81.4421,252.725 80,256.5C 79.3333,269.833 79.3333,283.167 80,296.5C 81.1148,301.245 83.9481,304.412 88.5,306C 101.833,306.333 115.167,306.667 128.5,307C 131.892,308.542 133.892,311.042 134.5,314.5C 134.518,318.637 132.518,321.137 128.5,322C 113.787,322.913 99.12,322.58 84.5,321C 74.2622,317.761 67.7622,310.928 65,300.5C 64.3333,284.833 64.3333,269.167 65,253.5C 65.9457,248.942 67.9457,244.942 71,241.5C 71.8326,228.82 71.666,216.154 70.5,203.5C 53.2893,197.772 45.6226,185.772 47.5,167.5C 45.9513,149.072 53.9513,137.238 71.5,132C 82.8284,131.5 94.1618,131.333 105.5,131.5C 105.333,102.831 105.5,74.1647 106,45.5C 111.24,20.7617 126.073,5.42834 150.5,-0.5 Z"/></g>
<g><path style="opacity:1" fill="#de8956" d="M 238.5,14.5 C 213.383,84.8795 205.716,157.213 215.5,231.5C 183.833,231.5 152.167,231.5 120.5,231.5C 120.5,221.833 120.5,212.167 120.5,202.5C 124.062,202.035 127.395,200.868 130.5,199C 140.866,190.927 145.199,180.26 143.5,167C 144.902,149.626 137.402,138.126 121,132.5C 120.333,104.167 120.333,75.8333 121,47.5C 125.167,30 136,19.1667 153.5,15C 181.831,14.5 210.165,14.3334 238.5,14.5 Z"/></g>
<g><path style="opacity:1" fill="#e2986c" d="M 238.5,14.5 C 279.54,14.0285 320.54,14.5285 361.5,16C 383.443,25.0237 393.277,41.5237 391,65.5C 392.41,68.7892 394.91,70.4559 398.5,70.5C 398.5,76.8333 398.5,83.1667 398.5,89.5C 395.413,90.053 392.913,91.7197 391,94.5C 390.5,107.162 390.333,119.829 390.5,132.5C 379.325,135.507 371.825,142.507 368,153.5C 367.333,162.5 367.333,171.5 368,180.5C 370.775,192.776 378.275,200.109 390.5,202.5C 390.5,212.5 390.5,222.5 390.5,232.5C 300.332,232.833 210.332,232.499 120.5,231.5C 152.167,231.5 183.833,231.5 215.5,231.5C 205.716,157.213 213.383,84.8795 238.5,14.5 Z"/></g>
<g><path style="opacity:1" fill="#060403" d="M 197.5,83.5 C 190.747,85.7924 186.747,83.4591 185.5,76.5C 185.103,71.0414 185.603,65.7081 187,60.5C 191.551,56.4175 195.884,56.7509 200,61.5C 200.667,67.5 200.667,73.5 200,79.5C 199.338,80.9839 198.504,82.3172 197.5,83.5 Z"/></g>
<g><path style="opacity:1" fill="#060404" d="M 325.5,76.5 C 324.253,83.4591 320.253,85.7924 313.5,83.5C 310.989,79.6305 309.989,75.2971 310.5,70.5C 308.683,61.8394 312.017,57.6727 320.5,58C 321.931,58.4652 323.097,59.2986 324,60.5C 325.397,65.7081 325.897,71.0414 325.5,76.5 Z"/></g>
<g><path style="opacity:1" fill="#070403" d="M 235.5,69.5 C 241.005,68.5862 245.338,70.4195 248.5,75C 256.223,77.6492 262.89,75.9825 268.5,70C 278.504,69.3334 281.337,73.5001 277,82.5C 262.621,94.3955 248.288,94.3955 234,82.5C 230.287,77.5889 230.787,73.2556 235.5,69.5 Z"/></g>
<g><path style="opacity:1" fill="#fefdfd" d="M 185.5,76.5 C 186.747,83.4591 190.747,85.7924 197.5,83.5C 208.494,95.1284 207.828,106.295 195.5,117C 183.816,123.48 171.816,124.147 159.5,119C 144.993,109.334 142.993,97.6677 153.5,84C 162.989,76.9986 173.655,74.4986 185.5,76.5 Z"/></g>
<g><path style="opacity:1" fill="#fefdfd" d="M 325.5,76.5 C 336.751,74.788 347.084,76.9547 356.5,83C 368.451,96.8087 366.784,108.809 351.5,119C 335.237,126.028 321.07,123.195 309,110.5C 303.394,100.233 304.894,91.2332 313.5,83.5C 320.253,85.7924 324.253,83.4591 325.5,76.5 Z"/></g>
<g><path style="opacity:1" fill="#d57a40" d="M 73.5,146.5 C 87.8372,146.333 102.171,146.5 116.5,147C 121.737,147.9 125.571,150.734 128,155.5C 128.91,164.244 128.576,172.911 127,181.5C 124.76,184.402 121.927,186.569 118.5,188C 102.433,188.954 86.4327,188.621 70.5,187C 67.2553,185.019 65.0886,182.186 64,178.5C 63.3333,170.833 63.3333,163.167 64,155.5C 66.4057,151.592 69.5724,148.592 73.5,146.5 Z"/></g>
<g><path style="opacity:1" fill="#db8755" d="M 392.5,146.5 C 406.837,146.333 421.171,146.5 435.5,147C 440.737,147.9 444.571,150.734 447,155.5C 447.667,163.167 447.667,170.833 447,178.5C 445.833,183.667 442.667,186.833 437.5,188C 421.433,188.954 405.433,188.621 389.5,187C 386.243,184.98 384.076,182.146 383,178.5C 382.333,170.833 382.333,163.167 383,155.5C 385.406,151.592 388.572,148.592 392.5,146.5 Z"/></g>
<g><path style="opacity:1" fill="#778ba1" d="M 86.5,203.5 C 92.8333,203.5 99.1667,203.5 105.5,203.5C 105.5,213.167 105.5,222.833 105.5,232.5C 99.1667,232.5 92.8333,232.5 86.5,232.5C 86.5,222.833 86.5,213.167 86.5,203.5 Z"/></g>
<g><path style="opacity:1" fill="#778ba1" d="M 405.5,203.5 C 411.833,203.5 418.167,203.5 424.5,203.5C 424.5,213.167 424.5,222.833 424.5,232.5C 418.167,232.5 411.833,232.5 405.5,232.5C 405.5,222.833 405.5,213.167 405.5,203.5 Z"/></g>
<g><path style="opacity:0.999" fill="#d87b40" d="M 212.5,247.5 C 202.943,266.651 201.943,286.317 209.5,306.5C 192.83,306.333 176.163,306.5 159.5,307C 156.108,308.542 154.108,311.042 153.5,314.5C 147.167,314.5 140.833,314.5 134.5,314.5C 133.892,311.042 131.892,308.542 128.5,307C 115.167,306.667 101.833,306.333 88.5,306C 83.9481,304.412 81.1148,301.245 80,296.5C 79.3333,283.167 79.3333,269.833 80,256.5C 81.4421,252.725 83.9421,249.892 87.5,248C 129.165,247.5 170.832,247.333 212.5,247.5 Z"/></g>
<g><path style="opacity:1" fill="#de8956" d="M 212.5,247.5 C 282.501,247.333 352.501,247.5 422.5,248C 426.667,249.5 429.5,252.333 431,256.5C 431.667,269.833 431.667,283.167 431,296.5C 429.807,301.694 426.64,304.86 421.5,306C 350.834,306.5 280.167,306.667 209.5,306.5C 201.943,286.317 202.943,266.651 212.5,247.5 Z"/></g>
<g><path style="opacity:1" fill="#687f97" d="M 240.5,321.5 C 251.5,321.5 262.5,321.5 273.5,321.5C 273.667,335.171 273.5,348.837 273,362.5C 267.811,359.287 262.144,357.953 256,358.5C 250.424,357.783 245.424,359.117 241,362.5C 240.5,348.837 240.333,335.171 240.5,321.5 Z"/></g>
<g><path style="opacity:1" fill="#798da3" d="M 250.5,373.5 C 261.063,371.175 268.563,374.842 273,384.5C 273.667,403.833 273.667,423.167 273,442.5C 267.682,453.961 259.182,457.128 247.5,452C 244.567,449.736 242.4,446.902 241,443.5C 240.333,423.833 240.333,404.167 241,384.5C 242.627,379.382 245.793,375.715 250.5,373.5 Z"/></g>
<g><path style="opacity:1" fill="#688098" d="M 221.5,398.5 C 223.199,398.34 224.866,398.506 226.5,399C 225.513,410.085 225.179,421.252 225.5,432.5C 188.547,439.424 151.547,446.091 114.5,452.5C 112.034,444.671 111.201,436.671 112,428.5C 114.167,423.667 117.667,420.167 122.5,418C 155.697,411.793 188.697,405.293 221.5,398.5 Z"/></g>
<g><path style="opacity:1" fill="#688098" d="M 288.5,398.5 C 322.453,405.231 356.453,411.731 390.5,418C 400.497,421.826 404.331,428.993 402,439.5C 400.843,443.782 400.01,448.116 399.5,452.5C 362.423,446.352 325.423,439.685 288.5,432.5C 288.5,421.167 288.5,409.833 288.5,398.5 Z"/></g>
<g><path style="opacity:1" fill="#dbdaf1" d="M 146.5,495.5 C 141.075,495.929 137.242,493.596 135,488.5C 130.962,481.371 129.462,473.704 130.5,465.5C 140.456,463.513 150.456,461.513 160.5,459.5C 164.9,461.473 166.567,464.973 165.5,470C 165.33,483.2 158.997,491.7 146.5,495.5 Z"/></g>
<g><path style="opacity:1" fill="#dbdaf2" d="M 256.5,496.5 C 247.978,488.832 244.645,479.498 246.5,468.5C 259.497,471.609 270.83,468.609 280.5,459.5C 286.483,474.043 282.816,485.543 269.5,494C 265.368,495.9 261.034,496.733 256.5,496.5 Z"/></g>
<g><path style="opacity:1" fill="#c3c0e5" d="M 365.5,462.5 C 363.61,462.297 362.11,462.963 361,464.5C 359.811,476.764 363.311,487.431 371.5,496.5C 353.618,492.768 346.118,481.768 349,463.5C 349.309,462.234 349.809,461.067 350.5,460C 355.704,460.051 360.704,460.885 365.5,462.5 Z"/></g>
<g><path style="opacity:1" fill="#c2bfe4" d="M 246.5,468.5 C 244.645,479.498 247.978,488.832 256.5,496.5C 237.374,492.399 230.041,480.899 234.5,462C 238.542,463.858 242.542,466.025 246.5,468.5 Z"/></g>
<g><path style="opacity:1" fill="#dcdbf3" d="M 365.5,462.5 C 375.826,464.285 386.16,466.119 396.5,468C 399.461,481.059 394.461,490.059 381.5,495C 378.243,496.043 374.91,496.543 371.5,496.5C 363.311,487.431 359.811,476.764 361,464.5C 362.11,462.963 363.61,462.297 365.5,462.5 Z"/></g>
<g><path style="opacity:1" fill="#c2bfe3" d="M 130.5,465.5 C 129.462,473.704 130.962,481.371 135,488.5C 137.242,493.596 141.075,495.929 146.5,495.5C 129.762,498.196 119.262,491.196 115,474.5C 114.333,472.5 114.333,470.5 115,468.5C 120.124,467.429 125.291,466.429 130.5,465.5 Z"/></g>
</svg>
