<?xml version="1.0" encoding="UTF-8"?>
<!DOCTYPE svg PUBLIC "-//W3C//DTD SVG 1.1//EN" "http://www.w3.org/Graphics/SVG/1.1/DTD/svg11.dtd">
<svg xmlns="http://www.w3.org/2000/svg" version="1.1" width="512px" height="512px" style="shape-rendering:geometricPrecision; text-rendering:geometricPrecision; image-rendering:optimizeQuality; fill-rule:evenodd; clip-rule:evenodd" xmlns:xlink="http://www.w3.org/1999/xlink">
<g><path style="opacity:0.993" fill="#020201" d="M 95.5,-0.5 C 202.167,-0.5 308.833,-0.5 415.5,-0.5C 441.594,5.76185 457.427,22.0952 463,48.5C 463.5,72.8311 463.667,97.1644 463.5,121.5C 489.581,128.022 505.581,144.355 511.5,170.5C 511.5,247.5 511.5,324.5 511.5,401.5C 509.986,404.095 507.652,405.429 504.5,405.5C 500.363,405.518 497.863,403.518 497,399.5C 496.667,324.167 496.333,248.833 496,173.5C 491.603,153.437 479.437,140.937 459.5,136C 342.834,135.5 226.167,135.333 109.5,135.5C 90.1638,135.333 70.8305,135.5 51.5,136C 33.7514,140.948 21.9181,152.115 16,169.5C 14.5095,264.789 14.0095,360.123 14.5,455.5C 72.3319,456.665 130.332,456.832 188.5,456C 187.956,455.283 187.289,454.783 186.5,454.5C 178.663,450.991 171.329,446.658 164.5,441.5C 113.788,401.698 93.2879,349.698 103,285.5C 104.774,278.454 106.607,271.454 108.5,264.5C 134.825,200.219 182.825,165.552 252.5,160.5C 322.897,163.008 372.23,196.341 400.5,260.5C 408.145,261.331 415.812,261.831 423.5,262C 434.342,264.842 441.175,271.675 444,282.5C 444.667,305.167 444.667,327.833 444,350.5C 440.632,361.202 433.466,367.702 422.5,370C 415.144,370.169 407.811,370.669 400.5,371.5C 385.578,408.753 360.244,436.42 324.5,454.5C 323.711,454.783 323.044,455.283 322.5,456C 380.499,456.5 438.499,456.667 496.5,456.5C 496.5,455.5 496.5,454.5 496.5,453.5C 496.334,446.159 496.5,438.826 497,431.5C 498.41,428.211 500.91,426.544 504.5,426.5C 507.652,426.571 509.986,427.905 511.5,430.5C 511.5,440.833 511.5,451.167 511.5,461.5C 504.5,487.833 487.833,504.5 461.5,511.5C 324.167,511.5 186.833,511.5 49.5,511.5C 23.1667,504.5 6.5,487.833 -0.5,461.5C -0.5,364.5 -0.5,267.5 -0.5,170.5C 5.4189,144.355 21.4189,128.022 47.5,121.5C 47.3334,105.497 47.5001,89.4965 48,73.5C 49.678,71.3341 51.8447,70.0007 54.5,69.5C 57.3301,70.5103 59.8301,72.1769 62,74.5C 62.4999,89.8297 62.6666,105.163 62.5,120.5C 191.334,120.833 320.001,120.5 448.5,119.5C 448.95,95.1228 448.45,70.7895 447,46.5C 440.618,28.7893 428.118,18.2893 409.5,15C 333.501,14.5 257.501,14.3333 181.5,14.5C 152.45,14.0326 123.45,14.5326 94.5,16C 79,20.8333 68.8333,31 64,46.5C 61.6954,48.9305 58.8621,49.9305 55.5,49.5C 52.0771,48.022 50.0771,45.3553 49.5,41.5C 56.9827,18.7802 72.316,4.78017 95.5,-0.5 Z"/></g>
<g><path style="opacity:1" fill="#78c9f4" d="M 181.5,14.5 C 179.415,50.2895 183.415,85.2895 193.5,119.5C 278.5,119.5 363.5,119.5 448.5,119.5C 320.001,120.5 191.334,120.833 62.5,120.5C 62.6666,105.163 62.4999,89.8297 62,74.5C 59.8301,72.1769 57.3301,70.5103 54.5,69.5C 54.287,62.7895 54.6204,56.1228 55.5,49.5C 58.8621,49.9305 61.6954,48.9305 64,46.5C 68.8333,31 79,20.8333 94.5,16C 123.45,14.5326 152.45,14.0326 181.5,14.5 Z"/></g>
<g><path style="opacity:1" fill="#a1dcfc" d="M 181.5,14.5 C 257.501,14.3333 333.501,14.5 409.5,15C 428.118,18.2893 440.618,28.7893 447,46.5C 448.45,70.7895 448.95,95.1228 448.5,119.5C 363.5,119.5 278.5,119.5 193.5,119.5C 183.415,85.2895 179.415,50.2895 181.5,14.5 Z"/></g>
<g><path style="opacity:1" fill="#020305" d="M 127.5,33.5 C 155.688,32.1907 169.521,45.524 169,73.5C 163.154,93.6887 149.654,102.855 128.5,101C 108.678,94.1902 99.8446,80.3569 102,59.5C 106.017,46.3175 114.517,37.6508 127.5,33.5 Z"/></g>
<g><path style="opacity:1" fill="#040505" d="M 219.5,33.5 C 239.994,30.9895 253.827,39.3229 261,58.5C 263.205,87.628 249.705,101.795 220.5,101C 201.705,94.5348 192.871,81.3681 194,61.5C 197.821,47.8482 206.321,38.5149 219.5,33.5 Z"/></g>
<g><path style="opacity:1" fill="#6892d2" d="M 129.5,48.5 C 148.978,47.482 156.811,56.482 153,75.5C 146.942,85.2811 138.442,88.4478 127.5,85C 114.896,75.9971 113.229,65.3304 122.5,53C 124.898,51.4758 127.231,49.9758 129.5,48.5 Z"/></g>
<g><path style="opacity:1" fill="#fbfbfb" d="M 221.5,48.5 C 241.072,47.5605 248.905,56.5605 245,75.5C 237.957,86.9543 228.457,89.4543 216.5,83C 204.682,69.5568 206.349,58.0568 221.5,48.5 Z"/></g>
<g><path style="opacity:1" fill="#060709" d="M 328.5,59.5 C 349.836,59.3334 371.169,59.5 392.5,60C 397.689,62.9132 398.856,67.0799 396,72.5C 395.25,73.1258 394.416,73.6258 393.5,74C 371.5,74.6667 349.5,74.6667 327.5,74C 321.99,68.7302 322.323,63.8968 328.5,59.5 Z"/></g>
<g><path style="opacity:1" fill="#f4e1a1" d="M 109.5,135.5 C 105.945,178.468 105.612,221.468 108.5,264.5C 106.607,271.454 104.774,278.454 103,285.5C 93.2879,349.698 113.788,401.698 164.5,441.5C 166.685,446.686 169.685,451.353 173.5,455.5C 120.5,455.5 67.5,455.5 14.5,455.5C 14.0095,360.123 14.5095,264.789 16,169.5C 21.9181,152.115 33.7514,140.948 51.5,136C 70.8305,135.5 90.1638,135.333 109.5,135.5 Z"/></g>
<g><path style="opacity:1" fill="#faf0ce" d="M 109.5,135.5 C 226.167,135.333 342.834,135.5 459.5,136C 479.437,140.937 491.603,153.437 496,173.5C 496.333,248.833 496.667,324.167 497,399.5C 497.863,403.518 500.363,405.518 504.5,405.5C 504.5,412.5 504.5,419.5 504.5,426.5C 500.91,426.544 498.41,428.211 497,431.5C 496.5,438.826 496.334,446.159 496.5,453.5C 467.88,454.825 439.047,455.492 410,455.5C 381.331,455.5 352.831,455.167 324.5,454.5C 360.244,436.42 385.578,408.753 400.5,371.5C 407.811,370.669 415.144,370.169 422.5,370C 433.466,367.702 440.632,361.202 444,350.5C 444.667,327.833 444.667,305.167 444,282.5C 441.175,271.675 434.342,264.842 423.5,262C 415.812,261.831 408.145,261.331 400.5,260.5C 372.23,196.341 322.897,163.008 252.5,160.5C 182.825,165.552 134.825,200.219 108.5,264.5C 105.612,221.468 105.945,178.468 109.5,135.5 Z"/></g>
<g><path style="opacity:1" fill="#4d555e" d="M 242.5,175.5 C 301.986,173.153 347.153,197.153 378,247.5C 400.993,292.311 401.327,337.311 379,382.5C 346.72,435.892 299.22,460.059 236.5,455C 190.107,447.241 155.273,423.074 132,382.5C 105.242,326.761 110.575,274.427 148,225.5C 173.182,196.827 204.682,180.16 242.5,175.5 Z"/></g>
<g><path style="opacity:1" fill="#020203" d="M 240.5,197.5 C 290.513,194.258 329.346,213.258 357,254.5C 376.43,289.65 378.763,325.983 364,363.5C 341.749,408.89 305.249,432.557 254.5,434.5C 202.421,431.549 165.921,406.215 145,358.5C 128.357,309.148 138.19,265.981 174.5,229C 193.566,212.3 215.566,201.8 240.5,197.5 Z"/></g>
<g><path style="opacity:1" fill="#6993d4" d="M 241.5,212.5 C 277.475,209.541 307.808,221.041 332.5,247C 300.677,251.879 275.177,267.046 256,292.5C 237.27,285.693 218.103,280.526 198.5,277C 185.374,276.564 172.374,276.398 159.5,276.5C 176.079,241.229 203.413,219.896 241.5,212.5 Z"/></g>
<g><path style="opacity:1" fill="#78c9f5" d="M 334.5,261.5 C 337.518,261.335 340.518,261.502 343.5,262C 348.829,269.479 352.329,277.646 354,286.5C 328.379,303.841 300.879,307.341 271.5,297C 288.113,277.361 309.113,265.527 334.5,261.5 Z"/></g>
<g><path style="opacity:1" fill="#425169" d="M 418.5,276.5 C 414.029,275.911 410.029,276.577 406.5,278.5C 405.596,277.791 405.263,276.791 405.5,275.5C 410.032,275.182 414.366,275.515 418.5,276.5 Z"/></g>
<g><path style="opacity:1" fill="#8bacde" d="M 418.5,276.5 C 423.262,276.963 426.762,279.296 429,283.5C 429.667,304.833 429.667,326.167 429,347.5C 427.542,349.96 425.709,352.127 423.5,354C 417.593,355.361 411.593,355.861 405.5,355.5C 411.665,329.896 411.998,304.229 406.5,278.5C 410.029,276.577 414.029,275.911 418.5,276.5 Z"/></g>
<g><path style="opacity:1" fill="#a0dbfb" d="M 340.5,374.5 C 337.466,365.971 331.466,360.804 322.5,359C 318.745,358.245 315.078,358.411 311.5,359.5C 311.666,355.154 311.499,350.821 311,346.5C 305.885,340.925 301.219,341.258 297,347.5C 296.333,352.167 296.333,356.833 297,361.5C 297.662,362.984 298.496,364.317 299.5,365.5C 291.647,378.12 294.647,387.62 308.5,394C 312.395,395.266 316.395,395.766 320.5,395.5C 308.171,406.331 293.838,413.498 277.5,417C 244.881,423.762 215.881,416.595 190.5,395.5C 204.674,396.435 213.34,390.102 216.5,376.5C 215.636,372.44 213.969,368.773 211.5,365.5C 212.504,364.317 213.338,362.984 214,361.5C 214.667,356.833 214.667,352.167 214,347.5C 209.781,341.258 205.115,340.925 200,346.5C 199.501,350.821 199.334,355.154 199.5,359.5C 185.809,356.845 176.142,361.845 170.5,374.5C 153.463,349.97 148.129,322.97 154.5,293.5C 172.831,289.612 191.164,289.779 209.5,294C 231.636,300.268 253.636,306.935 275.5,314C 297.51,319.547 319.177,318.547 340.5,311C 346.443,307.86 352.443,305.027 358.5,302.5C 360.929,328.785 354.929,352.785 340.5,374.5 Z"/></g>
<g><path style="opacity:1" fill="#07080a" d="M 211.5,365.5 C 204.939,368.216 200.939,366.216 199.5,359.5C 199.334,355.154 199.501,350.821 200,346.5C 205.115,340.925 209.781,341.258 214,347.5C 214.667,352.167 214.667,356.833 214,361.5C 213.338,362.984 212.504,364.317 211.5,365.5 Z"/></g>
<g><path style="opacity:1" fill="#060809" d="M 311.5,359.5 C 310.061,366.216 306.061,368.216 299.5,365.5C 298.496,364.317 297.662,362.984 297,361.5C 296.333,356.833 296.333,352.167 297,347.5C 301.219,341.258 305.885,340.925 311,346.5C 311.499,350.821 311.666,355.154 311.5,359.5 Z"/></g>
<g><path style="opacity:1" fill="#050607" d="M 240.5,351.5 C 244.933,351.759 248.6,353.593 251.5,357C 257.161,358.171 261.828,356.505 265.5,352C 273.211,351.378 276.378,354.878 275,362.5C 271.525,367.626 266.691,370.792 260.5,372C 250.266,373.926 242.099,370.759 236,362.5C 234.393,357.438 235.893,353.772 240.5,351.5 Z"/></g>
<g><path style="opacity:1" fill="#fcfdfd" d="M 199.5,359.5 C 200.939,366.216 204.939,368.216 211.5,365.5C 213.969,368.773 215.636,372.44 216.5,376.5C 213.34,390.102 204.674,396.435 190.5,395.5C 182.478,389.811 175.811,382.811 170.5,374.5C 176.142,361.845 185.809,356.845 199.5,359.5 Z"/></g>
<g><path style="opacity:1" fill="#fcfcfd" d="M 340.5,374.5 C 335.189,382.811 328.522,389.811 320.5,395.5C 316.395,395.766 312.395,395.266 308.5,394C 294.647,387.62 291.647,378.12 299.5,365.5C 306.061,368.216 310.061,366.216 311.5,359.5C 315.078,358.411 318.745,358.245 322.5,359C 331.466,360.804 337.466,365.971 340.5,374.5 Z"/></g>
<g><path style="opacity:1" fill="#f2e8c7" d="M 164.5,441.5 C 171.329,446.658 178.663,450.991 186.5,454.5C 182.366,455.485 178.032,455.818 173.5,455.5C 169.685,451.353 166.685,446.686 164.5,441.5 Z"/></g>
<g><path style="opacity:1" fill="#827957" d="M 186.5,454.5 C 187.289,454.783 187.956,455.283 188.5,456C 130.332,456.832 72.3319,456.665 14.5,455.5C 67.5,455.5 120.5,455.5 173.5,455.5C 178.032,455.818 182.366,455.485 186.5,454.5 Z"/></g>
<g><path style="opacity:1" fill="#85806d" d="M 496.5,453.5 C 496.5,454.5 496.5,455.5 496.5,456.5C 438.499,456.667 380.499,456.5 322.5,456C 323.044,455.283 323.711,454.783 324.5,454.5C 352.831,455.167 381.331,455.5 410,455.5C 439.047,455.492 467.88,454.825 496.5,453.5 Z"/></g>
<g><path style="opacity:1" fill="#3d4d67" d="M 490.5,472.5 C 390.335,471.501 290.001,471.167 189.5,471.5C 132.998,471.168 76.6642,471.501 20.5,472.5C 19.9569,472.44 19.6236,472.107 19.5,471.5C 176.833,470.167 334.167,470.167 491.5,471.5C 491.376,472.107 491.043,472.44 490.5,472.5 Z"/></g>
<g><path style="opacity:1" fill="#6994d5" d="M 189.5,471.5 C 198.332,481.34 208.332,489.674 219.5,496.5C 163.832,496.667 108.166,496.5 52.5,496C 38.5349,492.519 27.8682,484.685 20.5,472.5C 76.6642,471.501 132.998,471.168 189.5,471.5 Z"/></g>
<g><path style="opacity:1" fill="#8cade0" d="M 189.5,471.5 C 290.001,471.167 390.335,471.501 490.5,472.5C 483.091,485.219 472.091,493.052 457.5,496C 378.167,496.5 298.834,496.667 219.5,496.5C 208.332,489.674 198.332,481.34 189.5,471.5 Z"/></g>
</svg>
