<?xml version="1.0" encoding="UTF-8"?>
<!DOCTYPE svg PUBLIC "-//W3C//DTD SVG 1.1//EN" "http://www.w3.org/Graphics/SVG/1.1/DTD/svg11.dtd">
<svg xmlns="http://www.w3.org/2000/svg" version="1.1" width="512px" height="512px" style="shape-rendering:geometricPrecision; text-rendering:geometricPrecision; image-rendering:optimizeQuality; fill-rule:evenodd; clip-rule:evenodd" xmlns:xlink="http://www.w3.org/1999/xlink">
<g><path style="opacity:0.967" fill="#010101" d="M 389.5,-0.5 C 395.833,-0.5 402.167,-0.5 408.5,-0.5C 414.792,1.47678 420.792,4.31011 426.5,8C 452,33.5 477.5,59 503,84.5C 506.69,90.2079 509.523,96.2079 511.5,102.5C 511.5,108.5 511.5,114.5 511.5,120.5C 509.351,129.178 505.185,136.845 499,143.5C 481.333,163.833 463.667,184.167 446,204.5C 443.463,207.372 440.63,209.872 437.5,212C 439.831,219.974 441.331,228.14 442,236.5C 442.667,247.833 442.667,259.167 442,270.5C 440.117,273.024 437.617,274.358 434.5,274.5C 431.331,274.161 429.164,272.495 428,269.5C 430.132,214.3 411.632,167.467 372.5,129C 368.22,124.874 363.554,121.374 358.5,118.5C 338.558,102.554 315.892,92.0539 290.5,87C 218.839,75.3205 160.672,97.8205 116,154.5C 106.856,167.116 99.5231,180.783 94,195.5C 91.4537,198.186 88.287,199.186 84.5,198.5C 82.9826,198.489 81.8159,197.823 81,196.5C 79.8495,194.246 79.5162,191.913 80,189.5C 106.153,125.022 153.319,85.5219 221.5,71C 239.42,68.5685 257.42,67.9018 275.5,69C 283.522,70.2279 291.522,71.2279 299.5,72C 325.274,48.6237 351.607,25.957 378.5,4C 382.307,2.57157 385.974,1.07157 389.5,-0.5 Z"/></g>
<g><path style="opacity:1" fill="#f3bdd6" d="M 453.5,171.5 C 431.228,116.562 391.894,79.8954 335.5,61.5C 351.678,46.4919 368.345,31.9919 385.5,18C 396.207,12.9006 406.54,13.5672 416.5,20C 441.333,44.8333 466.167,69.6667 491,94.5C 497.507,104.416 498.173,114.749 493,125.5C 480.052,141.091 466.886,156.425 453.5,171.5 Z"/></g>
<g><path style="opacity:1" fill="#efa9c9" d="M 335.5,61.5 C 391.894,79.8954 431.228,116.562 453.5,171.5C 446.502,179.333 439.669,187.333 433,195.5C 411.833,138.333 372.667,99.1667 315.5,78C 322.013,72.2531 328.68,66.7531 335.5,61.5 Z"/></g>
<g><path style="opacity:1" fill="#53659c" d="M 358.5,118.5 C 344.415,122.547 331.081,128.213 318.5,135.5C 255.178,107.634 199.678,118.634 152,168.5C 115.626,215.907 110.626,266.574 137,320.5C 155.856,353.195 183.356,374.862 219.5,385.5C 220.821,391.297 222.654,396.963 225,402.5C 229.117,410.4 232.951,418.4 236.5,426.5C 176.847,418.112 132.347,387.778 103,335.5C 85.5628,299.345 79.5628,261.345 85,221.5C 83.5002,219.531 81.6669,218.198 79.5,217.5C 80.9615,211.115 82.6282,204.782 84.5,198.5C 88.287,199.186 91.4537,198.186 94,195.5C 99.5231,180.783 106.856,167.116 116,154.5C 160.672,97.8205 218.839,75.3205 290.5,87C 315.892,92.0539 338.558,102.554 358.5,118.5 Z"/></g>
<g><path style="opacity:1" fill="#6070a1" d="M 358.5,118.5 C 363.554,121.374 368.22,124.874 372.5,129C 411.632,167.467 430.132,214.3 428,269.5C 429.164,272.495 431.331,274.161 434.5,274.5C 433.779,280.881 432.779,287.214 431.5,293.5C 427.311,293.182 424.145,294.848 422,298.5C 404.202,360.299 364.702,401.132 303.5,421C 281.465,426.717 259.132,428.55 236.5,426.5C 232.951,418.4 229.117,410.4 225,402.5C 222.654,396.963 220.821,391.297 219.5,385.5C 274.376,398.158 320.876,383.825 359,342.5C 395.367,294.991 400.367,244.324 374,190.5C 360.26,167.26 341.76,148.926 318.5,135.5C 331.081,128.213 344.415,122.547 358.5,118.5 Z"/></g>
<g><path style="opacity:1" fill="#020304" d="M 318.5,135.5 C 341.76,148.926 360.26,167.26 374,190.5C 400.367,244.324 395.367,294.991 359,342.5C 320.876,383.825 274.376,398.158 219.5,385.5C 183.356,374.862 155.856,353.195 137,320.5C 110.626,266.574 115.626,215.907 152,168.5C 199.678,118.634 255.178,107.634 318.5,135.5 Z"/></g>
<g><path style="opacity:1" fill="#81c0e5" d="M 302.5,145.5 C 285.38,155.614 270.713,168.614 258.5,184.5C 238.701,175.242 222.201,179.242 209,196.5C 201.741,210.125 201.741,223.792 209,237.5C 212.67,242.002 216.503,246.335 220.5,250.5C 213.063,269.452 209.397,289.119 209.5,309.5C 203.413,307.021 200.58,302.355 201,295.5C 196.748,289.347 192.081,289.014 187,294.5C 185.588,310.684 192.755,320.684 208.5,324.5C 208.693,339.02 210.36,353.353 213.5,367.5C 174.83,352.326 149.996,324.659 139,284.5C 128.852,234.272 143.352,192.772 182.5,160C 219.939,133.197 259.939,128.364 302.5,145.5 Z"/></g>
<g><path style="opacity:1" fill="#cce8f9" d="M 302.5,145.5 C 348.863,167.076 373.196,203.576 375.5,255C 372.122,315.037 341.789,354.037 284.5,372C 260.221,377.826 236.555,376.326 213.5,367.5C 210.36,353.353 208.693,339.02 208.5,324.5C 215.051,326.223 219.051,323.89 220.5,317.5C 219.592,311.201 215.925,308.534 209.5,309.5C 209.397,289.119 213.063,269.452 220.5,250.5C 236.965,266.465 253.299,282.632 269.5,299C 285.207,309.983 301.207,310.316 317.5,300C 329.739,288.381 333.739,274.381 329.5,258C 338.86,223.379 326.527,200.713 292.5,190C 284.555,189.043 276.721,189.543 269,191.5C 265.357,189.352 261.857,187.019 258.5,184.5C 270.713,168.614 285.38,155.614 302.5,145.5 Z"/></g>
<g><path style="opacity:1" fill="#040404" d="M 258.5,184.5 C 261.857,187.019 265.357,189.352 269,191.5C 276.721,189.543 284.555,189.043 292.5,190C 326.527,200.713 338.86,223.379 329.5,258C 333.739,274.381 329.739,288.381 317.5,300C 301.207,310.316 285.207,309.983 269.5,299C 253.299,282.632 236.965,266.465 220.5,250.5C 216.503,246.335 212.67,242.002 209,237.5C 201.741,223.792 201.741,210.125 209,196.5C 222.201,179.242 238.701,175.242 258.5,184.5 Z"/></g>
<g><path style="opacity:1" fill="#f4e6b6" d="M 247.5,196.5 C 239.483,208.528 232.483,221.195 226.5,234.5C 219.231,227.79 216.731,219.457 219,209.5C 225.08,197.035 234.58,192.702 247.5,196.5 Z"/></g>
<g><path style="opacity:1" fill="#fdf7e5" d="M 247.5,196.5 C 249.308,196.491 250.975,196.991 252.5,198C 255.887,201.387 259.221,204.721 262.5,208C 264.5,208.667 266.5,208.667 268.5,208C 291.478,199.738 307.644,206.905 317,229.5C 317.667,235.167 317.667,240.833 317,246.5C 312.879,252.665 312.546,258.998 316,265.5C 316.637,285.859 306.804,294.692 286.5,292C 285.167,291.333 283.833,290.667 282.5,290C 263.327,271.994 244.66,253.494 226.5,234.5C 232.483,221.195 239.483,208.528 247.5,196.5 Z"/></g>
<g><path style="opacity:0.968" fill="#010101" d="M 79.5,217.5 C 81.6669,218.198 83.5002,219.531 85,221.5C 79.5628,261.345 85.5628,299.345 103,335.5C 132.347,387.778 176.847,418.112 236.5,426.5C 259.132,428.55 281.465,426.717 303.5,421C 364.702,401.132 404.202,360.299 422,298.5C 424.145,294.848 427.311,293.182 431.5,293.5C 434.782,294.861 436.782,297.361 437.5,301C 432.154,321.684 423.821,341.018 412.5,359C 417.987,365.155 423.487,371.322 429,377.5C 435.425,389.581 434.758,401.247 427,412.5C 422.167,417.333 417.333,422.167 412.5,427C 399.833,435.667 387.167,435.667 374.5,427C 369.623,421.787 364.456,416.954 359,412.5C 313.415,440.682 264.248,449.515 211.5,439C 187.463,460.706 163.13,482.039 138.5,503C 133.01,507.098 127.01,509.931 120.5,511.5C 114.5,511.5 108.5,511.5 102.5,511.5C 96.2079,509.523 90.2079,506.69 84.5,503C 59,477.5 33.5,452 8,426.5C 4.59336,421.02 1.76003,415.353 -0.5,409.5C -0.5,402.833 -0.5,396.167 -0.5,389.5C 2.10421,381.367 6.27088,374.034 12,367.5C 29.6667,347.167 47.3333,326.833 65,306.5C 67.5366,303.628 70.3699,301.128 73.5,299C 71.3048,290.999 69.8048,282.833 69,274.5C 68.3333,261.833 68.3333,249.167 69,236.5C 69.357,231.022 70.357,225.688 72,220.5C 73.8484,217.959 76.3484,216.959 79.5,217.5 Z"/></g>
<g><path style="opacity:1" fill="#030405" d="M 170.5,256.5 C 178.775,255.706 181.942,259.373 180,267.5C 176.833,270.667 173.667,273.833 170.5,277C 166.22,279.477 162.72,278.644 160,274.5C 159.333,272.167 159.333,269.833 160,267.5C 163.03,263.305 166.53,259.639 170.5,256.5 Z"/></g>
<g><path style="opacity:1" fill="#030505" d="M 209.5,309.5 C 215.925,308.534 219.592,311.201 220.5,317.5C 219.051,323.89 215.051,326.223 208.5,324.5C 192.755,320.684 185.588,310.684 187,294.5C 192.081,289.014 196.748,289.347 201,295.5C 200.58,302.355 203.413,307.021 209.5,309.5 Z"/></g>
<g><path style="opacity:1" fill="#efa9c9" d="M 170.5,454.5 C 115.033,435.28 76.0334,398.614 53.5,344.5C 61.456,334.706 69.6226,325.039 78,315.5C 99.1408,372.641 138.308,411.808 195.5,433C 187,440.002 178.666,447.169 170.5,454.5 Z"/></g>
<g><path style="opacity:1" fill="#050506" d="M 243.5,330.5 C 251.794,329.036 255.294,332.37 254,340.5C 251.537,343.965 248.704,347.131 245.5,350C 236.961,353.451 232.794,350.618 233,341.5C 236.704,337.964 240.204,334.298 243.5,330.5 Z"/></g>
<g><path style="opacity:1" fill="#f3bdd6" d="M 53.5,344.5 C 76.0334,398.614 115.033,435.28 170.5,454.5C 155.235,468.134 139.568,481.301 123.5,494C 113.268,498.04 103.601,497.04 94.5,491C 69.6667,466.167 44.8333,441.333 20,416.5C 13.5672,406.54 12.9006,396.207 18,385.5C 29.6983,371.641 41.5316,357.974 53.5,344.5 Z"/></g>
<g><path style="opacity:1" fill="#f5ee9a" d="M 401.5,371.5 C 407.539,376.372 412.705,382.039 417,388.5C 417.937,393.403 417.27,398.07 415,402.5C 410.833,406.667 406.667,410.833 402.5,415C 396.472,418.265 390.472,418.265 384.5,415C 380.167,410.667 375.833,406.333 371.5,402C 383.041,393.293 393.041,383.126 401.5,371.5 Z"/></g>
</svg>
